<?xml version="1.0" encoding="utf-8" standalone="no"?>
<!DOCTYPE svg PUBLIC "-//W3C//DTD SVG 1.1//EN"
  "http://www.w3.org/Graphics/SVG/1.1/DTD/svg11.dtd">
<!-- Created with matplotlib (https://matplotlib.org/) -->
<svg height="380.640937pt" version="1.1" viewBox="0 0 818.960781 380.640937" width="818.960781pt" xmlns="http://www.w3.org/2000/svg" xmlns:xlink="http://www.w3.org/1999/xlink">
 <defs>
  <style type="text/css">
*{stroke-linecap:butt;stroke-linejoin:round;}
  </style>
 </defs>
 <g id="figure_1">
  <g id="patch_1">
   <path d="M 0 380.640937 
L 818.960781 380.640937 
L 818.960781 0 
L 0 0 
z
" style="fill:#ffffff;"/>
  </g>
  <g id="axes_1">
   <g id="patch_2">
    <path d="M 46.31125 284.4 
L 715.91125 284.4 
L 715.91125 7.2 
L 46.31125 7.2 
z
" style="fill:#eaeaf2;"/>
   </g>
   <g id="matplotlib.axis_1">
    <g id="xtick_1">
     <g id="line2d_1">
      <path clip-path="url(#p6e8cd2e912)" d="M 76.747614 284.4 
L 76.747614 7.2 
" style="fill:none;stroke:#ffffff;stroke-linecap:round;"/>
     </g>
     <g id="text_1">
      <!-- 2020-03-15 -->
      <defs>
       <path d="M 19.1875 8.296875 
L 53.609375 8.296875 
L 53.609375 0 
L 7.328125 0 
L 7.328125 8.296875 
Q 12.9375 14.109375 22.625 23.890625 
Q 32.328125 33.6875 34.8125 36.53125 
Q 39.546875 41.84375 41.421875 45.53125 
Q 43.3125 49.21875 43.3125 52.78125 
Q 43.3125 58.59375 39.234375 62.25 
Q 35.15625 65.921875 28.609375 65.921875 
Q 23.96875 65.921875 18.8125 64.3125 
Q 13.671875 62.703125 7.8125 59.421875 
L 7.8125 69.390625 
Q 13.765625 71.78125 18.9375 73 
Q 24.125 74.21875 28.421875 74.21875 
Q 39.75 74.21875 46.484375 68.546875 
Q 53.21875 62.890625 53.21875 53.421875 
Q 53.21875 48.921875 51.53125 44.890625 
Q 49.859375 40.875 45.40625 35.40625 
Q 44.1875 33.984375 37.640625 27.21875 
Q 31.109375 20.453125 19.1875 8.296875 
z
" id="DejaVuSans-50"/>
       <path d="M 31.78125 66.40625 
Q 24.171875 66.40625 20.328125 58.90625 
Q 16.5 51.421875 16.5 36.375 
Q 16.5 21.390625 20.328125 13.890625 
Q 24.171875 6.390625 31.78125 6.390625 
Q 39.453125 6.390625 43.28125 13.890625 
Q 47.125 21.390625 47.125 36.375 
Q 47.125 51.421875 43.28125 58.90625 
Q 39.453125 66.40625 31.78125 66.40625 
z
M 31.78125 74.21875 
Q 44.046875 74.21875 50.515625 64.515625 
Q 56.984375 54.828125 56.984375 36.375 
Q 56.984375 17.96875 50.515625 8.265625 
Q 44.046875 -1.421875 31.78125 -1.421875 
Q 19.53125 -1.421875 13.0625 8.265625 
Q 6.59375 17.96875 6.59375 36.375 
Q 6.59375 54.828125 13.0625 64.515625 
Q 19.53125 74.21875 31.78125 74.21875 
z
" id="DejaVuSans-48"/>
       <path d="M 4.890625 31.390625 
L 31.203125 31.390625 
L 31.203125 23.390625 
L 4.890625 23.390625 
z
" id="DejaVuSans-45"/>
       <path d="M 40.578125 39.3125 
Q 47.65625 37.796875 51.625 33 
Q 55.609375 28.21875 55.609375 21.1875 
Q 55.609375 10.40625 48.1875 4.484375 
Q 40.765625 -1.421875 27.09375 -1.421875 
Q 22.515625 -1.421875 17.65625 -0.515625 
Q 12.796875 0.390625 7.625 2.203125 
L 7.625 11.71875 
Q 11.71875 9.328125 16.59375 8.109375 
Q 21.484375 6.890625 26.8125 6.890625 
Q 36.078125 6.890625 40.9375 10.546875 
Q 45.796875 14.203125 45.796875 21.1875 
Q 45.796875 27.640625 41.28125 31.265625 
Q 36.765625 34.90625 28.71875 34.90625 
L 20.21875 34.90625 
L 20.21875 43.015625 
L 29.109375 43.015625 
Q 36.375 43.015625 40.234375 45.921875 
Q 44.09375 48.828125 44.09375 54.296875 
Q 44.09375 59.90625 40.109375 62.90625 
Q 36.140625 65.921875 28.71875 65.921875 
Q 24.65625 65.921875 20.015625 65.03125 
Q 15.375 64.15625 9.8125 62.3125 
L 9.8125 71.09375 
Q 15.4375 72.65625 20.34375 73.4375 
Q 25.25 74.21875 29.59375 74.21875 
Q 40.828125 74.21875 47.359375 69.109375 
Q 53.90625 64.015625 53.90625 55.328125 
Q 53.90625 49.265625 50.4375 45.09375 
Q 46.96875 40.921875 40.578125 39.3125 
z
" id="DejaVuSans-51"/>
       <path d="M 12.40625 8.296875 
L 28.515625 8.296875 
L 28.515625 63.921875 
L 10.984375 60.40625 
L 10.984375 69.390625 
L 28.421875 72.90625 
L 38.28125 72.90625 
L 38.28125 8.296875 
L 54.390625 8.296875 
L 54.390625 0 
L 12.40625 0 
z
" id="DejaVuSans-49"/>
       <path d="M 10.796875 72.90625 
L 49.515625 72.90625 
L 49.515625 64.59375 
L 19.828125 64.59375 
L 19.828125 46.734375 
Q 21.96875 47.46875 24.109375 47.828125 
Q 26.265625 48.1875 28.421875 48.1875 
Q 40.625 48.1875 47.75 41.5 
Q 54.890625 34.8125 54.890625 23.390625 
Q 54.890625 11.625 47.5625 5.09375 
Q 40.234375 -1.421875 26.90625 -1.421875 
Q 22.3125 -1.421875 17.546875 -0.640625 
Q 12.796875 0.140625 7.71875 1.703125 
L 7.71875 11.625 
Q 12.109375 9.234375 16.796875 8.0625 
Q 21.484375 6.890625 26.703125 6.890625 
Q 35.15625 6.890625 40.078125 11.328125 
Q 45.015625 15.765625 45.015625 23.390625 
Q 45.015625 31 40.078125 35.4375 
Q 35.15625 39.890625 26.703125 39.890625 
Q 22.75 39.890625 18.8125 39.015625 
Q 14.890625 38.140625 10.796875 36.28125 
z
" id="DejaVuSans-53"/>
      </defs>
      <g style="fill:#262626;" transform="translate(74.459957 357.827187)rotate(-90)scale(0.11 -0.11)">
       <use xlink:href="#DejaVuSans-50"/>
       <use x="63.623047" xlink:href="#DejaVuSans-48"/>
       <use x="127.246094" xlink:href="#DejaVuSans-50"/>
       <use x="190.869141" xlink:href="#DejaVuSans-48"/>
       <use x="254.492188" xlink:href="#DejaVuSans-45"/>
       <use x="290.576172" xlink:href="#DejaVuSans-48"/>
       <use x="354.199219" xlink:href="#DejaVuSans-51"/>
       <use x="417.822266" xlink:href="#DejaVuSans-45"/>
       <use x="453.90625" xlink:href="#DejaVuSans-49"/>
       <use x="517.529297" xlink:href="#DejaVuSans-53"/>
      </g>
     </g>
    </g>
    <g id="xtick_2">
     <g id="line2d_2">
      <path clip-path="url(#p6e8cd2e912)" d="M 90.904062 284.4 
L 90.904062 7.2 
" style="fill:none;stroke:#ffffff;stroke-linecap:round;"/>
     </g>
     <g id="text_2">
      <!-- 2020-03-16 -->
      <defs>
       <path d="M 33.015625 40.375 
Q 26.375 40.375 22.484375 35.828125 
Q 18.609375 31.296875 18.609375 23.390625 
Q 18.609375 15.53125 22.484375 10.953125 
Q 26.375 6.390625 33.015625 6.390625 
Q 39.65625 6.390625 43.53125 10.953125 
Q 47.40625 15.53125 47.40625 23.390625 
Q 47.40625 31.296875 43.53125 35.828125 
Q 39.65625 40.375 33.015625 40.375 
z
M 52.59375 71.296875 
L 52.59375 62.3125 
Q 48.875 64.0625 45.09375 64.984375 
Q 41.3125 65.921875 37.59375 65.921875 
Q 27.828125 65.921875 22.671875 59.328125 
Q 17.53125 52.734375 16.796875 39.40625 
Q 19.671875 43.65625 24.015625 45.921875 
Q 28.375 48.1875 33.59375 48.1875 
Q 44.578125 48.1875 50.953125 41.515625 
Q 57.328125 34.859375 57.328125 23.390625 
Q 57.328125 12.15625 50.6875 5.359375 
Q 44.046875 -1.421875 33.015625 -1.421875 
Q 20.359375 -1.421875 13.671875 8.265625 
Q 6.984375 17.96875 6.984375 36.375 
Q 6.984375 53.65625 15.1875 63.9375 
Q 23.390625 74.21875 37.203125 74.21875 
Q 40.921875 74.21875 44.703125 73.484375 
Q 48.484375 72.75 52.59375 71.296875 
z
" id="DejaVuSans-54"/>
      </defs>
      <g style="fill:#262626;" transform="translate(88.616406 357.827187)rotate(-90)scale(0.11 -0.11)">
       <use xlink:href="#DejaVuSans-50"/>
       <use x="63.623047" xlink:href="#DejaVuSans-48"/>
       <use x="127.246094" xlink:href="#DejaVuSans-50"/>
       <use x="190.869141" xlink:href="#DejaVuSans-48"/>
       <use x="254.492188" xlink:href="#DejaVuSans-45"/>
       <use x="290.576172" xlink:href="#DejaVuSans-48"/>
       <use x="354.199219" xlink:href="#DejaVuSans-51"/>
       <use x="417.822266" xlink:href="#DejaVuSans-45"/>
       <use x="453.90625" xlink:href="#DejaVuSans-49"/>
       <use x="517.529297" xlink:href="#DejaVuSans-54"/>
      </g>
     </g>
    </g>
    <g id="xtick_3">
     <g id="line2d_3">
      <path clip-path="url(#p6e8cd2e912)" d="M 105.06051 284.4 
L 105.06051 7.2 
" style="fill:none;stroke:#ffffff;stroke-linecap:round;"/>
     </g>
     <g id="text_3">
      <!-- 2020-03-17 -->
      <defs>
       <path d="M 8.203125 72.90625 
L 55.078125 72.90625 
L 55.078125 68.703125 
L 28.609375 0 
L 18.3125 0 
L 43.21875 64.59375 
L 8.203125 64.59375 
z
" id="DejaVuSans-55"/>
      </defs>
      <g style="fill:#262626;" transform="translate(102.772854 357.827187)rotate(-90)scale(0.11 -0.11)">
       <use xlink:href="#DejaVuSans-50"/>
       <use x="63.623047" xlink:href="#DejaVuSans-48"/>
       <use x="127.246094" xlink:href="#DejaVuSans-50"/>
       <use x="190.869141" xlink:href="#DejaVuSans-48"/>
       <use x="254.492188" xlink:href="#DejaVuSans-45"/>
       <use x="290.576172" xlink:href="#DejaVuSans-48"/>
       <use x="354.199219" xlink:href="#DejaVuSans-51"/>
       <use x="417.822266" xlink:href="#DejaVuSans-45"/>
       <use x="453.90625" xlink:href="#DejaVuSans-49"/>
       <use x="517.529297" xlink:href="#DejaVuSans-55"/>
      </g>
     </g>
    </g>
    <g id="xtick_4">
     <g id="line2d_4">
      <path clip-path="url(#p6e8cd2e912)" d="M 119.216958 284.4 
L 119.216958 7.2 
" style="fill:none;stroke:#ffffff;stroke-linecap:round;"/>
     </g>
     <g id="text_4">
      <!-- 2020-03-18 -->
      <defs>
       <path d="M 31.78125 34.625 
Q 24.75 34.625 20.71875 30.859375 
Q 16.703125 27.09375 16.703125 20.515625 
Q 16.703125 13.921875 20.71875 10.15625 
Q 24.75 6.390625 31.78125 6.390625 
Q 38.8125 6.390625 42.859375 10.171875 
Q 46.921875 13.96875 46.921875 20.515625 
Q 46.921875 27.09375 42.890625 30.859375 
Q 38.875 34.625 31.78125 34.625 
z
M 21.921875 38.8125 
Q 15.578125 40.375 12.03125 44.71875 
Q 8.5 49.078125 8.5 55.328125 
Q 8.5 64.0625 14.71875 69.140625 
Q 20.953125 74.21875 31.78125 74.21875 
Q 42.671875 74.21875 48.875 69.140625 
Q 55.078125 64.0625 55.078125 55.328125 
Q 55.078125 49.078125 51.53125 44.71875 
Q 48 40.375 41.703125 38.8125 
Q 48.828125 37.15625 52.796875 32.3125 
Q 56.78125 27.484375 56.78125 20.515625 
Q 56.78125 9.90625 50.3125 4.234375 
Q 43.84375 -1.421875 31.78125 -1.421875 
Q 19.734375 -1.421875 13.25 4.234375 
Q 6.78125 9.90625 6.78125 20.515625 
Q 6.78125 27.484375 10.78125 32.3125 
Q 14.796875 37.15625 21.921875 38.8125 
z
M 18.3125 54.390625 
Q 18.3125 48.734375 21.84375 45.5625 
Q 25.390625 42.390625 31.78125 42.390625 
Q 38.140625 42.390625 41.71875 45.5625 
Q 45.3125 48.734375 45.3125 54.390625 
Q 45.3125 60.0625 41.71875 63.234375 
Q 38.140625 66.40625 31.78125 66.40625 
Q 25.390625 66.40625 21.84375 63.234375 
Q 18.3125 60.0625 18.3125 54.390625 
z
" id="DejaVuSans-56"/>
      </defs>
      <g style="fill:#262626;" transform="translate(116.929302 357.827187)rotate(-90)scale(0.11 -0.11)">
       <use xlink:href="#DejaVuSans-50"/>
       <use x="63.623047" xlink:href="#DejaVuSans-48"/>
       <use x="127.246094" xlink:href="#DejaVuSans-50"/>
       <use x="190.869141" xlink:href="#DejaVuSans-48"/>
       <use x="254.492188" xlink:href="#DejaVuSans-45"/>
       <use x="290.576172" xlink:href="#DejaVuSans-48"/>
       <use x="354.199219" xlink:href="#DejaVuSans-51"/>
       <use x="417.822266" xlink:href="#DejaVuSans-45"/>
       <use x="453.90625" xlink:href="#DejaVuSans-49"/>
       <use x="517.529297" xlink:href="#DejaVuSans-56"/>
      </g>
     </g>
    </g>
    <g id="xtick_5">
     <g id="line2d_5">
      <path clip-path="url(#p6e8cd2e912)" d="M 133.373406 284.4 
L 133.373406 7.2 
" style="fill:none;stroke:#ffffff;stroke-linecap:round;"/>
     </g>
     <g id="text_5">
      <!-- 2020-03-19 -->
      <defs>
       <path d="M 10.984375 1.515625 
L 10.984375 10.5 
Q 14.703125 8.734375 18.5 7.8125 
Q 22.3125 6.890625 25.984375 6.890625 
Q 35.75 6.890625 40.890625 13.453125 
Q 46.046875 20.015625 46.78125 33.40625 
Q 43.953125 29.203125 39.59375 26.953125 
Q 35.25 24.703125 29.984375 24.703125 
Q 19.046875 24.703125 12.671875 31.3125 
Q 6.296875 37.9375 6.296875 49.421875 
Q 6.296875 60.640625 12.9375 67.421875 
Q 19.578125 74.21875 30.609375 74.21875 
Q 43.265625 74.21875 49.921875 64.515625 
Q 56.59375 54.828125 56.59375 36.375 
Q 56.59375 19.140625 48.40625 8.859375 
Q 40.234375 -1.421875 26.421875 -1.421875 
Q 22.703125 -1.421875 18.890625 -0.6875 
Q 15.09375 0.046875 10.984375 1.515625 
z
M 30.609375 32.421875 
Q 37.25 32.421875 41.125 36.953125 
Q 45.015625 41.5 45.015625 49.421875 
Q 45.015625 57.28125 41.125 61.84375 
Q 37.25 66.40625 30.609375 66.40625 
Q 23.96875 66.40625 20.09375 61.84375 
Q 16.21875 57.28125 16.21875 49.421875 
Q 16.21875 41.5 20.09375 36.953125 
Q 23.96875 32.421875 30.609375 32.421875 
z
" id="DejaVuSans-57"/>
      </defs>
      <g style="fill:#262626;" transform="translate(131.08575 357.827187)rotate(-90)scale(0.11 -0.11)">
       <use xlink:href="#DejaVuSans-50"/>
       <use x="63.623047" xlink:href="#DejaVuSans-48"/>
       <use x="127.246094" xlink:href="#DejaVuSans-50"/>
       <use x="190.869141" xlink:href="#DejaVuSans-48"/>
       <use x="254.492188" xlink:href="#DejaVuSans-45"/>
       <use x="290.576172" xlink:href="#DejaVuSans-48"/>
       <use x="354.199219" xlink:href="#DejaVuSans-51"/>
       <use x="417.822266" xlink:href="#DejaVuSans-45"/>
       <use x="453.90625" xlink:href="#DejaVuSans-49"/>
       <use x="517.529297" xlink:href="#DejaVuSans-57"/>
      </g>
     </g>
    </g>
    <g id="xtick_6">
     <g id="line2d_6">
      <path clip-path="url(#p6e8cd2e912)" d="M 147.529855 284.4 
L 147.529855 7.2 
" style="fill:none;stroke:#ffffff;stroke-linecap:round;"/>
     </g>
     <g id="text_6">
      <!-- 2020-03-20 -->
      <g style="fill:#262626;" transform="translate(145.242198 357.827187)rotate(-90)scale(0.11 -0.11)">
       <use xlink:href="#DejaVuSans-50"/>
       <use x="63.623047" xlink:href="#DejaVuSans-48"/>
       <use x="127.246094" xlink:href="#DejaVuSans-50"/>
       <use x="190.869141" xlink:href="#DejaVuSans-48"/>
       <use x="254.492188" xlink:href="#DejaVuSans-45"/>
       <use x="290.576172" xlink:href="#DejaVuSans-48"/>
       <use x="354.199219" xlink:href="#DejaVuSans-51"/>
       <use x="417.822266" xlink:href="#DejaVuSans-45"/>
       <use x="453.90625" xlink:href="#DejaVuSans-50"/>
       <use x="517.529297" xlink:href="#DejaVuSans-48"/>
      </g>
     </g>
    </g>
    <g id="xtick_7">
     <g id="line2d_7">
      <path clip-path="url(#p6e8cd2e912)" d="M 161.686303 284.4 
L 161.686303 7.2 
" style="fill:none;stroke:#ffffff;stroke-linecap:round;"/>
     </g>
     <g id="text_7">
      <!-- 2020-03-21 -->
      <g style="fill:#262626;" transform="translate(159.398647 357.827187)rotate(-90)scale(0.11 -0.11)">
       <use xlink:href="#DejaVuSans-50"/>
       <use x="63.623047" xlink:href="#DejaVuSans-48"/>
       <use x="127.246094" xlink:href="#DejaVuSans-50"/>
       <use x="190.869141" xlink:href="#DejaVuSans-48"/>
       <use x="254.492188" xlink:href="#DejaVuSans-45"/>
       <use x="290.576172" xlink:href="#DejaVuSans-48"/>
       <use x="354.199219" xlink:href="#DejaVuSans-51"/>
       <use x="417.822266" xlink:href="#DejaVuSans-45"/>
       <use x="453.90625" xlink:href="#DejaVuSans-50"/>
       <use x="517.529297" xlink:href="#DejaVuSans-49"/>
      </g>
     </g>
    </g>
    <g id="xtick_8">
     <g id="line2d_8">
      <path clip-path="url(#p6e8cd2e912)" d="M 175.842751 284.4 
L 175.842751 7.2 
" style="fill:none;stroke:#ffffff;stroke-linecap:round;"/>
     </g>
     <g id="text_8">
      <!-- 2020-03-22 -->
      <g style="fill:#262626;" transform="translate(173.555095 357.827187)rotate(-90)scale(0.11 -0.11)">
       <use xlink:href="#DejaVuSans-50"/>
       <use x="63.623047" xlink:href="#DejaVuSans-48"/>
       <use x="127.246094" xlink:href="#DejaVuSans-50"/>
       <use x="190.869141" xlink:href="#DejaVuSans-48"/>
       <use x="254.492188" xlink:href="#DejaVuSans-45"/>
       <use x="290.576172" xlink:href="#DejaVuSans-48"/>
       <use x="354.199219" xlink:href="#DejaVuSans-51"/>
       <use x="417.822266" xlink:href="#DejaVuSans-45"/>
       <use x="453.90625" xlink:href="#DejaVuSans-50"/>
       <use x="517.529297" xlink:href="#DejaVuSans-50"/>
      </g>
     </g>
    </g>
    <g id="xtick_9">
     <g id="line2d_9">
      <path clip-path="url(#p6e8cd2e912)" d="M 189.999199 284.4 
L 189.999199 7.2 
" style="fill:none;stroke:#ffffff;stroke-linecap:round;"/>
     </g>
     <g id="text_9">
      <!-- 2020-03-23 -->
      <g style="fill:#262626;" transform="translate(187.711543 357.827187)rotate(-90)scale(0.11 -0.11)">
       <use xlink:href="#DejaVuSans-50"/>
       <use x="63.623047" xlink:href="#DejaVuSans-48"/>
       <use x="127.246094" xlink:href="#DejaVuSans-50"/>
       <use x="190.869141" xlink:href="#DejaVuSans-48"/>
       <use x="254.492188" xlink:href="#DejaVuSans-45"/>
       <use x="290.576172" xlink:href="#DejaVuSans-48"/>
       <use x="354.199219" xlink:href="#DejaVuSans-51"/>
       <use x="417.822266" xlink:href="#DejaVuSans-45"/>
       <use x="453.90625" xlink:href="#DejaVuSans-50"/>
       <use x="517.529297" xlink:href="#DejaVuSans-51"/>
      </g>
     </g>
    </g>
    <g id="xtick_10">
     <g id="line2d_10">
      <path clip-path="url(#p6e8cd2e912)" d="M 204.155647 284.4 
L 204.155647 7.2 
" style="fill:none;stroke:#ffffff;stroke-linecap:round;"/>
     </g>
     <g id="text_10">
      <!-- 2020-03-24 -->
      <defs>
       <path d="M 37.796875 64.3125 
L 12.890625 25.390625 
L 37.796875 25.390625 
z
M 35.203125 72.90625 
L 47.609375 72.90625 
L 47.609375 25.390625 
L 58.015625 25.390625 
L 58.015625 17.1875 
L 47.609375 17.1875 
L 47.609375 0 
L 37.796875 0 
L 37.796875 17.1875 
L 4.890625 17.1875 
L 4.890625 26.703125 
z
" id="DejaVuSans-52"/>
      </defs>
      <g style="fill:#262626;" transform="translate(201.867991 357.827187)rotate(-90)scale(0.11 -0.11)">
       <use xlink:href="#DejaVuSans-50"/>
       <use x="63.623047" xlink:href="#DejaVuSans-48"/>
       <use x="127.246094" xlink:href="#DejaVuSans-50"/>
       <use x="190.869141" xlink:href="#DejaVuSans-48"/>
       <use x="254.492188" xlink:href="#DejaVuSans-45"/>
       <use x="290.576172" xlink:href="#DejaVuSans-48"/>
       <use x="354.199219" xlink:href="#DejaVuSans-51"/>
       <use x="417.822266" xlink:href="#DejaVuSans-45"/>
       <use x="453.90625" xlink:href="#DejaVuSans-50"/>
       <use x="517.529297" xlink:href="#DejaVuSans-52"/>
      </g>
     </g>
    </g>
    <g id="xtick_11">
     <g id="line2d_11">
      <path clip-path="url(#p6e8cd2e912)" d="M 218.312096 284.4 
L 218.312096 7.2 
" style="fill:none;stroke:#ffffff;stroke-linecap:round;"/>
     </g>
     <g id="text_11">
      <!-- 2020-03-25 -->
      <g style="fill:#262626;" transform="translate(216.024439 357.827187)rotate(-90)scale(0.11 -0.11)">
       <use xlink:href="#DejaVuSans-50"/>
       <use x="63.623047" xlink:href="#DejaVuSans-48"/>
       <use x="127.246094" xlink:href="#DejaVuSans-50"/>
       <use x="190.869141" xlink:href="#DejaVuSans-48"/>
       <use x="254.492188" xlink:href="#DejaVuSans-45"/>
       <use x="290.576172" xlink:href="#DejaVuSans-48"/>
       <use x="354.199219" xlink:href="#DejaVuSans-51"/>
       <use x="417.822266" xlink:href="#DejaVuSans-45"/>
       <use x="453.90625" xlink:href="#DejaVuSans-50"/>
       <use x="517.529297" xlink:href="#DejaVuSans-53"/>
      </g>
     </g>
    </g>
    <g id="xtick_12">
     <g id="line2d_12">
      <path clip-path="url(#p6e8cd2e912)" d="M 232.468544 284.4 
L 232.468544 7.2 
" style="fill:none;stroke:#ffffff;stroke-linecap:round;"/>
     </g>
     <g id="text_12">
      <!-- 2020-03-26 -->
      <g style="fill:#262626;" transform="translate(230.180888 357.827187)rotate(-90)scale(0.11 -0.11)">
       <use xlink:href="#DejaVuSans-50"/>
       <use x="63.623047" xlink:href="#DejaVuSans-48"/>
       <use x="127.246094" xlink:href="#DejaVuSans-50"/>
       <use x="190.869141" xlink:href="#DejaVuSans-48"/>
       <use x="254.492188" xlink:href="#DejaVuSans-45"/>
       <use x="290.576172" xlink:href="#DejaVuSans-48"/>
       <use x="354.199219" xlink:href="#DejaVuSans-51"/>
       <use x="417.822266" xlink:href="#DejaVuSans-45"/>
       <use x="453.90625" xlink:href="#DejaVuSans-50"/>
       <use x="517.529297" xlink:href="#DejaVuSans-54"/>
      </g>
     </g>
    </g>
    <g id="xtick_13">
     <g id="line2d_13">
      <path clip-path="url(#p6e8cd2e912)" d="M 246.624992 284.4 
L 246.624992 7.2 
" style="fill:none;stroke:#ffffff;stroke-linecap:round;"/>
     </g>
     <g id="text_13">
      <!-- 2020-03-27 -->
      <g style="fill:#262626;" transform="translate(244.337336 357.827187)rotate(-90)scale(0.11 -0.11)">
       <use xlink:href="#DejaVuSans-50"/>
       <use x="63.623047" xlink:href="#DejaVuSans-48"/>
       <use x="127.246094" xlink:href="#DejaVuSans-50"/>
       <use x="190.869141" xlink:href="#DejaVuSans-48"/>
       <use x="254.492188" xlink:href="#DejaVuSans-45"/>
       <use x="290.576172" xlink:href="#DejaVuSans-48"/>
       <use x="354.199219" xlink:href="#DejaVuSans-51"/>
       <use x="417.822266" xlink:href="#DejaVuSans-45"/>
       <use x="453.90625" xlink:href="#DejaVuSans-50"/>
       <use x="517.529297" xlink:href="#DejaVuSans-55"/>
      </g>
     </g>
    </g>
    <g id="xtick_14">
     <g id="line2d_14">
      <path clip-path="url(#p6e8cd2e912)" d="M 260.78144 284.4 
L 260.78144 7.2 
" style="fill:none;stroke:#ffffff;stroke-linecap:round;"/>
     </g>
     <g id="text_14">
      <!-- 2020-03-28 -->
      <g style="fill:#262626;" transform="translate(258.493784 357.827187)rotate(-90)scale(0.11 -0.11)">
       <use xlink:href="#DejaVuSans-50"/>
       <use x="63.623047" xlink:href="#DejaVuSans-48"/>
       <use x="127.246094" xlink:href="#DejaVuSans-50"/>
       <use x="190.869141" xlink:href="#DejaVuSans-48"/>
       <use x="254.492188" xlink:href="#DejaVuSans-45"/>
       <use x="290.576172" xlink:href="#DejaVuSans-48"/>
       <use x="354.199219" xlink:href="#DejaVuSans-51"/>
       <use x="417.822266" xlink:href="#DejaVuSans-45"/>
       <use x="453.90625" xlink:href="#DejaVuSans-50"/>
       <use x="517.529297" xlink:href="#DejaVuSans-56"/>
      </g>
     </g>
    </g>
    <g id="xtick_15">
     <g id="line2d_15">
      <path clip-path="url(#p6e8cd2e912)" d="M 274.937888 284.4 
L 274.937888 7.2 
" style="fill:none;stroke:#ffffff;stroke-linecap:round;"/>
     </g>
     <g id="text_15">
      <!-- 2020-03-29 -->
      <g style="fill:#262626;" transform="translate(272.650232 357.827187)rotate(-90)scale(0.11 -0.11)">
       <use xlink:href="#DejaVuSans-50"/>
       <use x="63.623047" xlink:href="#DejaVuSans-48"/>
       <use x="127.246094" xlink:href="#DejaVuSans-50"/>
       <use x="190.869141" xlink:href="#DejaVuSans-48"/>
       <use x="254.492188" xlink:href="#DejaVuSans-45"/>
       <use x="290.576172" xlink:href="#DejaVuSans-48"/>
       <use x="354.199219" xlink:href="#DejaVuSans-51"/>
       <use x="417.822266" xlink:href="#DejaVuSans-45"/>
       <use x="453.90625" xlink:href="#DejaVuSans-50"/>
       <use x="517.529297" xlink:href="#DejaVuSans-57"/>
      </g>
     </g>
    </g>
    <g id="xtick_16">
     <g id="line2d_16">
      <path clip-path="url(#p6e8cd2e912)" d="M 289.094337 284.4 
L 289.094337 7.2 
" style="fill:none;stroke:#ffffff;stroke-linecap:round;"/>
     </g>
     <g id="text_16">
      <!-- 2020-03-30 -->
      <g style="fill:#262626;" transform="translate(286.80668 357.827187)rotate(-90)scale(0.11 -0.11)">
       <use xlink:href="#DejaVuSans-50"/>
       <use x="63.623047" xlink:href="#DejaVuSans-48"/>
       <use x="127.246094" xlink:href="#DejaVuSans-50"/>
       <use x="190.869141" xlink:href="#DejaVuSans-48"/>
       <use x="254.492188" xlink:href="#DejaVuSans-45"/>
       <use x="290.576172" xlink:href="#DejaVuSans-48"/>
       <use x="354.199219" xlink:href="#DejaVuSans-51"/>
       <use x="417.822266" xlink:href="#DejaVuSans-45"/>
       <use x="453.90625" xlink:href="#DejaVuSans-51"/>
       <use x="517.529297" xlink:href="#DejaVuSans-48"/>
      </g>
     </g>
    </g>
    <g id="xtick_17">
     <g id="line2d_17">
      <path clip-path="url(#p6e8cd2e912)" d="M 303.250785 284.4 
L 303.250785 7.2 
" style="fill:none;stroke:#ffffff;stroke-linecap:round;"/>
     </g>
     <g id="text_17">
      <!-- 2020-03-31 -->
      <g style="fill:#262626;" transform="translate(300.963129 357.827187)rotate(-90)scale(0.11 -0.11)">
       <use xlink:href="#DejaVuSans-50"/>
       <use x="63.623047" xlink:href="#DejaVuSans-48"/>
       <use x="127.246094" xlink:href="#DejaVuSans-50"/>
       <use x="190.869141" xlink:href="#DejaVuSans-48"/>
       <use x="254.492188" xlink:href="#DejaVuSans-45"/>
       <use x="290.576172" xlink:href="#DejaVuSans-48"/>
       <use x="354.199219" xlink:href="#DejaVuSans-51"/>
       <use x="417.822266" xlink:href="#DejaVuSans-45"/>
       <use x="453.90625" xlink:href="#DejaVuSans-51"/>
       <use x="517.529297" xlink:href="#DejaVuSans-49"/>
      </g>
     </g>
    </g>
    <g id="xtick_18">
     <g id="line2d_18">
      <path clip-path="url(#p6e8cd2e912)" d="M 317.407233 284.4 
L 317.407233 7.2 
" style="fill:none;stroke:#ffffff;stroke-linecap:round;"/>
     </g>
     <g id="text_18">
      <!-- 2020-04-01 -->
      <g style="fill:#262626;" transform="translate(315.119577 357.827187)rotate(-90)scale(0.11 -0.11)">
       <use xlink:href="#DejaVuSans-50"/>
       <use x="63.623047" xlink:href="#DejaVuSans-48"/>
       <use x="127.246094" xlink:href="#DejaVuSans-50"/>
       <use x="190.869141" xlink:href="#DejaVuSans-48"/>
       <use x="254.492188" xlink:href="#DejaVuSans-45"/>
       <use x="290.576172" xlink:href="#DejaVuSans-48"/>
       <use x="354.199219" xlink:href="#DejaVuSans-52"/>
       <use x="417.822266" xlink:href="#DejaVuSans-45"/>
       <use x="453.90625" xlink:href="#DejaVuSans-48"/>
       <use x="517.529297" xlink:href="#DejaVuSans-49"/>
      </g>
     </g>
    </g>
    <g id="xtick_19">
     <g id="line2d_19">
      <path clip-path="url(#p6e8cd2e912)" d="M 331.563681 284.4 
L 331.563681 7.2 
" style="fill:none;stroke:#ffffff;stroke-linecap:round;"/>
     </g>
     <g id="text_19">
      <!-- 2020-04-02 -->
      <g style="fill:#262626;" transform="translate(329.276025 357.827187)rotate(-90)scale(0.11 -0.11)">
       <use xlink:href="#DejaVuSans-50"/>
       <use x="63.623047" xlink:href="#DejaVuSans-48"/>
       <use x="127.246094" xlink:href="#DejaVuSans-50"/>
       <use x="190.869141" xlink:href="#DejaVuSans-48"/>
       <use x="254.492188" xlink:href="#DejaVuSans-45"/>
       <use x="290.576172" xlink:href="#DejaVuSans-48"/>
       <use x="354.199219" xlink:href="#DejaVuSans-52"/>
       <use x="417.822266" xlink:href="#DejaVuSans-45"/>
       <use x="453.90625" xlink:href="#DejaVuSans-48"/>
       <use x="517.529297" xlink:href="#DejaVuSans-50"/>
      </g>
     </g>
    </g>
    <g id="xtick_20">
     <g id="line2d_20">
      <path clip-path="url(#p6e8cd2e912)" d="M 345.720129 284.4 
L 345.720129 7.2 
" style="fill:none;stroke:#ffffff;stroke-linecap:round;"/>
     </g>
     <g id="text_20">
      <!-- 2020-04-03 -->
      <g style="fill:#262626;" transform="translate(343.432473 357.827187)rotate(-90)scale(0.11 -0.11)">
       <use xlink:href="#DejaVuSans-50"/>
       <use x="63.623047" xlink:href="#DejaVuSans-48"/>
       <use x="127.246094" xlink:href="#DejaVuSans-50"/>
       <use x="190.869141" xlink:href="#DejaVuSans-48"/>
       <use x="254.492188" xlink:href="#DejaVuSans-45"/>
       <use x="290.576172" xlink:href="#DejaVuSans-48"/>
       <use x="354.199219" xlink:href="#DejaVuSans-52"/>
       <use x="417.822266" xlink:href="#DejaVuSans-45"/>
       <use x="453.90625" xlink:href="#DejaVuSans-48"/>
       <use x="517.529297" xlink:href="#DejaVuSans-51"/>
      </g>
     </g>
    </g>
    <g id="xtick_21">
     <g id="line2d_21">
      <path clip-path="url(#p6e8cd2e912)" d="M 359.876578 284.4 
L 359.876578 7.2 
" style="fill:none;stroke:#ffffff;stroke-linecap:round;"/>
     </g>
     <g id="text_21">
      <!-- 2020-04-04 -->
      <g style="fill:#262626;" transform="translate(357.588921 357.827187)rotate(-90)scale(0.11 -0.11)">
       <use xlink:href="#DejaVuSans-50"/>
       <use x="63.623047" xlink:href="#DejaVuSans-48"/>
       <use x="127.246094" xlink:href="#DejaVuSans-50"/>
       <use x="190.869141" xlink:href="#DejaVuSans-48"/>
       <use x="254.492188" xlink:href="#DejaVuSans-45"/>
       <use x="290.576172" xlink:href="#DejaVuSans-48"/>
       <use x="354.199219" xlink:href="#DejaVuSans-52"/>
       <use x="417.822266" xlink:href="#DejaVuSans-45"/>
       <use x="453.90625" xlink:href="#DejaVuSans-48"/>
       <use x="517.529297" xlink:href="#DejaVuSans-52"/>
      </g>
     </g>
    </g>
    <g id="xtick_22">
     <g id="line2d_22">
      <path clip-path="url(#p6e8cd2e912)" d="M 374.033026 284.4 
L 374.033026 7.2 
" style="fill:none;stroke:#ffffff;stroke-linecap:round;"/>
     </g>
     <g id="text_22">
      <!-- 2020-04-05 -->
      <g style="fill:#262626;" transform="translate(371.74537 357.827187)rotate(-90)scale(0.11 -0.11)">
       <use xlink:href="#DejaVuSans-50"/>
       <use x="63.623047" xlink:href="#DejaVuSans-48"/>
       <use x="127.246094" xlink:href="#DejaVuSans-50"/>
       <use x="190.869141" xlink:href="#DejaVuSans-48"/>
       <use x="254.492188" xlink:href="#DejaVuSans-45"/>
       <use x="290.576172" xlink:href="#DejaVuSans-48"/>
       <use x="354.199219" xlink:href="#DejaVuSans-52"/>
       <use x="417.822266" xlink:href="#DejaVuSans-45"/>
       <use x="453.90625" xlink:href="#DejaVuSans-48"/>
       <use x="517.529297" xlink:href="#DejaVuSans-53"/>
      </g>
     </g>
    </g>
    <g id="xtick_23">
     <g id="line2d_23">
      <path clip-path="url(#p6e8cd2e912)" d="M 388.189474 284.4 
L 388.189474 7.2 
" style="fill:none;stroke:#ffffff;stroke-linecap:round;"/>
     </g>
     <g id="text_23">
      <!-- 2020-04-06 -->
      <g style="fill:#262626;" transform="translate(385.901818 357.827187)rotate(-90)scale(0.11 -0.11)">
       <use xlink:href="#DejaVuSans-50"/>
       <use x="63.623047" xlink:href="#DejaVuSans-48"/>
       <use x="127.246094" xlink:href="#DejaVuSans-50"/>
       <use x="190.869141" xlink:href="#DejaVuSans-48"/>
       <use x="254.492188" xlink:href="#DejaVuSans-45"/>
       <use x="290.576172" xlink:href="#DejaVuSans-48"/>
       <use x="354.199219" xlink:href="#DejaVuSans-52"/>
       <use x="417.822266" xlink:href="#DejaVuSans-45"/>
       <use x="453.90625" xlink:href="#DejaVuSans-48"/>
       <use x="517.529297" xlink:href="#DejaVuSans-54"/>
      </g>
     </g>
    </g>
    <g id="xtick_24">
     <g id="line2d_24">
      <path clip-path="url(#p6e8cd2e912)" d="M 402.345922 284.4 
L 402.345922 7.2 
" style="fill:none;stroke:#ffffff;stroke-linecap:round;"/>
     </g>
     <g id="text_24">
      <!-- 2020-04-07 -->
      <g style="fill:#262626;" transform="translate(400.058266 357.827187)rotate(-90)scale(0.11 -0.11)">
       <use xlink:href="#DejaVuSans-50"/>
       <use x="63.623047" xlink:href="#DejaVuSans-48"/>
       <use x="127.246094" xlink:href="#DejaVuSans-50"/>
       <use x="190.869141" xlink:href="#DejaVuSans-48"/>
       <use x="254.492188" xlink:href="#DejaVuSans-45"/>
       <use x="290.576172" xlink:href="#DejaVuSans-48"/>
       <use x="354.199219" xlink:href="#DejaVuSans-52"/>
       <use x="417.822266" xlink:href="#DejaVuSans-45"/>
       <use x="453.90625" xlink:href="#DejaVuSans-48"/>
       <use x="517.529297" xlink:href="#DejaVuSans-55"/>
      </g>
     </g>
    </g>
    <g id="xtick_25">
     <g id="line2d_25">
      <path clip-path="url(#p6e8cd2e912)" d="M 416.502371 284.4 
L 416.502371 7.2 
" style="fill:none;stroke:#ffffff;stroke-linecap:round;"/>
     </g>
     <g id="text_25">
      <!-- 2020-04-08 -->
      <g style="fill:#262626;" transform="translate(414.214714 357.827187)rotate(-90)scale(0.11 -0.11)">
       <use xlink:href="#DejaVuSans-50"/>
       <use x="63.623047" xlink:href="#DejaVuSans-48"/>
       <use x="127.246094" xlink:href="#DejaVuSans-50"/>
       <use x="190.869141" xlink:href="#DejaVuSans-48"/>
       <use x="254.492188" xlink:href="#DejaVuSans-45"/>
       <use x="290.576172" xlink:href="#DejaVuSans-48"/>
       <use x="354.199219" xlink:href="#DejaVuSans-52"/>
       <use x="417.822266" xlink:href="#DejaVuSans-45"/>
       <use x="453.90625" xlink:href="#DejaVuSans-48"/>
       <use x="517.529297" xlink:href="#DejaVuSans-56"/>
      </g>
     </g>
    </g>
    <g id="xtick_26">
     <g id="line2d_26">
      <path clip-path="url(#p6e8cd2e912)" d="M 430.658819 284.4 
L 430.658819 7.2 
" style="fill:none;stroke:#ffffff;stroke-linecap:round;"/>
     </g>
     <g id="text_26">
      <!-- 2020-04-09 -->
      <g style="fill:#262626;" transform="translate(428.371162 357.827187)rotate(-90)scale(0.11 -0.11)">
       <use xlink:href="#DejaVuSans-50"/>
       <use x="63.623047" xlink:href="#DejaVuSans-48"/>
       <use x="127.246094" xlink:href="#DejaVuSans-50"/>
       <use x="190.869141" xlink:href="#DejaVuSans-48"/>
       <use x="254.492188" xlink:href="#DejaVuSans-45"/>
       <use x="290.576172" xlink:href="#DejaVuSans-48"/>
       <use x="354.199219" xlink:href="#DejaVuSans-52"/>
       <use x="417.822266" xlink:href="#DejaVuSans-45"/>
       <use x="453.90625" xlink:href="#DejaVuSans-48"/>
       <use x="517.529297" xlink:href="#DejaVuSans-57"/>
      </g>
     </g>
    </g>
    <g id="xtick_27">
     <g id="line2d_27">
      <path clip-path="url(#p6e8cd2e912)" d="M 444.815267 284.4 
L 444.815267 7.2 
" style="fill:none;stroke:#ffffff;stroke-linecap:round;"/>
     </g>
     <g id="text_27">
      <!-- 2020-04-10 -->
      <g style="fill:#262626;" transform="translate(442.527611 357.827187)rotate(-90)scale(0.11 -0.11)">
       <use xlink:href="#DejaVuSans-50"/>
       <use x="63.623047" xlink:href="#DejaVuSans-48"/>
       <use x="127.246094" xlink:href="#DejaVuSans-50"/>
       <use x="190.869141" xlink:href="#DejaVuSans-48"/>
       <use x="254.492188" xlink:href="#DejaVuSans-45"/>
       <use x="290.576172" xlink:href="#DejaVuSans-48"/>
       <use x="354.199219" xlink:href="#DejaVuSans-52"/>
       <use x="417.822266" xlink:href="#DejaVuSans-45"/>
       <use x="453.90625" xlink:href="#DejaVuSans-49"/>
       <use x="517.529297" xlink:href="#DejaVuSans-48"/>
      </g>
     </g>
    </g>
    <g id="xtick_28">
     <g id="line2d_28">
      <path clip-path="url(#p6e8cd2e912)" d="M 458.971715 284.4 
L 458.971715 7.2 
" style="fill:none;stroke:#ffffff;stroke-linecap:round;"/>
     </g>
     <g id="text_28">
      <!-- 2020-04-11 -->
      <g style="fill:#262626;" transform="translate(456.684059 357.827187)rotate(-90)scale(0.11 -0.11)">
       <use xlink:href="#DejaVuSans-50"/>
       <use x="63.623047" xlink:href="#DejaVuSans-48"/>
       <use x="127.246094" xlink:href="#DejaVuSans-50"/>
       <use x="190.869141" xlink:href="#DejaVuSans-48"/>
       <use x="254.492188" xlink:href="#DejaVuSans-45"/>
       <use x="290.576172" xlink:href="#DejaVuSans-48"/>
       <use x="354.199219" xlink:href="#DejaVuSans-52"/>
       <use x="417.822266" xlink:href="#DejaVuSans-45"/>
       <use x="453.90625" xlink:href="#DejaVuSans-49"/>
       <use x="517.529297" xlink:href="#DejaVuSans-49"/>
      </g>
     </g>
    </g>
    <g id="xtick_29">
     <g id="line2d_29">
      <path clip-path="url(#p6e8cd2e912)" d="M 473.128163 284.4 
L 473.128163 7.2 
" style="fill:none;stroke:#ffffff;stroke-linecap:round;"/>
     </g>
     <g id="text_29">
      <!-- 2020-04-12 -->
      <g style="fill:#262626;" transform="translate(470.840507 357.827187)rotate(-90)scale(0.11 -0.11)">
       <use xlink:href="#DejaVuSans-50"/>
       <use x="63.623047" xlink:href="#DejaVuSans-48"/>
       <use x="127.246094" xlink:href="#DejaVuSans-50"/>
       <use x="190.869141" xlink:href="#DejaVuSans-48"/>
       <use x="254.492188" xlink:href="#DejaVuSans-45"/>
       <use x="290.576172" xlink:href="#DejaVuSans-48"/>
       <use x="354.199219" xlink:href="#DejaVuSans-52"/>
       <use x="417.822266" xlink:href="#DejaVuSans-45"/>
       <use x="453.90625" xlink:href="#DejaVuSans-49"/>
       <use x="517.529297" xlink:href="#DejaVuSans-50"/>
      </g>
     </g>
    </g>
    <g id="xtick_30">
     <g id="line2d_30">
      <path clip-path="url(#p6e8cd2e912)" d="M 487.284612 284.4 
L 487.284612 7.2 
" style="fill:none;stroke:#ffffff;stroke-linecap:round;"/>
     </g>
     <g id="text_30">
      <!-- 2020-04-13 -->
      <g style="fill:#262626;" transform="translate(484.996955 357.827187)rotate(-90)scale(0.11 -0.11)">
       <use xlink:href="#DejaVuSans-50"/>
       <use x="63.623047" xlink:href="#DejaVuSans-48"/>
       <use x="127.246094" xlink:href="#DejaVuSans-50"/>
       <use x="190.869141" xlink:href="#DejaVuSans-48"/>
       <use x="254.492188" xlink:href="#DejaVuSans-45"/>
       <use x="290.576172" xlink:href="#DejaVuSans-48"/>
       <use x="354.199219" xlink:href="#DejaVuSans-52"/>
       <use x="417.822266" xlink:href="#DejaVuSans-45"/>
       <use x="453.90625" xlink:href="#DejaVuSans-49"/>
       <use x="517.529297" xlink:href="#DejaVuSans-51"/>
      </g>
     </g>
    </g>
    <g id="xtick_31">
     <g id="line2d_31">
      <path clip-path="url(#p6e8cd2e912)" d="M 501.44106 284.4 
L 501.44106 7.2 
" style="fill:none;stroke:#ffffff;stroke-linecap:round;"/>
     </g>
     <g id="text_31">
      <!-- 2020-04-14 -->
      <g style="fill:#262626;" transform="translate(499.153403 357.827187)rotate(-90)scale(0.11 -0.11)">
       <use xlink:href="#DejaVuSans-50"/>
       <use x="63.623047" xlink:href="#DejaVuSans-48"/>
       <use x="127.246094" xlink:href="#DejaVuSans-50"/>
       <use x="190.869141" xlink:href="#DejaVuSans-48"/>
       <use x="254.492188" xlink:href="#DejaVuSans-45"/>
       <use x="290.576172" xlink:href="#DejaVuSans-48"/>
       <use x="354.199219" xlink:href="#DejaVuSans-52"/>
       <use x="417.822266" xlink:href="#DejaVuSans-45"/>
       <use x="453.90625" xlink:href="#DejaVuSans-49"/>
       <use x="517.529297" xlink:href="#DejaVuSans-52"/>
      </g>
     </g>
    </g>
    <g id="xtick_32">
     <g id="line2d_32">
      <path clip-path="url(#p6e8cd2e912)" d="M 515.597508 284.4 
L 515.597508 7.2 
" style="fill:none;stroke:#ffffff;stroke-linecap:round;"/>
     </g>
     <g id="text_32">
      <!-- 2020-04-15 -->
      <g style="fill:#262626;" transform="translate(513.309852 357.827187)rotate(-90)scale(0.11 -0.11)">
       <use xlink:href="#DejaVuSans-50"/>
       <use x="63.623047" xlink:href="#DejaVuSans-48"/>
       <use x="127.246094" xlink:href="#DejaVuSans-50"/>
       <use x="190.869141" xlink:href="#DejaVuSans-48"/>
       <use x="254.492188" xlink:href="#DejaVuSans-45"/>
       <use x="290.576172" xlink:href="#DejaVuSans-48"/>
       <use x="354.199219" xlink:href="#DejaVuSans-52"/>
       <use x="417.822266" xlink:href="#DejaVuSans-45"/>
       <use x="453.90625" xlink:href="#DejaVuSans-49"/>
       <use x="517.529297" xlink:href="#DejaVuSans-53"/>
      </g>
     </g>
    </g>
    <g id="xtick_33">
     <g id="line2d_33">
      <path clip-path="url(#p6e8cd2e912)" d="M 529.753956 284.4 
L 529.753956 7.2 
" style="fill:none;stroke:#ffffff;stroke-linecap:round;"/>
     </g>
     <g id="text_33">
      <!-- 2020-04-16 -->
      <g style="fill:#262626;" transform="translate(527.4663 357.827187)rotate(-90)scale(0.11 -0.11)">
       <use xlink:href="#DejaVuSans-50"/>
       <use x="63.623047" xlink:href="#DejaVuSans-48"/>
       <use x="127.246094" xlink:href="#DejaVuSans-50"/>
       <use x="190.869141" xlink:href="#DejaVuSans-48"/>
       <use x="254.492188" xlink:href="#DejaVuSans-45"/>
       <use x="290.576172" xlink:href="#DejaVuSans-48"/>
       <use x="354.199219" xlink:href="#DejaVuSans-52"/>
       <use x="417.822266" xlink:href="#DejaVuSans-45"/>
       <use x="453.90625" xlink:href="#DejaVuSans-49"/>
       <use x="517.529297" xlink:href="#DejaVuSans-54"/>
      </g>
     </g>
    </g>
    <g id="xtick_34">
     <g id="line2d_34">
      <path clip-path="url(#p6e8cd2e912)" d="M 543.910404 284.4 
L 543.910404 7.2 
" style="fill:none;stroke:#ffffff;stroke-linecap:round;"/>
     </g>
     <g id="text_34">
      <!-- 2020-04-17 -->
      <g style="fill:#262626;" transform="translate(541.622748 357.827187)rotate(-90)scale(0.11 -0.11)">
       <use xlink:href="#DejaVuSans-50"/>
       <use x="63.623047" xlink:href="#DejaVuSans-48"/>
       <use x="127.246094" xlink:href="#DejaVuSans-50"/>
       <use x="190.869141" xlink:href="#DejaVuSans-48"/>
       <use x="254.492188" xlink:href="#DejaVuSans-45"/>
       <use x="290.576172" xlink:href="#DejaVuSans-48"/>
       <use x="354.199219" xlink:href="#DejaVuSans-52"/>
       <use x="417.822266" xlink:href="#DejaVuSans-45"/>
       <use x="453.90625" xlink:href="#DejaVuSans-49"/>
       <use x="517.529297" xlink:href="#DejaVuSans-55"/>
      </g>
     </g>
    </g>
    <g id="xtick_35">
     <g id="line2d_35">
      <path clip-path="url(#p6e8cd2e912)" d="M 558.066853 284.4 
L 558.066853 7.2 
" style="fill:none;stroke:#ffffff;stroke-linecap:round;"/>
     </g>
     <g id="text_35">
      <!-- 2020-04-18 -->
      <g style="fill:#262626;" transform="translate(555.779196 357.827187)rotate(-90)scale(0.11 -0.11)">
       <use xlink:href="#DejaVuSans-50"/>
       <use x="63.623047" xlink:href="#DejaVuSans-48"/>
       <use x="127.246094" xlink:href="#DejaVuSans-50"/>
       <use x="190.869141" xlink:href="#DejaVuSans-48"/>
       <use x="254.492188" xlink:href="#DejaVuSans-45"/>
       <use x="290.576172" xlink:href="#DejaVuSans-48"/>
       <use x="354.199219" xlink:href="#DejaVuSans-52"/>
       <use x="417.822266" xlink:href="#DejaVuSans-45"/>
       <use x="453.90625" xlink:href="#DejaVuSans-49"/>
       <use x="517.529297" xlink:href="#DejaVuSans-56"/>
      </g>
     </g>
    </g>
    <g id="xtick_36">
     <g id="line2d_36">
      <path clip-path="url(#p6e8cd2e912)" d="M 572.223301 284.4 
L 572.223301 7.2 
" style="fill:none;stroke:#ffffff;stroke-linecap:round;"/>
     </g>
     <g id="text_36">
      <!-- 2020-04-19 -->
      <g style="fill:#262626;" transform="translate(569.935644 357.827187)rotate(-90)scale(0.11 -0.11)">
       <use xlink:href="#DejaVuSans-50"/>
       <use x="63.623047" xlink:href="#DejaVuSans-48"/>
       <use x="127.246094" xlink:href="#DejaVuSans-50"/>
       <use x="190.869141" xlink:href="#DejaVuSans-48"/>
       <use x="254.492188" xlink:href="#DejaVuSans-45"/>
       <use x="290.576172" xlink:href="#DejaVuSans-48"/>
       <use x="354.199219" xlink:href="#DejaVuSans-52"/>
       <use x="417.822266" xlink:href="#DejaVuSans-45"/>
       <use x="453.90625" xlink:href="#DejaVuSans-49"/>
       <use x="517.529297" xlink:href="#DejaVuSans-57"/>
      </g>
     </g>
    </g>
    <g id="xtick_37">
     <g id="line2d_37">
      <path clip-path="url(#p6e8cd2e912)" d="M 586.379749 284.4 
L 586.379749 7.2 
" style="fill:none;stroke:#ffffff;stroke-linecap:round;"/>
     </g>
     <g id="text_37">
      <!-- 2020-04-20 -->
      <g style="fill:#262626;" transform="translate(584.092093 357.827187)rotate(-90)scale(0.11 -0.11)">
       <use xlink:href="#DejaVuSans-50"/>
       <use x="63.623047" xlink:href="#DejaVuSans-48"/>
       <use x="127.246094" xlink:href="#DejaVuSans-50"/>
       <use x="190.869141" xlink:href="#DejaVuSans-48"/>
       <use x="254.492188" xlink:href="#DejaVuSans-45"/>
       <use x="290.576172" xlink:href="#DejaVuSans-48"/>
       <use x="354.199219" xlink:href="#DejaVuSans-52"/>
       <use x="417.822266" xlink:href="#DejaVuSans-45"/>
       <use x="453.90625" xlink:href="#DejaVuSans-50"/>
       <use x="517.529297" xlink:href="#DejaVuSans-48"/>
      </g>
     </g>
    </g>
    <g id="xtick_38">
     <g id="line2d_38">
      <path clip-path="url(#p6e8cd2e912)" d="M 600.536197 284.4 
L 600.536197 7.2 
" style="fill:none;stroke:#ffffff;stroke-linecap:round;"/>
     </g>
     <g id="text_38">
      <!-- 2020-04-21 -->
      <g style="fill:#262626;" transform="translate(598.248541 357.827187)rotate(-90)scale(0.11 -0.11)">
       <use xlink:href="#DejaVuSans-50"/>
       <use x="63.623047" xlink:href="#DejaVuSans-48"/>
       <use x="127.246094" xlink:href="#DejaVuSans-50"/>
       <use x="190.869141" xlink:href="#DejaVuSans-48"/>
       <use x="254.492188" xlink:href="#DejaVuSans-45"/>
       <use x="290.576172" xlink:href="#DejaVuSans-48"/>
       <use x="354.199219" xlink:href="#DejaVuSans-52"/>
       <use x="417.822266" xlink:href="#DejaVuSans-45"/>
       <use x="453.90625" xlink:href="#DejaVuSans-50"/>
       <use x="517.529297" xlink:href="#DejaVuSans-49"/>
      </g>
     </g>
    </g>
    <g id="xtick_39">
     <g id="line2d_39">
      <path clip-path="url(#p6e8cd2e912)" d="M 614.692645 284.4 
L 614.692645 7.2 
" style="fill:none;stroke:#ffffff;stroke-linecap:round;"/>
     </g>
     <g id="text_39">
      <!-- 2020-04-22 -->
      <g style="fill:#262626;" transform="translate(612.404989 357.827187)rotate(-90)scale(0.11 -0.11)">
       <use xlink:href="#DejaVuSans-50"/>
       <use x="63.623047" xlink:href="#DejaVuSans-48"/>
       <use x="127.246094" xlink:href="#DejaVuSans-50"/>
       <use x="190.869141" xlink:href="#DejaVuSans-48"/>
       <use x="254.492188" xlink:href="#DejaVuSans-45"/>
       <use x="290.576172" xlink:href="#DejaVuSans-48"/>
       <use x="354.199219" xlink:href="#DejaVuSans-52"/>
       <use x="417.822266" xlink:href="#DejaVuSans-45"/>
       <use x="453.90625" xlink:href="#DejaVuSans-50"/>
       <use x="517.529297" xlink:href="#DejaVuSans-50"/>
      </g>
     </g>
    </g>
    <g id="xtick_40">
     <g id="line2d_40">
      <path clip-path="url(#p6e8cd2e912)" d="M 628.849094 284.4 
L 628.849094 7.2 
" style="fill:none;stroke:#ffffff;stroke-linecap:round;"/>
     </g>
     <g id="text_40">
      <!-- 2020-04-23 -->
      <g style="fill:#262626;" transform="translate(626.561437 357.827187)rotate(-90)scale(0.11 -0.11)">
       <use xlink:href="#DejaVuSans-50"/>
       <use x="63.623047" xlink:href="#DejaVuSans-48"/>
       <use x="127.246094" xlink:href="#DejaVuSans-50"/>
       <use x="190.869141" xlink:href="#DejaVuSans-48"/>
       <use x="254.492188" xlink:href="#DejaVuSans-45"/>
       <use x="290.576172" xlink:href="#DejaVuSans-48"/>
       <use x="354.199219" xlink:href="#DejaVuSans-52"/>
       <use x="417.822266" xlink:href="#DejaVuSans-45"/>
       <use x="453.90625" xlink:href="#DejaVuSans-50"/>
       <use x="517.529297" xlink:href="#DejaVuSans-51"/>
      </g>
     </g>
    </g>
    <g id="xtick_41">
     <g id="line2d_41">
      <path clip-path="url(#p6e8cd2e912)" d="M 643.005542 284.4 
L 643.005542 7.2 
" style="fill:none;stroke:#ffffff;stroke-linecap:round;"/>
     </g>
     <g id="text_41">
      <!-- 2020-04-24 -->
      <g style="fill:#262626;" transform="translate(640.717886 357.827187)rotate(-90)scale(0.11 -0.11)">
       <use xlink:href="#DejaVuSans-50"/>
       <use x="63.623047" xlink:href="#DejaVuSans-48"/>
       <use x="127.246094" xlink:href="#DejaVuSans-50"/>
       <use x="190.869141" xlink:href="#DejaVuSans-48"/>
       <use x="254.492188" xlink:href="#DejaVuSans-45"/>
       <use x="290.576172" xlink:href="#DejaVuSans-48"/>
       <use x="354.199219" xlink:href="#DejaVuSans-52"/>
       <use x="417.822266" xlink:href="#DejaVuSans-45"/>
       <use x="453.90625" xlink:href="#DejaVuSans-50"/>
       <use x="517.529297" xlink:href="#DejaVuSans-52"/>
      </g>
     </g>
    </g>
    <g id="xtick_42">
     <g id="line2d_42">
      <path clip-path="url(#p6e8cd2e912)" d="M 657.16199 284.4 
L 657.16199 7.2 
" style="fill:none;stroke:#ffffff;stroke-linecap:round;"/>
     </g>
     <g id="text_42">
      <!-- 2020-04-25 -->
      <g style="fill:#262626;" transform="translate(654.874334 357.827187)rotate(-90)scale(0.11 -0.11)">
       <use xlink:href="#DejaVuSans-50"/>
       <use x="63.623047" xlink:href="#DejaVuSans-48"/>
       <use x="127.246094" xlink:href="#DejaVuSans-50"/>
       <use x="190.869141" xlink:href="#DejaVuSans-48"/>
       <use x="254.492188" xlink:href="#DejaVuSans-45"/>
       <use x="290.576172" xlink:href="#DejaVuSans-48"/>
       <use x="354.199219" xlink:href="#DejaVuSans-52"/>
       <use x="417.822266" xlink:href="#DejaVuSans-45"/>
       <use x="453.90625" xlink:href="#DejaVuSans-50"/>
       <use x="517.529297" xlink:href="#DejaVuSans-53"/>
      </g>
     </g>
    </g>
    <g id="xtick_43">
     <g id="line2d_43">
      <path clip-path="url(#p6e8cd2e912)" d="M 671.318438 284.4 
L 671.318438 7.2 
" style="fill:none;stroke:#ffffff;stroke-linecap:round;"/>
     </g>
     <g id="text_43">
      <!-- 2020-04-26 -->
      <g style="fill:#262626;" transform="translate(669.030782 357.827187)rotate(-90)scale(0.11 -0.11)">
       <use xlink:href="#DejaVuSans-50"/>
       <use x="63.623047" xlink:href="#DejaVuSans-48"/>
       <use x="127.246094" xlink:href="#DejaVuSans-50"/>
       <use x="190.869141" xlink:href="#DejaVuSans-48"/>
       <use x="254.492188" xlink:href="#DejaVuSans-45"/>
       <use x="290.576172" xlink:href="#DejaVuSans-48"/>
       <use x="354.199219" xlink:href="#DejaVuSans-52"/>
       <use x="417.822266" xlink:href="#DejaVuSans-45"/>
       <use x="453.90625" xlink:href="#DejaVuSans-50"/>
       <use x="517.529297" xlink:href="#DejaVuSans-54"/>
      </g>
     </g>
    </g>
    <g id="xtick_44">
     <g id="line2d_44">
      <path clip-path="url(#p6e8cd2e912)" d="M 685.474886 284.4 
L 685.474886 7.2 
" style="fill:none;stroke:#ffffff;stroke-linecap:round;"/>
     </g>
     <g id="text_44">
      <!-- 2020-04-27 -->
      <g style="fill:#262626;" transform="translate(683.18723 357.827187)rotate(-90)scale(0.11 -0.11)">
       <use xlink:href="#DejaVuSans-50"/>
       <use x="63.623047" xlink:href="#DejaVuSans-48"/>
       <use x="127.246094" xlink:href="#DejaVuSans-50"/>
       <use x="190.869141" xlink:href="#DejaVuSans-48"/>
       <use x="254.492188" xlink:href="#DejaVuSans-45"/>
       <use x="290.576172" xlink:href="#DejaVuSans-48"/>
       <use x="354.199219" xlink:href="#DejaVuSans-52"/>
       <use x="417.822266" xlink:href="#DejaVuSans-45"/>
       <use x="453.90625" xlink:href="#DejaVuSans-50"/>
       <use x="517.529297" xlink:href="#DejaVuSans-55"/>
      </g>
     </g>
    </g>
    <g id="text_45">
     <!-- Day -->
     <defs>
      <path d="M 19.671875 64.796875 
L 19.671875 8.109375 
L 31.59375 8.109375 
Q 46.6875 8.109375 53.6875 14.9375 
Q 60.6875 21.78125 60.6875 36.53125 
Q 60.6875 51.171875 53.6875 57.984375 
Q 46.6875 64.796875 31.59375 64.796875 
z
M 9.8125 72.90625 
L 30.078125 72.90625 
Q 51.265625 72.90625 61.171875 64.09375 
Q 71.09375 55.28125 71.09375 36.53125 
Q 71.09375 17.671875 61.125 8.828125 
Q 51.171875 0 30.078125 0 
L 9.8125 0 
z
" id="DejaVuSans-68"/>
      <path d="M 34.28125 27.484375 
Q 23.390625 27.484375 19.1875 25 
Q 14.984375 22.515625 14.984375 16.5 
Q 14.984375 11.71875 18.140625 8.90625 
Q 21.296875 6.109375 26.703125 6.109375 
Q 34.1875 6.109375 38.703125 11.40625 
Q 43.21875 16.703125 43.21875 25.484375 
L 43.21875 27.484375 
z
M 52.203125 31.203125 
L 52.203125 0 
L 43.21875 0 
L 43.21875 8.296875 
Q 40.140625 3.328125 35.546875 0.953125 
Q 30.953125 -1.421875 24.3125 -1.421875 
Q 15.921875 -1.421875 10.953125 3.296875 
Q 6 8.015625 6 15.921875 
Q 6 25.140625 12.171875 29.828125 
Q 18.359375 34.515625 30.609375 34.515625 
L 43.21875 34.515625 
L 43.21875 35.40625 
Q 43.21875 41.609375 39.140625 45 
Q 35.0625 48.390625 27.6875 48.390625 
Q 23 48.390625 18.546875 47.265625 
Q 14.109375 46.140625 10.015625 43.890625 
L 10.015625 52.203125 
Q 14.9375 54.109375 19.578125 55.046875 
Q 24.21875 56 28.609375 56 
Q 40.484375 56 46.34375 49.84375 
Q 52.203125 43.703125 52.203125 31.203125 
z
" id="DejaVuSans-97"/>
      <path d="M 32.171875 -5.078125 
Q 28.375 -14.84375 24.75 -17.8125 
Q 21.140625 -20.796875 15.09375 -20.796875 
L 7.90625 -20.796875 
L 7.90625 -13.28125 
L 13.1875 -13.28125 
Q 16.890625 -13.28125 18.9375 -11.515625 
Q 21 -9.765625 23.484375 -3.21875 
L 25.09375 0.875 
L 2.984375 54.6875 
L 12.5 54.6875 
L 29.59375 11.921875 
L 46.6875 54.6875 
L 56.203125 54.6875 
z
" id="DejaVuSans-121"/>
     </defs>
     <g style="fill:#262626;" transform="translate(369.263125 370.945312)scale(0.12 -0.12)">
      <use xlink:href="#DejaVuSans-68"/>
      <use x="77.001953" xlink:href="#DejaVuSans-97"/>
      <use x="138.28125" xlink:href="#DejaVuSans-121"/>
     </g>
    </g>
   </g>
   <g id="matplotlib.axis_2">
    <g id="ytick_1">
     <g id="line2d_45">
      <path clip-path="url(#p6e8cd2e912)" d="M 46.31125 270.345533 
L 715.91125 270.345533 
" style="fill:none;stroke:#ffffff;stroke-linecap:round;"/>
     </g>
     <g id="text_46">
      <!-- 8 -->
      <g style="fill:#262626;" transform="translate(29.8125 274.524674)scale(0.11 -0.11)">
       <use xlink:href="#DejaVuSans-56"/>
      </g>
     </g>
    </g>
    <g id="ytick_2">
     <g id="line2d_46">
      <path clip-path="url(#p6e8cd2e912)" d="M 46.31125 228.346958 
L 715.91125 228.346958 
" style="fill:none;stroke:#ffffff;stroke-linecap:round;"/>
     </g>
     <g id="text_47">
      <!-- 10 -->
      <g style="fill:#262626;" transform="translate(22.81375 232.526099)scale(0.11 -0.11)">
       <use xlink:href="#DejaVuSans-49"/>
       <use x="63.623047" xlink:href="#DejaVuSans-48"/>
      </g>
     </g>
    </g>
    <g id="ytick_3">
     <g id="line2d_47">
      <path clip-path="url(#p6e8cd2e912)" d="M 46.31125 186.348382 
L 715.91125 186.348382 
" style="fill:none;stroke:#ffffff;stroke-linecap:round;"/>
     </g>
     <g id="text_48">
      <!-- 12 -->
      <g style="fill:#262626;" transform="translate(22.81375 190.527523)scale(0.11 -0.11)">
       <use xlink:href="#DejaVuSans-49"/>
       <use x="63.623047" xlink:href="#DejaVuSans-50"/>
      </g>
     </g>
    </g>
    <g id="ytick_4">
     <g id="line2d_48">
      <path clip-path="url(#p6e8cd2e912)" d="M 46.31125 144.349807 
L 715.91125 144.349807 
" style="fill:none;stroke:#ffffff;stroke-linecap:round;"/>
     </g>
     <g id="text_49">
      <!-- 14 -->
      <g style="fill:#262626;" transform="translate(22.81375 148.528948)scale(0.11 -0.11)">
       <use xlink:href="#DejaVuSans-49"/>
       <use x="63.623047" xlink:href="#DejaVuSans-52"/>
      </g>
     </g>
    </g>
    <g id="ytick_5">
     <g id="line2d_49">
      <path clip-path="url(#p6e8cd2e912)" d="M 46.31125 102.351231 
L 715.91125 102.351231 
" style="fill:none;stroke:#ffffff;stroke-linecap:round;"/>
     </g>
     <g id="text_50">
      <!-- 16 -->
      <g style="fill:#262626;" transform="translate(22.81375 106.530372)scale(0.11 -0.11)">
       <use xlink:href="#DejaVuSans-49"/>
       <use x="63.623047" xlink:href="#DejaVuSans-54"/>
      </g>
     </g>
    </g>
    <g id="ytick_6">
     <g id="line2d_50">
      <path clip-path="url(#p6e8cd2e912)" d="M 46.31125 60.352656 
L 715.91125 60.352656 
" style="fill:none;stroke:#ffffff;stroke-linecap:round;"/>
     </g>
     <g id="text_51">
      <!-- 18 -->
      <g style="fill:#262626;" transform="translate(22.81375 64.531797)scale(0.11 -0.11)">
       <use xlink:href="#DejaVuSans-49"/>
       <use x="63.623047" xlink:href="#DejaVuSans-56"/>
      </g>
     </g>
    </g>
    <g id="ytick_7">
     <g id="line2d_51">
      <path clip-path="url(#p6e8cd2e912)" d="M 46.31125 18.35408 
L 715.91125 18.35408 
" style="fill:none;stroke:#ffffff;stroke-linecap:round;"/>
     </g>
     <g id="text_52">
      <!-- 20 -->
      <g style="fill:#262626;" transform="translate(22.81375 22.533221)scale(0.11 -0.11)">
       <use xlink:href="#DejaVuSans-50"/>
       <use x="63.623047" xlink:href="#DejaVuSans-48"/>
      </g>
     </g>
    </g>
    <g id="text_53">
     <!-- Total Cases (log2 scale) -->
     <defs>
      <path d="M -0.296875 72.90625 
L 61.375 72.90625 
L 61.375 64.59375 
L 35.5 64.59375 
L 35.5 0 
L 25.59375 0 
L 25.59375 64.59375 
L -0.296875 64.59375 
z
" id="DejaVuSans-84"/>
      <path d="M 30.609375 48.390625 
Q 23.390625 48.390625 19.1875 42.75 
Q 14.984375 37.109375 14.984375 27.296875 
Q 14.984375 17.484375 19.15625 11.84375 
Q 23.34375 6.203125 30.609375 6.203125 
Q 37.796875 6.203125 41.984375 11.859375 
Q 46.1875 17.53125 46.1875 27.296875 
Q 46.1875 37.015625 41.984375 42.703125 
Q 37.796875 48.390625 30.609375 48.390625 
z
M 30.609375 56 
Q 42.328125 56 49.015625 48.375 
Q 55.71875 40.765625 55.71875 27.296875 
Q 55.71875 13.875 49.015625 6.21875 
Q 42.328125 -1.421875 30.609375 -1.421875 
Q 18.84375 -1.421875 12.171875 6.21875 
Q 5.515625 13.875 5.515625 27.296875 
Q 5.515625 40.765625 12.171875 48.375 
Q 18.84375 56 30.609375 56 
z
" id="DejaVuSans-111"/>
      <path d="M 18.3125 70.21875 
L 18.3125 54.6875 
L 36.8125 54.6875 
L 36.8125 47.703125 
L 18.3125 47.703125 
L 18.3125 18.015625 
Q 18.3125 11.328125 20.140625 9.421875 
Q 21.96875 7.515625 27.59375 7.515625 
L 36.8125 7.515625 
L 36.8125 0 
L 27.59375 0 
Q 17.1875 0 13.234375 3.875 
Q 9.28125 7.765625 9.28125 18.015625 
L 9.28125 47.703125 
L 2.6875 47.703125 
L 2.6875 54.6875 
L 9.28125 54.6875 
L 9.28125 70.21875 
z
" id="DejaVuSans-116"/>
      <path d="M 9.421875 75.984375 
L 18.40625 75.984375 
L 18.40625 0 
L 9.421875 0 
z
" id="DejaVuSans-108"/>
      <path id="DejaVuSans-32"/>
      <path d="M 64.40625 67.28125 
L 64.40625 56.890625 
Q 59.421875 61.53125 53.78125 63.8125 
Q 48.140625 66.109375 41.796875 66.109375 
Q 29.296875 66.109375 22.65625 58.46875 
Q 16.015625 50.828125 16.015625 36.375 
Q 16.015625 21.96875 22.65625 14.328125 
Q 29.296875 6.6875 41.796875 6.6875 
Q 48.140625 6.6875 53.78125 8.984375 
Q 59.421875 11.28125 64.40625 15.921875 
L 64.40625 5.609375 
Q 59.234375 2.09375 53.4375 0.328125 
Q 47.65625 -1.421875 41.21875 -1.421875 
Q 24.65625 -1.421875 15.125 8.703125 
Q 5.609375 18.84375 5.609375 36.375 
Q 5.609375 53.953125 15.125 64.078125 
Q 24.65625 74.21875 41.21875 74.21875 
Q 47.75 74.21875 53.53125 72.484375 
Q 59.328125 70.75 64.40625 67.28125 
z
" id="DejaVuSans-67"/>
      <path d="M 44.28125 53.078125 
L 44.28125 44.578125 
Q 40.484375 46.53125 36.375 47.5 
Q 32.28125 48.484375 27.875 48.484375 
Q 21.1875 48.484375 17.84375 46.4375 
Q 14.5 44.390625 14.5 40.28125 
Q 14.5 37.15625 16.890625 35.375 
Q 19.28125 33.59375 26.515625 31.984375 
L 29.59375 31.296875 
Q 39.15625 29.25 43.1875 25.515625 
Q 47.21875 21.78125 47.21875 15.09375 
Q 47.21875 7.46875 41.1875 3.015625 
Q 35.15625 -1.421875 24.609375 -1.421875 
Q 20.21875 -1.421875 15.453125 -0.5625 
Q 10.6875 0.296875 5.421875 2 
L 5.421875 11.28125 
Q 10.40625 8.6875 15.234375 7.390625 
Q 20.0625 6.109375 24.8125 6.109375 
Q 31.15625 6.109375 34.5625 8.28125 
Q 37.984375 10.453125 37.984375 14.40625 
Q 37.984375 18.0625 35.515625 20.015625 
Q 33.0625 21.96875 24.703125 23.78125 
L 21.578125 24.515625 
Q 13.234375 26.265625 9.515625 29.90625 
Q 5.8125 33.546875 5.8125 39.890625 
Q 5.8125 47.609375 11.28125 51.796875 
Q 16.75 56 26.8125 56 
Q 31.78125 56 36.171875 55.265625 
Q 40.578125 54.546875 44.28125 53.078125 
z
" id="DejaVuSans-115"/>
      <path d="M 56.203125 29.59375 
L 56.203125 25.203125 
L 14.890625 25.203125 
Q 15.484375 15.921875 20.484375 11.0625 
Q 25.484375 6.203125 34.421875 6.203125 
Q 39.59375 6.203125 44.453125 7.46875 
Q 49.3125 8.734375 54.109375 11.28125 
L 54.109375 2.78125 
Q 49.265625 0.734375 44.1875 -0.34375 
Q 39.109375 -1.421875 33.890625 -1.421875 
Q 20.796875 -1.421875 13.15625 6.1875 
Q 5.515625 13.8125 5.515625 26.8125 
Q 5.515625 40.234375 12.765625 48.109375 
Q 20.015625 56 32.328125 56 
Q 43.359375 56 49.78125 48.890625 
Q 56.203125 41.796875 56.203125 29.59375 
z
M 47.21875 32.234375 
Q 47.125 39.59375 43.09375 43.984375 
Q 39.0625 48.390625 32.421875 48.390625 
Q 24.90625 48.390625 20.390625 44.140625 
Q 15.875 39.890625 15.1875 32.171875 
z
" id="DejaVuSans-101"/>
      <path d="M 31 75.875 
Q 24.46875 64.65625 21.28125 53.65625 
Q 18.109375 42.671875 18.109375 31.390625 
Q 18.109375 20.125 21.3125 9.0625 
Q 24.515625 -2 31 -13.1875 
L 23.1875 -13.1875 
Q 15.875 -1.703125 12.234375 9.375 
Q 8.59375 20.453125 8.59375 31.390625 
Q 8.59375 42.28125 12.203125 53.3125 
Q 15.828125 64.359375 23.1875 75.875 
z
" id="DejaVuSans-40"/>
      <path d="M 45.40625 27.984375 
Q 45.40625 37.75 41.375 43.109375 
Q 37.359375 48.484375 30.078125 48.484375 
Q 22.859375 48.484375 18.828125 43.109375 
Q 14.796875 37.75 14.796875 27.984375 
Q 14.796875 18.265625 18.828125 12.890625 
Q 22.859375 7.515625 30.078125 7.515625 
Q 37.359375 7.515625 41.375 12.890625 
Q 45.40625 18.265625 45.40625 27.984375 
z
M 54.390625 6.78125 
Q 54.390625 -7.171875 48.1875 -13.984375 
Q 42 -20.796875 29.203125 -20.796875 
Q 24.46875 -20.796875 20.265625 -20.09375 
Q 16.0625 -19.390625 12.109375 -17.921875 
L 12.109375 -9.1875 
Q 16.0625 -11.328125 19.921875 -12.34375 
Q 23.78125 -13.375 27.78125 -13.375 
Q 36.625 -13.375 41.015625 -8.765625 
Q 45.40625 -4.15625 45.40625 5.171875 
L 45.40625 9.625 
Q 42.625 4.78125 38.28125 2.390625 
Q 33.9375 0 27.875 0 
Q 17.828125 0 11.671875 7.65625 
Q 5.515625 15.328125 5.515625 27.984375 
Q 5.515625 40.671875 11.671875 48.328125 
Q 17.828125 56 27.875 56 
Q 33.9375 56 38.28125 53.609375 
Q 42.625 51.21875 45.40625 46.390625 
L 45.40625 54.6875 
L 54.390625 54.6875 
z
" id="DejaVuSans-103"/>
      <path d="M 48.78125 52.59375 
L 48.78125 44.1875 
Q 44.96875 46.296875 41.140625 47.34375 
Q 37.3125 48.390625 33.40625 48.390625 
Q 24.65625 48.390625 19.8125 42.84375 
Q 14.984375 37.3125 14.984375 27.296875 
Q 14.984375 17.28125 19.8125 11.734375 
Q 24.65625 6.203125 33.40625 6.203125 
Q 37.3125 6.203125 41.140625 7.25 
Q 44.96875 8.296875 48.78125 10.40625 
L 48.78125 2.09375 
Q 45.015625 0.34375 40.984375 -0.53125 
Q 36.96875 -1.421875 32.421875 -1.421875 
Q 20.0625 -1.421875 12.78125 6.34375 
Q 5.515625 14.109375 5.515625 27.296875 
Q 5.515625 40.671875 12.859375 48.328125 
Q 20.21875 56 33.015625 56 
Q 37.15625 56 41.109375 55.140625 
Q 45.0625 54.296875 48.78125 52.59375 
z
" id="DejaVuSans-99"/>
      <path d="M 8.015625 75.875 
L 15.828125 75.875 
Q 23.140625 64.359375 26.78125 53.3125 
Q 30.421875 42.28125 30.421875 31.390625 
Q 30.421875 20.453125 26.78125 9.375 
Q 23.140625 -1.703125 15.828125 -13.1875 
L 8.015625 -13.1875 
Q 14.5 -2 17.703125 9.0625 
Q 20.90625 20.125 20.90625 31.390625 
Q 20.90625 42.671875 17.703125 53.65625 
Q 14.5 64.65625 8.015625 75.875 
z
" id="DejaVuSans-41"/>
     </defs>
     <g style="fill:#262626;" transform="translate(16.318125 217.453125)rotate(-90)scale(0.12 -0.12)">
      <use xlink:href="#DejaVuSans-84"/>
      <use x="60.818359" xlink:href="#DejaVuSans-111"/>
      <use x="122" xlink:href="#DejaVuSans-116"/>
      <use x="161.208984" xlink:href="#DejaVuSans-97"/>
      <use x="222.488281" xlink:href="#DejaVuSans-108"/>
      <use x="250.271484" xlink:href="#DejaVuSans-32"/>
      <use x="282.058594" xlink:href="#DejaVuSans-67"/>
      <use x="351.882812" xlink:href="#DejaVuSans-97"/>
      <use x="413.162109" xlink:href="#DejaVuSans-115"/>
      <use x="465.261719" xlink:href="#DejaVuSans-101"/>
      <use x="526.785156" xlink:href="#DejaVuSans-115"/>
      <use x="578.884766" xlink:href="#DejaVuSans-32"/>
      <use x="610.671875" xlink:href="#DejaVuSans-40"/>
      <use x="649.685547" xlink:href="#DejaVuSans-108"/>
      <use x="677.46875" xlink:href="#DejaVuSans-111"/>
      <use x="738.650391" xlink:href="#DejaVuSans-103"/>
      <use x="802.126953" xlink:href="#DejaVuSans-50"/>
      <use x="865.75" xlink:href="#DejaVuSans-32"/>
      <use x="897.537109" xlink:href="#DejaVuSans-115"/>
      <use x="949.636719" xlink:href="#DejaVuSans-99"/>
      <use x="1004.617188" xlink:href="#DejaVuSans-97"/>
      <use x="1065.896484" xlink:href="#DejaVuSans-108"/>
      <use x="1093.679688" xlink:href="#DejaVuSans-101"/>
      <use x="1155.203125" xlink:href="#DejaVuSans-41"/>
     </g>
    </g>
   </g>
   <g id="line2d_52">
    <path clip-path="url(#p6e8cd2e912)" d="M 76.747614 95.989659 
L 90.904062 95.978045 
L 105.06051 95.97767 
L 119.216958 95.96007 
L 133.373406 95.96007 
L 147.529855 95.945474 
L 161.686303 95.912939 
L 175.842751 95.898365 
L 189.999199 95.898365 
L 204.155647 95.869239 
L 218.312096 95.851702 
L 232.468544 95.806229 
L 246.624992 95.806229 
L 260.78144 95.786123 
L 274.937888 95.769378 
L 289.094337 95.757848 
L 303.250785 95.740004 
L 317.407233 95.726628 
L 331.563681 95.713629 
L 345.720129 95.70212 
L 359.876578 95.695069 
L 374.033026 95.683938 
L 388.189474 95.669474 
L 402.345922 95.657611 
L 416.502371 95.634641 
L 430.658819 95.611318 
L 444.815267 95.595779 
L 458.971715 95.578769 
L 473.128163 95.542194 
L 487.284612 95.502344 
L 501.44106 95.469544 
L 515.597508 95.452605 
L 529.753956 95.435676 
L 543.910404 95.306807 
L 558.066853 95.296917 
L 572.223301 95.291058 
L 586.379749 95.286664 
L 600.536197 95.282637 
L 614.692645 95.271657 
L 628.849094 95.267997 
L 643.005542 95.265802 
L 657.16199 95.261412 
L 671.318438 95.257388 
L 685.474886 95.256291 
" style="fill:none;stroke:#a6cee3;stroke-linecap:round;stroke-width:1.5;"/>
   </g>
   <g id="line2d_53">
    <path clip-path="url(#p6e8cd2e912)" d="M 76.747614 190.082634 
L 90.904062 184.777416 
L 105.06051 172.695607 
L 119.216958 160.976321 
L 133.373406 150.658571 
L 147.529855 144.152597 
L 161.686303 129.337638 
L 175.842751 121.394884 
L 189.999199 115.512766 
L 204.155647 108.828405 
L 218.312096 103.015349 
L 232.468544 94.255472 
L 246.624992 89.538008 
L 260.78144 84.124555 
L 274.937888 80.261873 
L 289.094337 75.943502 
L 303.250785 71.620441 
L 317.407233 67.429518 
L 331.563681 63.53044 
L 345.720129 59.87851 
L 359.876578 56.149215 
L 374.033026 53.357457 
L 388.189474 51.045888 
L 402.345922 48.58395 
L 416.502371 46.175695 
L 430.658819 43.173237 
L 444.815267 41.424327 
L 458.971715 39.467302 
L 473.128163 37.866846 
L 487.284612 36.417644 
L 501.44106 35.090834 
L 515.597508 34.093491 
L 529.753956 32.033774 
L 543.910404 30.993187 
L 558.066853 29.396357 
L 572.223301 28.2309 
L 586.379749 27.2578 
L 600.536197 26.371666 
L 614.692645 25.415181 
L 628.849094 24.112492 
L 643.005542 22.846052 
L 657.16199 21.47823 
L 671.318438 20.514639 
L 685.474886 19.8 
" style="fill:none;stroke:#1f78b4;stroke-linecap:round;stroke-width:1.5;"/>
   </g>
   <g id="line2d_54">
    <path clip-path="url(#p6e8cd2e912)" d="M 76.747614 265.540504 
L 90.904062 258.780243 
L 105.06051 253.122359 
L 119.216958 239.484102 
L 133.373406 239.484102 
L 147.529855 233.076269 
L 161.686303 221.445019 
L 175.842751 214.282246 
L 189.999199 212.688328 
L 204.155647 205.959844 
L 218.312096 202.153829 
L 232.468544 194.150761 
L 246.624992 194.01709 
L 260.78144 189.965727 
L 274.937888 187.218746 
L 289.094337 185.265894 
L 303.250785 183.090669 
L 317.407233 181.142081 
L 331.563681 179.475905 
L 345.720129 178.25687 
L 359.876578 177.144981 
L 374.033026 176.406226 
L 388.189474 175.836287 
L 402.345922 175.194868 
L 416.502371 174.717523 
L 430.658819 174.262468 
L 444.815267 173.77505 
L 458.971715 173.290543 
L 473.128163 173.242516 
L 487.284612 173.022566 
L 501.44106 172.827861 
L 515.597508 172.606191 
L 529.753956 172.507669 
L 543.910404 172.237212 
L 558.066853 172.056702 
L 572.223301 171.840583 
L 586.379749 171.808527 
L 600.536197 171.689756 
L 614.692645 171.671525 
L 628.849094 171.616898 
L 643.005542 171.55329 
L 657.16199 171.462652 
L 671.318438 171.390337 
L 685.474886 171.349735 
" style="fill:none;stroke:#b2df8a;stroke-linecap:round;stroke-width:1.5;"/>
   </g>
   <g id="line2d_55">
    <path clip-path="url(#p6e8cd2e912)" d="M 76.747614 234.383686 
L 90.904062 232.426198 
L 105.06051 233.00718 
L 119.216958 231.492928 
L 133.373406 230.84348 
L 147.529855 230.207663 
L 161.686303 227.472145 
L 175.842751 226.150459 
L 189.999199 225.416479 
L 204.155647 223.71917 
L 218.312096 220.954297 
L 232.468544 219.154476 
L 246.624992 219.154476 
L 260.78144 216.801871 
L 274.937888 210.167176 
L 289.094337 210.167176 
L 303.250785 208.78662 
L 317.407233 205.48318 
L 331.563681 202.745287 
L 345.720129 199.92026 
L 359.876578 196.445999 
L 374.033026 194.410233 
L 388.189474 189.807786 
L 402.345922 187.787333 
L 416.502371 185.180373 
L 430.658819 182.394642 
L 444.815267 177.254352 
L 458.971715 174.757856 
L 473.128163 171.223766 
L 487.284612 168.552559 
L 501.44106 167.442707 
L 515.597508 165.691253 
L 529.753956 163.785152 
L 543.910404 161.731522 
L 558.066853 159.959607 
L 572.223301 156.984178 
L 586.379749 156.984178 
L 600.536197 156.050317 
L 614.692645 155.041576 
L 628.849094 153.9103 
L 643.005542 152.868701 
L 657.16199 151.760013 
L 671.318438 150.825263 
L 685.474886 150.348194 
" style="fill:none;stroke:#33a02c;stroke-linecap:round;stroke-width:1.5;"/>
   </g>
   <g id="line2d_56">
    <path clip-path="url(#p6e8cd2e912)" d="M 76.747614 175.742331 
L 90.904062 169.08753 
L 105.06051 161.288434 
L 119.216958 151.166054 
L 133.373406 146.384036 
L 147.529855 140.192273 
L 161.686303 134.923423 
L 175.842751 131.702085 
L 189.999199 126.992877 
L 204.155647 123.149635 
L 218.312096 119.407329 
L 232.468544 112.244387 
L 246.624992 110.440843 
L 260.78144 106.211768 
L 274.937888 104.694036 
L 289.094337 103.103365 
L 303.250785 101.152992 
L 317.407233 97.647356 
L 331.563681 94.682045 
L 345.720129 92.795754 
L 359.876578 92.025954 
L 374.033026 89.560124 
L 388.189474 89.08085 
L 402.345922 87.370059 
L 416.502371 86.470108 
L 430.658819 85.177582 
L 444.815267 84.120756 
L 458.971715 83.062116 
L 473.128163 82.326914 
L 487.284612 82.021259 
L 501.44106 81.329301 
L 515.597508 80.861988 
L 529.753956 80.268786 
L 543.910404 79.54358 
L 558.066853 78.740395 
L 572.223301 78.416849 
L 586.379749 78.001795 
L 600.536197 77.667165 
L 614.692645 77.311706 
L 628.849094 76.997583 
L 643.005542 76.436859 
L 657.16199 76.119572 
L 671.318438 75.860476 
L 685.474886 75.650456 
" style="fill:none;stroke:#fb9a99;stroke-linecap:round;stroke-width:1.5;"/>
   </g>
   <g id="line2d_57">
    <path clip-path="url(#p6e8cd2e912)" d="M 76.747614 219.067232 
L 90.904062 215.92541 
L 105.06051 208.833193 
L 119.216958 199.81625 
L 133.373406 193.180844 
L 147.529855 193.180844 
L 161.686303 180.197759 
L 175.842751 176.427542 
L 189.999199 171.666969 
L 204.155647 165.7774 
L 218.312096 165.083988 
L 232.468544 154.659771 
L 246.624992 147.960901 
L 260.78144 143.073463 
L 274.937888 139.040909 
L 289.094337 135.227028 
L 303.250785 131.366561 
L 317.407233 126.56015 
L 331.563681 122.48469 
L 345.720129 118.729081 
L 359.876578 115.900688 
L 374.033026 111.907922 
L 388.189474 109.589537 
L 402.345922 107.528019 
L 416.502371 104.6571 
L 430.658819 102.564162 
L 444.815267 98.770603 
L 458.971715 96.694009 
L 473.128163 94.730893 
L 487.284612 93.208961 
L 501.44106 91.464725 
L 515.597508 90.014475 
L 529.753956 88.626373 
L 543.910404 87.02414 
L 558.066853 85.522027 
L 572.223301 84.00877 
L 586.379749 82.851307 
L 600.536197 81.824353 
L 614.692645 80.797013 
L 628.849094 79.774394 
L 643.005542 78.615123 
L 657.16199 77.595004 
L 671.318438 76.697186 
L 685.474886 75.854885 
" style="fill:none;stroke:#e31a1c;stroke-linecap:round;stroke-width:1.5;"/>
   </g>
   <g id="line2d_58">
    <path clip-path="url(#p6e8cd2e912)" d="M 76.747614 177.846286 
L 90.904062 171.744516 
L 105.06051 167.107728 
L 119.216958 162.051554 
L 133.373406 156.433637 
L 147.529855 156.433637 
L 161.686303 148.136395 
L 175.842751 145.034249 
L 189.999199 138.526969 
L 204.155647 135.004812 
L 218.312096 131.266744 
L 232.468544 126.889829 
L 246.624992 123.169848 
L 260.78144 119.203465 
L 274.937888 117.177264 
L 289.094337 114.044941 
L 303.250785 109.285808 
L 317.407233 106.584775 
L 331.563681 105.480282 
L 345.720129 102.91016 
L 359.876578 92.756998 
L 374.033026 92.756998 
L 388.189474 90.158177 
L 402.345922 86.919242 
L 416.502371 85.859971 
L 430.658819 84.599373 
L 444.815267 82.820721 
L 458.971715 81.681482 
L 473.128163 81.002866 
L 487.284612 80.060756 
L 501.44106 78.64914 
L 515.597508 77.700135 
L 529.753956 74.372987 
L 543.910404 77.678424 
L 558.066853 76.905434 
L 572.223301 76.749164 
L 586.379749 76.197266 
L 600.536197 75.681684 
L 614.692645 75.333487 
L 628.849094 75.021864 
L 643.005542 75.342774 
L 657.16199 75.029742 
L 671.318438 74.915146 
L 685.474886 74.223738 
" style="fill:none;stroke:#fdbf6f;stroke-linecap:round;stroke-width:1.5;"/>
   </g>
   <g id="line2d_59">
    <path clip-path="url(#p6e8cd2e912)" d="M 76.747614 131.855944 
L 90.904062 128.136082 
L 105.06051 124.54036 
L 119.216958 120.743212 
L 133.373406 116.534836 
L 147.529855 112.409521 
L 161.686303 108.454609 
L 175.842751 105.463371 
L 189.999199 103.104313 
L 204.155647 100.713624 
L 218.312096 98.513748 
L 232.468544 96.087242 
L 246.624992 93.943554 
L 260.78144 91.920277 
L 274.937888 90.257563 
L 289.094337 89.026904 
L 303.250785 87.843432 
L 317.407233 86.504063 
L 331.563681 85.251363 
L 345.720129 84.069388 
L 359.876578 82.878277 
L 374.033026 81.8469 
L 388.189474 81.012921 
L 402.345922 80.326156 
L 416.502371 79.480934 
L 430.658819 78.580932 
L 444.815267 77.75879 
L 458.971715 76.810182 
L 473.128163 76.006792 
L 487.284612 75.401972 
L 501.44106 74.842718 
L 515.597508 74.349498 
L 529.753956 73.662845 
L 543.910404 73.042846 
L 558.066853 72.435625 
L 572.223301 71.915402 
L 586.379749 71.535903 
L 600.536197 71.083102 
L 614.692645 70.533125 
L 628.849094 70.108193 
L 643.005542 69.630215 
L 657.16199 69.262462 
L 671.318438 68.904177 
L 685.474886 68.638824 
" style="fill:none;stroke:#ff7f00;stroke-linecap:round;stroke-width:1.5;"/>
   </g>
   <g id="line2d_60">
    <path clip-path="url(#p6e8cd2e912)" d="M 76.747614 166.668062 
L 90.904062 161.091782 
L 105.06051 154.226306 
L 119.216958 142.970814 
L 133.373406 141.370687 
L 147.529855 137.690304 
L 161.686303 130.952612 
L 175.842751 127.294662 
L 189.999199 123.055184 
L 204.155647 117.555158 
L 218.312096 112.03175 
L 232.468544 106.164022 
L 246.624992 103.041821 
L 260.78144 99.397261 
L 274.937888 96.767737 
L 289.094337 94.403397 
L 303.250785 91.289667 
L 317.407233 88.908917 
L 331.563681 86.596262 
L 345.720129 84.609409 
L 359.876578 82.853007 
L 374.033026 81.424376 
L 388.189474 80.450196 
L 402.345922 79.245221 
L 416.502371 77.941428 
L 430.658819 76.775385 
L 444.815267 75.873398 
L 458.971715 74.961531 
L 473.128163 74.191421 
L 487.284612 73.563482 
L 501.44106 73.024053 
L 515.597508 72.142914 
L 529.753956 71.271597 
L 543.910404 70.409496 
L 558.066853 69.829919 
L 572.223301 69.170638 
L 586.379749 68.518134 
L 600.536197 67.923573 
L 614.692645 67.305109 
L 628.849094 66.638657 
L 643.005542 65.694968 
L 657.16199 65.149183 
L 671.318438 64.763074 
L 685.474886 64.39199 
" style="fill:none;stroke:#cab2d6;stroke-linecap:round;stroke-width:1.5;"/>
   </g>
   <g id="line2d_61">
    <path clip-path="url(#p6e8cd2e912)" d="M 76.747614 222.305203 
L 90.904062 220.334828 
L 105.06051 217.39372 
L 119.216958 213.150594 
L 133.373406 211.426911 
L 147.529855 209.397723 
L 161.686303 205.636576 
L 175.842751 202.732582 
L 189.999199 200.741646 
L 204.155647 198.100631 
L 218.312096 195.123103 
L 232.468544 192.178191 
L 246.624992 189.2899 
L 260.78144 187.059315 
L 274.937888 185.144811 
L 289.094337 183.871145 
L 303.250785 182.635782 
L 317.407233 181.367142 
L 331.563681 179.523103 
L 345.720129 178.564211 
L 359.876578 177.144981 
L 374.033026 176.406226 
L 388.189474 176.004043 
L 402.345922 175.276873 
L 416.502371 174.351938 
L 430.658819 173.97596 
L 444.815267 173.314586 
L 458.971715 172.790015 
L 473.128163 172.428147 
L 487.284612 172.121377 
L 501.44106 171.790224 
L 515.597508 171.259704 
L 529.753956 170.778104 
L 543.910404 170.386904 
L 558.066853 169.957603 
L 572.223301 169.777298 
L 586.379749 169.568288 
L 600.536197 169.29745 
L 614.692645 168.945611 
L 628.849094 168.589578 
L 643.005542 168.249887 
L 657.16199 168.051121 
L 671.318438 167.978431 
L 685.474886 167.805485 
" style="fill:none;stroke:#6a3d9a;stroke-linecap:round;stroke-width:1.5;"/>
   </g>
   <g id="line2d_62">
    <path clip-path="url(#p6e8cd2e912)" d="M 76.747614 227.87725 
L 90.904062 225.659168 
L 105.06051 223.643082 
L 119.216958 220.403035 
L 133.373406 218.039439 
L 147.529855 214.096838 
L 161.686303 211.767314 
L 175.842751 209.082798 
L 189.999199 207.37727 
L 204.155647 204.01698 
L 218.312096 200.992468 
L 232.468544 197.442827 
L 246.624992 195.321373 
L 260.78144 191.574568 
L 274.937888 189.428777 
L 289.094337 186.855558 
L 303.250785 183.939378 
L 317.407233 180.629475 
L 331.563681 177.607014 
L 345.720129 174.128756 
L 359.876578 172.624993 
L 374.033026 170.857841 
L 388.189474 169.234321 
L 402.345922 167.253088 
L 416.502371 164.521026 
L 430.658819 162.028345 
L 444.815267 160.277004 
L 458.971715 158.853296 
L 473.128163 157.878304 
L 487.284612 156.563419 
L 501.44106 155.218412 
L 515.597508 153.968665 
L 529.753956 152.450288 
L 543.910404 150.859629 
L 558.066853 149.501378 
L 572.223301 148.291844 
L 586.379749 147.477319 
L 600.536197 146.380081 
L 614.692645 145.06074 
L 628.849094 143.671445 
L 643.005542 142.237694 
L 657.16199 141.203557 
L 671.318438 140.44154 
L 685.474886 139.980235 
" style="fill:none;stroke:#ffff99;stroke-linecap:round;stroke-width:1.5;"/>
   </g>
   <g id="line2d_63">
    <path clip-path="url(#p6e8cd2e912)" d="M 76.747614 271.8 
L 90.904062 267.847856 
L 105.06051 263.396515 
L 119.216958 256.825012 
L 133.373406 256.825012 
L 147.529855 253.256708 
L 161.686303 248.702258 
L 175.842751 243.256056 
L 189.999199 239.871134 
L 204.155647 236.130205 
L 218.312096 232.938248 
L 232.468544 230.365371 
L 246.624992 227.848133 
L 260.78144 224.386726 
L 274.937888 222.548542 
L 289.094337 219.928775 
L 303.250785 218.484814 
L 317.407233 217.892424 
L 331.563681 216.420285 
L 345.720129 214.543739 
L 359.876578 209.908514 
L 374.033026 209.19265 
L 388.189474 205.511013 
L 402.345922 203.726815 
L 416.502371 201.463863 
L 430.658819 200.059497 
L 444.815267 198.209844 
L 458.971715 196.757258 
L 473.128163 196.046086 
L 487.284612 195.142872 
L 501.44106 194.198644 
L 515.597508 193.478866 
L 529.753956 192.267983 
L 543.910404 191.207662 
L 558.066853 189.58475 
L 572.223301 188.756684 
L 586.379749 188.08351 
L 600.536197 186.961039 
L 614.692645 186.10528 
L 628.849094 184.98883 
L 643.005542 184.213858 
L 657.16199 183.667362 
L 671.318438 182.991198 
L 685.474886 182.213424 
" style="fill:none;stroke:#b15928;stroke-linecap:round;stroke-width:1.5;"/>
   </g>
   <g id="line2d_64"/>
   <g id="line2d_65"/>
   <g id="line2d_66"/>
   <g id="line2d_67"/>
   <g id="line2d_68"/>
   <g id="line2d_69"/>
   <g id="line2d_70"/>
   <g id="line2d_71"/>
   <g id="line2d_72"/>
   <g id="line2d_73"/>
   <g id="line2d_74"/>
   <g id="line2d_75"/>
   <g id="line2d_76"/>
   <g id="patch_3">
    <path d="M 46.31125 284.4 
L 46.31125 7.2 
" style="fill:none;stroke:#ffffff;stroke-linecap:square;stroke-linejoin:miter;stroke-width:1.25;"/>
   </g>
   <g id="legend_1">
    <g id="patch_4">
     <path d="M 723.61125 225.897187 
L 809.560781 225.897187 
Q 811.760781 225.897187 811.760781 223.697187 
L 811.760781 14.9 
Q 811.760781 12.7 809.560781 12.7 
L 723.61125 12.7 
Q 721.41125 12.7 721.41125 14.9 
L 721.41125 223.697187 
Q 721.41125 225.897187 723.61125 225.897187 
z
" style="fill:#eaeaf2;opacity:0.8;stroke:#cccccc;stroke-linejoin:miter;"/>
    </g>
    <g id="line2d_77">
     <path d="M 725.81125 21.608281 
L 747.81125 21.608281 
" style="fill:none;"/>
    </g>
    <g id="line2d_78"/>
    <g id="text_54">
     <!-- Country -->
     <defs>
      <path d="M 8.5 21.578125 
L 8.5 54.6875 
L 17.484375 54.6875 
L 17.484375 21.921875 
Q 17.484375 14.15625 20.5 10.265625 
Q 23.53125 6.390625 29.59375 6.390625 
Q 36.859375 6.390625 41.078125 11.03125 
Q 45.3125 15.671875 45.3125 23.6875 
L 45.3125 54.6875 
L 54.296875 54.6875 
L 54.296875 0 
L 45.3125 0 
L 45.3125 8.40625 
Q 42.046875 3.421875 37.71875 1 
Q 33.40625 -1.421875 27.6875 -1.421875 
Q 18.265625 -1.421875 13.375 4.4375 
Q 8.5 10.296875 8.5 21.578125 
z
M 31.109375 56 
z
" id="DejaVuSans-117"/>
      <path d="M 54.890625 33.015625 
L 54.890625 0 
L 45.90625 0 
L 45.90625 32.71875 
Q 45.90625 40.484375 42.875 44.328125 
Q 39.84375 48.1875 33.796875 48.1875 
Q 26.515625 48.1875 22.3125 43.546875 
Q 18.109375 38.921875 18.109375 30.90625 
L 18.109375 0 
L 9.078125 0 
L 9.078125 54.6875 
L 18.109375 54.6875 
L 18.109375 46.1875 
Q 21.34375 51.125 25.703125 53.5625 
Q 30.078125 56 35.796875 56 
Q 45.21875 56 50.046875 50.171875 
Q 54.890625 44.34375 54.890625 33.015625 
z
" id="DejaVuSans-110"/>
      <path d="M 41.109375 46.296875 
Q 39.59375 47.171875 37.8125 47.578125 
Q 36.03125 48 33.890625 48 
Q 26.265625 48 22.1875 43.046875 
Q 18.109375 38.09375 18.109375 28.8125 
L 18.109375 0 
L 9.078125 0 
L 9.078125 54.6875 
L 18.109375 54.6875 
L 18.109375 46.1875 
Q 20.953125 51.171875 25.484375 53.578125 
Q 30.03125 56 36.53125 56 
Q 37.453125 56 38.578125 55.875 
Q 39.703125 55.765625 41.0625 55.515625 
z
" id="DejaVuSans-114"/>
     </defs>
     <g style="fill:#262626;" transform="translate(756.61125 25.458281)scale(0.11 -0.11)">
      <use xlink:href="#DejaVuSans-67"/>
      <use x="69.824219" xlink:href="#DejaVuSans-111"/>
      <use x="131.005859" xlink:href="#DejaVuSans-117"/>
      <use x="194.384766" xlink:href="#DejaVuSans-110"/>
      <use x="257.763672" xlink:href="#DejaVuSans-116"/>
      <use x="296.972656" xlink:href="#DejaVuSans-114"/>
      <use x="338.085938" xlink:href="#DejaVuSans-121"/>
     </g>
    </g>
    <g id="line2d_79">
     <path d="M 725.81125 37.754219 
L 747.81125 37.754219 
" style="fill:none;stroke:#a6cee3;stroke-linecap:round;stroke-width:1.5;"/>
    </g>
    <g id="line2d_80"/>
    <g id="text_55">
     <!-- China -->
     <defs>
      <path d="M 54.890625 33.015625 
L 54.890625 0 
L 45.90625 0 
L 45.90625 32.71875 
Q 45.90625 40.484375 42.875 44.328125 
Q 39.84375 48.1875 33.796875 48.1875 
Q 26.515625 48.1875 22.3125 43.546875 
Q 18.109375 38.921875 18.109375 30.90625 
L 18.109375 0 
L 9.078125 0 
L 9.078125 75.984375 
L 18.109375 75.984375 
L 18.109375 46.1875 
Q 21.34375 51.125 25.703125 53.5625 
Q 30.078125 56 35.796875 56 
Q 45.21875 56 50.046875 50.171875 
Q 54.890625 44.34375 54.890625 33.015625 
z
" id="DejaVuSans-104"/>
      <path d="M 9.421875 54.6875 
L 18.40625 54.6875 
L 18.40625 0 
L 9.421875 0 
z
M 9.421875 75.984375 
L 18.40625 75.984375 
L 18.40625 64.59375 
L 9.421875 64.59375 
z
" id="DejaVuSans-105"/>
     </defs>
     <g style="fill:#262626;" transform="translate(756.61125 41.604219)scale(0.11 -0.11)">
      <use xlink:href="#DejaVuSans-67"/>
      <use x="69.824219" xlink:href="#DejaVuSans-104"/>
      <use x="133.203125" xlink:href="#DejaVuSans-105"/>
      <use x="160.986328" xlink:href="#DejaVuSans-110"/>
      <use x="224.365234" xlink:href="#DejaVuSans-97"/>
     </g>
    </g>
    <g id="line2d_81">
     <path d="M 725.81125 53.900156 
L 747.81125 53.900156 
" style="fill:none;stroke:#1f78b4;stroke-linecap:round;stroke-width:1.5;"/>
    </g>
    <g id="line2d_82"/>
    <g id="text_56">
     <!-- USA -->
     <defs>
      <path d="M 8.6875 72.90625 
L 18.609375 72.90625 
L 18.609375 28.609375 
Q 18.609375 16.890625 22.84375 11.734375 
Q 27.09375 6.59375 36.625 6.59375 
Q 46.09375 6.59375 50.34375 11.734375 
Q 54.59375 16.890625 54.59375 28.609375 
L 54.59375 72.90625 
L 64.5 72.90625 
L 64.5 27.390625 
Q 64.5 13.140625 57.4375 5.859375 
Q 50.390625 -1.421875 36.625 -1.421875 
Q 22.796875 -1.421875 15.734375 5.859375 
Q 8.6875 13.140625 8.6875 27.390625 
z
" id="DejaVuSans-85"/>
      <path d="M 53.515625 70.515625 
L 53.515625 60.890625 
Q 47.90625 63.578125 42.921875 64.890625 
Q 37.9375 66.21875 33.296875 66.21875 
Q 25.25 66.21875 20.875 63.09375 
Q 16.5 59.96875 16.5 54.203125 
Q 16.5 49.359375 19.40625 46.890625 
Q 22.3125 44.4375 30.421875 42.921875 
L 36.375 41.703125 
Q 47.40625 39.59375 52.65625 34.296875 
Q 57.90625 29 57.90625 20.125 
Q 57.90625 9.515625 50.796875 4.046875 
Q 43.703125 -1.421875 29.984375 -1.421875 
Q 24.8125 -1.421875 18.96875 -0.25 
Q 13.140625 0.921875 6.890625 3.21875 
L 6.890625 13.375 
Q 12.890625 10.015625 18.65625 8.296875 
Q 24.421875 6.59375 29.984375 6.59375 
Q 38.421875 6.59375 43.015625 9.90625 
Q 47.609375 13.234375 47.609375 19.390625 
Q 47.609375 24.75 44.3125 27.78125 
Q 41.015625 30.8125 33.5 32.328125 
L 27.484375 33.5 
Q 16.453125 35.6875 11.515625 40.375 
Q 6.59375 45.0625 6.59375 53.421875 
Q 6.59375 63.09375 13.40625 68.65625 
Q 20.21875 74.21875 32.171875 74.21875 
Q 37.3125 74.21875 42.625 73.28125 
Q 47.953125 72.359375 53.515625 70.515625 
z
" id="DejaVuSans-83"/>
      <path d="M 34.1875 63.1875 
L 20.796875 26.90625 
L 47.609375 26.90625 
z
M 28.609375 72.90625 
L 39.796875 72.90625 
L 67.578125 0 
L 57.328125 0 
L 50.6875 18.703125 
L 17.828125 18.703125 
L 11.1875 0 
L 0.78125 0 
z
" id="DejaVuSans-65"/>
     </defs>
     <g style="fill:#262626;" transform="translate(756.61125 57.750156)scale(0.11 -0.11)">
      <use xlink:href="#DejaVuSans-85"/>
      <use x="73.193359" xlink:href="#DejaVuSans-83"/>
      <use x="136.685547" xlink:href="#DejaVuSans-65"/>
     </g>
    </g>
    <g id="line2d_83">
     <path d="M 725.81125 70.046094 
L 747.81125 70.046094 
" style="fill:none;stroke:#b2df8a;stroke-linecap:round;stroke-width:1.5;"/>
    </g>
    <g id="line2d_84"/>
    <g id="text_57">
     <!-- Australia -->
     <g style="fill:#262626;" transform="translate(756.61125 73.896094)scale(0.11 -0.11)">
      <use xlink:href="#DejaVuSans-65"/>
      <use x="68.408203" xlink:href="#DejaVuSans-117"/>
      <use x="131.787109" xlink:href="#DejaVuSans-115"/>
      <use x="183.886719" xlink:href="#DejaVuSans-116"/>
      <use x="223.095703" xlink:href="#DejaVuSans-114"/>
      <use x="264.208984" xlink:href="#DejaVuSans-97"/>
      <use x="325.488281" xlink:href="#DejaVuSans-108"/>
      <use x="353.271484" xlink:href="#DejaVuSans-105"/>
      <use x="381.054688" xlink:href="#DejaVuSans-97"/>
     </g>
    </g>
    <g id="line2d_85">
     <path d="M 725.81125 86.192031 
L 747.81125 86.192031 
" style="fill:none;stroke:#33a02c;stroke-linecap:round;stroke-width:1.5;"/>
    </g>
    <g id="line2d_86"/>
    <g id="text_58">
     <!-- Japan -->
     <defs>
      <path d="M 9.8125 72.90625 
L 19.671875 72.90625 
L 19.671875 5.078125 
Q 19.671875 -8.109375 14.671875 -14.0625 
Q 9.671875 -20.015625 -1.421875 -20.015625 
L -5.171875 -20.015625 
L -5.171875 -11.71875 
L -2.09375 -11.71875 
Q 4.4375 -11.71875 7.125 -8.046875 
Q 9.8125 -4.390625 9.8125 5.078125 
z
" id="DejaVuSans-74"/>
      <path d="M 18.109375 8.203125 
L 18.109375 -20.796875 
L 9.078125 -20.796875 
L 9.078125 54.6875 
L 18.109375 54.6875 
L 18.109375 46.390625 
Q 20.953125 51.265625 25.265625 53.625 
Q 29.59375 56 35.59375 56 
Q 45.5625 56 51.78125 48.09375 
Q 58.015625 40.1875 58.015625 27.296875 
Q 58.015625 14.40625 51.78125 6.484375 
Q 45.5625 -1.421875 35.59375 -1.421875 
Q 29.59375 -1.421875 25.265625 0.953125 
Q 20.953125 3.328125 18.109375 8.203125 
z
M 48.6875 27.296875 
Q 48.6875 37.203125 44.609375 42.84375 
Q 40.53125 48.484375 33.40625 48.484375 
Q 26.265625 48.484375 22.1875 42.84375 
Q 18.109375 37.203125 18.109375 27.296875 
Q 18.109375 17.390625 22.1875 11.75 
Q 26.265625 6.109375 33.40625 6.109375 
Q 40.53125 6.109375 44.609375 11.75 
Q 48.6875 17.390625 48.6875 27.296875 
z
" id="DejaVuSans-112"/>
     </defs>
     <g style="fill:#262626;" transform="translate(756.61125 90.042031)scale(0.11 -0.11)">
      <use xlink:href="#DejaVuSans-74"/>
      <use x="29.492188" xlink:href="#DejaVuSans-97"/>
      <use x="90.771484" xlink:href="#DejaVuSans-112"/>
      <use x="154.248047" xlink:href="#DejaVuSans-97"/>
      <use x="215.527344" xlink:href="#DejaVuSans-110"/>
     </g>
    </g>
    <g id="line2d_87">
     <path d="M 725.81125 102.337969 
L 747.81125 102.337969 
" style="fill:none;stroke:#fb9a99;stroke-linecap:round;stroke-width:1.5;"/>
    </g>
    <g id="line2d_88"/>
    <g id="text_59">
     <!-- Germany -->
     <defs>
      <path d="M 59.515625 10.40625 
L 59.515625 29.984375 
L 43.40625 29.984375 
L 43.40625 38.09375 
L 69.28125 38.09375 
L 69.28125 6.78125 
Q 63.578125 2.734375 56.6875 0.65625 
Q 49.8125 -1.421875 42 -1.421875 
Q 24.90625 -1.421875 15.25 8.5625 
Q 5.609375 18.5625 5.609375 36.375 
Q 5.609375 54.25 15.25 64.234375 
Q 24.90625 74.21875 42 74.21875 
Q 49.125 74.21875 55.546875 72.453125 
Q 61.96875 70.703125 67.390625 67.28125 
L 67.390625 56.78125 
Q 61.921875 61.421875 55.765625 63.765625 
Q 49.609375 66.109375 42.828125 66.109375 
Q 29.4375 66.109375 22.71875 58.640625 
Q 16.015625 51.171875 16.015625 36.375 
Q 16.015625 21.625 22.71875 14.15625 
Q 29.4375 6.6875 42.828125 6.6875 
Q 48.046875 6.6875 52.140625 7.59375 
Q 56.25 8.5 59.515625 10.40625 
z
" id="DejaVuSans-71"/>
      <path d="M 52 44.1875 
Q 55.375 50.25 60.0625 53.125 
Q 64.75 56 71.09375 56 
Q 79.640625 56 84.28125 50.015625 
Q 88.921875 44.046875 88.921875 33.015625 
L 88.921875 0 
L 79.890625 0 
L 79.890625 32.71875 
Q 79.890625 40.578125 77.09375 44.375 
Q 74.3125 48.1875 68.609375 48.1875 
Q 61.625 48.1875 57.5625 43.546875 
Q 53.515625 38.921875 53.515625 30.90625 
L 53.515625 0 
L 44.484375 0 
L 44.484375 32.71875 
Q 44.484375 40.625 41.703125 44.40625 
Q 38.921875 48.1875 33.109375 48.1875 
Q 26.21875 48.1875 22.15625 43.53125 
Q 18.109375 38.875 18.109375 30.90625 
L 18.109375 0 
L 9.078125 0 
L 9.078125 54.6875 
L 18.109375 54.6875 
L 18.109375 46.1875 
Q 21.1875 51.21875 25.484375 53.609375 
Q 29.78125 56 35.6875 56 
Q 41.65625 56 45.828125 52.96875 
Q 50 49.953125 52 44.1875 
z
" id="DejaVuSans-109"/>
     </defs>
     <g style="fill:#262626;" transform="translate(756.61125 106.187969)scale(0.11 -0.11)">
      <use xlink:href="#DejaVuSans-71"/>
      <use x="77.490234" xlink:href="#DejaVuSans-101"/>
      <use x="139.013672" xlink:href="#DejaVuSans-114"/>
      <use x="180.111328" xlink:href="#DejaVuSans-109"/>
      <use x="277.523438" xlink:href="#DejaVuSans-97"/>
      <use x="338.802734" xlink:href="#DejaVuSans-110"/>
      <use x="402.181641" xlink:href="#DejaVuSans-121"/>
     </g>
    </g>
    <g id="line2d_89">
     <path d="M 725.81125 118.483906 
L 747.81125 118.483906 
" style="fill:none;stroke:#e31a1c;stroke-linecap:round;stroke-width:1.5;"/>
    </g>
    <g id="line2d_90"/>
    <g id="text_60">
     <!-- UK -->
     <defs>
      <path d="M 9.8125 72.90625 
L 19.671875 72.90625 
L 19.671875 42.09375 
L 52.390625 72.90625 
L 65.09375 72.90625 
L 28.90625 38.921875 
L 67.671875 0 
L 54.6875 0 
L 19.671875 35.109375 
L 19.671875 0 
L 9.8125 0 
z
" id="DejaVuSans-75"/>
     </defs>
     <g style="fill:#262626;" transform="translate(756.61125 122.333906)scale(0.11 -0.11)">
      <use xlink:href="#DejaVuSans-85"/>
      <use x="73.193359" xlink:href="#DejaVuSans-75"/>
     </g>
    </g>
    <g id="line2d_91">
     <path d="M 725.81125 134.629844 
L 747.81125 134.629844 
" style="fill:none;stroke:#fdbf6f;stroke-linecap:round;stroke-width:1.5;"/>
    </g>
    <g id="line2d_92"/>
    <g id="text_61">
     <!-- France -->
     <defs>
      <path d="M 9.8125 72.90625 
L 51.703125 72.90625 
L 51.703125 64.59375 
L 19.671875 64.59375 
L 19.671875 43.109375 
L 48.578125 43.109375 
L 48.578125 34.8125 
L 19.671875 34.8125 
L 19.671875 0 
L 9.8125 0 
z
" id="DejaVuSans-70"/>
     </defs>
     <g style="fill:#262626;" transform="translate(756.61125 138.479844)scale(0.11 -0.11)">
      <use xlink:href="#DejaVuSans-70"/>
      <use x="57.410156" xlink:href="#DejaVuSans-114"/>
      <use x="98.523438" xlink:href="#DejaVuSans-97"/>
      <use x="159.802734" xlink:href="#DejaVuSans-110"/>
      <use x="223.181641" xlink:href="#DejaVuSans-99"/>
      <use x="278.162109" xlink:href="#DejaVuSans-101"/>
     </g>
    </g>
    <g id="line2d_93">
     <path d="M 725.81125 150.775781 
L 747.81125 150.775781 
" style="fill:none;stroke:#ff7f00;stroke-linecap:round;stroke-width:1.5;"/>
    </g>
    <g id="line2d_94"/>
    <g id="text_62">
     <!-- Italy -->
     <defs>
      <path d="M 9.8125 72.90625 
L 19.671875 72.90625 
L 19.671875 0 
L 9.8125 0 
z
" id="DejaVuSans-73"/>
     </defs>
     <g style="fill:#262626;" transform="translate(756.61125 154.625781)scale(0.11 -0.11)">
      <use xlink:href="#DejaVuSans-73"/>
      <use x="29.492188" xlink:href="#DejaVuSans-116"/>
      <use x="68.701172" xlink:href="#DejaVuSans-97"/>
      <use x="129.980469" xlink:href="#DejaVuSans-108"/>
      <use x="157.763672" xlink:href="#DejaVuSans-121"/>
     </g>
    </g>
    <g id="line2d_95">
     <path d="M 725.81125 166.921719 
L 747.81125 166.921719 
" style="fill:none;stroke:#cab2d6;stroke-linecap:round;stroke-width:1.5;"/>
    </g>
    <g id="line2d_96"/>
    <g id="text_63">
     <!-- Spain -->
     <g style="fill:#262626;" transform="translate(756.61125 170.771719)scale(0.11 -0.11)">
      <use xlink:href="#DejaVuSans-83"/>
      <use x="63.476562" xlink:href="#DejaVuSans-112"/>
      <use x="126.953125" xlink:href="#DejaVuSans-97"/>
      <use x="188.232422" xlink:href="#DejaVuSans-105"/>
      <use x="216.015625" xlink:href="#DejaVuSans-110"/>
     </g>
    </g>
    <g id="line2d_97">
     <path d="M 725.81125 183.067656 
L 747.81125 183.067656 
" style="fill:none;stroke:#6a3d9a;stroke-linecap:round;stroke-width:1.5;"/>
    </g>
    <g id="line2d_98"/>
    <g id="text_64">
     <!-- Norway -->
     <defs>
      <path d="M 9.8125 72.90625 
L 23.09375 72.90625 
L 55.421875 11.921875 
L 55.421875 72.90625 
L 64.984375 72.90625 
L 64.984375 0 
L 51.703125 0 
L 19.390625 60.984375 
L 19.390625 0 
L 9.8125 0 
z
" id="DejaVuSans-78"/>
      <path d="M 4.203125 54.6875 
L 13.1875 54.6875 
L 24.421875 12.015625 
L 35.59375 54.6875 
L 46.1875 54.6875 
L 57.421875 12.015625 
L 68.609375 54.6875 
L 77.59375 54.6875 
L 63.28125 0 
L 52.6875 0 
L 40.921875 44.828125 
L 29.109375 0 
L 18.5 0 
z
" id="DejaVuSans-119"/>
     </defs>
     <g style="fill:#262626;" transform="translate(756.61125 186.917656)scale(0.11 -0.11)">
      <use xlink:href="#DejaVuSans-78"/>
      <use x="74.804688" xlink:href="#DejaVuSans-111"/>
      <use x="135.986328" xlink:href="#DejaVuSans-114"/>
      <use x="177.099609" xlink:href="#DejaVuSans-119"/>
      <use x="258.886719" xlink:href="#DejaVuSans-97"/>
      <use x="320.166016" xlink:href="#DejaVuSans-121"/>
     </g>
    </g>
    <g id="line2d_99">
     <path d="M 725.81125 199.213594 
L 747.81125 199.213594 
" style="fill:none;stroke:#ffff99;stroke-linecap:round;stroke-width:1.5;"/>
    </g>
    <g id="line2d_100"/>
    <g id="text_65">
     <!-- Sweden -->
     <defs>
      <path d="M 45.40625 46.390625 
L 45.40625 75.984375 
L 54.390625 75.984375 
L 54.390625 0 
L 45.40625 0 
L 45.40625 8.203125 
Q 42.578125 3.328125 38.25 0.953125 
Q 33.9375 -1.421875 27.875 -1.421875 
Q 17.96875 -1.421875 11.734375 6.484375 
Q 5.515625 14.40625 5.515625 27.296875 
Q 5.515625 40.1875 11.734375 48.09375 
Q 17.96875 56 27.875 56 
Q 33.9375 56 38.25 53.625 
Q 42.578125 51.265625 45.40625 46.390625 
z
M 14.796875 27.296875 
Q 14.796875 17.390625 18.875 11.75 
Q 22.953125 6.109375 30.078125 6.109375 
Q 37.203125 6.109375 41.296875 11.75 
Q 45.40625 17.390625 45.40625 27.296875 
Q 45.40625 37.203125 41.296875 42.84375 
Q 37.203125 48.484375 30.078125 48.484375 
Q 22.953125 48.484375 18.875 42.84375 
Q 14.796875 37.203125 14.796875 27.296875 
z
" id="DejaVuSans-100"/>
     </defs>
     <g style="fill:#262626;" transform="translate(756.61125 203.063594)scale(0.11 -0.11)">
      <use xlink:href="#DejaVuSans-83"/>
      <use x="63.476562" xlink:href="#DejaVuSans-119"/>
      <use x="145.263672" xlink:href="#DejaVuSans-101"/>
      <use x="206.787109" xlink:href="#DejaVuSans-100"/>
      <use x="270.263672" xlink:href="#DejaVuSans-101"/>
      <use x="331.787109" xlink:href="#DejaVuSans-110"/>
     </g>
    </g>
    <g id="line2d_101">
     <path d="M 725.81125 215.359531 
L 747.81125 215.359531 
" style="fill:none;stroke:#b15928;stroke-linecap:round;stroke-width:1.5;"/>
    </g>
    <g id="line2d_102"/>
    <g id="text_66">
     <!-- Finland -->
     <g style="fill:#262626;" transform="translate(756.61125 219.209531)scale(0.11 -0.11)">
      <use xlink:href="#DejaVuSans-70"/>
      <use x="57.410156" xlink:href="#DejaVuSans-105"/>
      <use x="85.193359" xlink:href="#DejaVuSans-110"/>
      <use x="148.572266" xlink:href="#DejaVuSans-108"/>
      <use x="176.355469" xlink:href="#DejaVuSans-97"/>
      <use x="237.634766" xlink:href="#DejaVuSans-110"/>
      <use x="301.013672" xlink:href="#DejaVuSans-100"/>
     </g>
    </g>
   </g>
  </g>
 </g>
 <defs>
  <clipPath id="p6e8cd2e912">
   <rect height="277.2" width="669.6" x="46.31125" y="7.2"/>
  </clipPath>
 </defs>
</svg>
