<?xml version="1.0" encoding="utf-8" standalone="no"?>
<!DOCTYPE svg PUBLIC "-//W3C//DTD SVG 1.1//EN"
  "http://www.w3.org/Graphics/SVG/1.1/DTD/svg11.dtd">
<!-- Created with matplotlib (https://matplotlib.org/) -->
<svg height="380.640937pt" version="1.1" viewBox="0 0 818.960781 380.640937" width="818.960781pt" xmlns="http://www.w3.org/2000/svg" xmlns:xlink="http://www.w3.org/1999/xlink">
 <defs>
  <style type="text/css">
*{stroke-linecap:butt;stroke-linejoin:round;}
  </style>
 </defs>
 <g id="figure_1">
  <g id="patch_1">
   <path d="M 0 380.640937 
L 818.960781 380.640937 
L 818.960781 0 
L 0 0 
z
" style="fill:#ffffff;"/>
  </g>
  <g id="axes_1">
   <g id="patch_2">
    <path d="M 46.31125 284.4 
L 715.91125 284.4 
L 715.91125 7.2 
L 46.31125 7.2 
z
" style="fill:#eaeaf2;"/>
   </g>
   <g id="matplotlib.axis_1">
    <g id="xtick_1">
     <g id="line2d_1">
      <path clip-path="url(#p99c1003b3f)" d="M 76.747614 284.4 
L 76.747614 7.2 
" style="fill:none;stroke:#ffffff;stroke-linecap:round;"/>
     </g>
     <g id="text_1">
      <!-- 2020-03-15 -->
      <defs>
       <path d="M 19.1875 8.296875 
L 53.609375 8.296875 
L 53.609375 0 
L 7.328125 0 
L 7.328125 8.296875 
Q 12.9375 14.109375 22.625 23.890625 
Q 32.328125 33.6875 34.8125 36.53125 
Q 39.546875 41.84375 41.421875 45.53125 
Q 43.3125 49.21875 43.3125 52.78125 
Q 43.3125 58.59375 39.234375 62.25 
Q 35.15625 65.921875 28.609375 65.921875 
Q 23.96875 65.921875 18.8125 64.3125 
Q 13.671875 62.703125 7.8125 59.421875 
L 7.8125 69.390625 
Q 13.765625 71.78125 18.9375 73 
Q 24.125 74.21875 28.421875 74.21875 
Q 39.75 74.21875 46.484375 68.546875 
Q 53.21875 62.890625 53.21875 53.421875 
Q 53.21875 48.921875 51.53125 44.890625 
Q 49.859375 40.875 45.40625 35.40625 
Q 44.1875 33.984375 37.640625 27.21875 
Q 31.109375 20.453125 19.1875 8.296875 
z
" id="DejaVuSans-50"/>
       <path d="M 31.78125 66.40625 
Q 24.171875 66.40625 20.328125 58.90625 
Q 16.5 51.421875 16.5 36.375 
Q 16.5 21.390625 20.328125 13.890625 
Q 24.171875 6.390625 31.78125 6.390625 
Q 39.453125 6.390625 43.28125 13.890625 
Q 47.125 21.390625 47.125 36.375 
Q 47.125 51.421875 43.28125 58.90625 
Q 39.453125 66.40625 31.78125 66.40625 
z
M 31.78125 74.21875 
Q 44.046875 74.21875 50.515625 64.515625 
Q 56.984375 54.828125 56.984375 36.375 
Q 56.984375 17.96875 50.515625 8.265625 
Q 44.046875 -1.421875 31.78125 -1.421875 
Q 19.53125 -1.421875 13.0625 8.265625 
Q 6.59375 17.96875 6.59375 36.375 
Q 6.59375 54.828125 13.0625 64.515625 
Q 19.53125 74.21875 31.78125 74.21875 
z
" id="DejaVuSans-48"/>
       <path d="M 4.890625 31.390625 
L 31.203125 31.390625 
L 31.203125 23.390625 
L 4.890625 23.390625 
z
" id="DejaVuSans-45"/>
       <path d="M 40.578125 39.3125 
Q 47.65625 37.796875 51.625 33 
Q 55.609375 28.21875 55.609375 21.1875 
Q 55.609375 10.40625 48.1875 4.484375 
Q 40.765625 -1.421875 27.09375 -1.421875 
Q 22.515625 -1.421875 17.65625 -0.515625 
Q 12.796875 0.390625 7.625 2.203125 
L 7.625 11.71875 
Q 11.71875 9.328125 16.59375 8.109375 
Q 21.484375 6.890625 26.8125 6.890625 
Q 36.078125 6.890625 40.9375 10.546875 
Q 45.796875 14.203125 45.796875 21.1875 
Q 45.796875 27.640625 41.28125 31.265625 
Q 36.765625 34.90625 28.71875 34.90625 
L 20.21875 34.90625 
L 20.21875 43.015625 
L 29.109375 43.015625 
Q 36.375 43.015625 40.234375 45.921875 
Q 44.09375 48.828125 44.09375 54.296875 
Q 44.09375 59.90625 40.109375 62.90625 
Q 36.140625 65.921875 28.71875 65.921875 
Q 24.65625 65.921875 20.015625 65.03125 
Q 15.375 64.15625 9.8125 62.3125 
L 9.8125 71.09375 
Q 15.4375 72.65625 20.34375 73.4375 
Q 25.25 74.21875 29.59375 74.21875 
Q 40.828125 74.21875 47.359375 69.109375 
Q 53.90625 64.015625 53.90625 55.328125 
Q 53.90625 49.265625 50.4375 45.09375 
Q 46.96875 40.921875 40.578125 39.3125 
z
" id="DejaVuSans-51"/>
       <path d="M 12.40625 8.296875 
L 28.515625 8.296875 
L 28.515625 63.921875 
L 10.984375 60.40625 
L 10.984375 69.390625 
L 28.421875 72.90625 
L 38.28125 72.90625 
L 38.28125 8.296875 
L 54.390625 8.296875 
L 54.390625 0 
L 12.40625 0 
z
" id="DejaVuSans-49"/>
       <path d="M 10.796875 72.90625 
L 49.515625 72.90625 
L 49.515625 64.59375 
L 19.828125 64.59375 
L 19.828125 46.734375 
Q 21.96875 47.46875 24.109375 47.828125 
Q 26.265625 48.1875 28.421875 48.1875 
Q 40.625 48.1875 47.75 41.5 
Q 54.890625 34.8125 54.890625 23.390625 
Q 54.890625 11.625 47.5625 5.09375 
Q 40.234375 -1.421875 26.90625 -1.421875 
Q 22.3125 -1.421875 17.546875 -0.640625 
Q 12.796875 0.140625 7.71875 1.703125 
L 7.71875 11.625 
Q 12.109375 9.234375 16.796875 8.0625 
Q 21.484375 6.890625 26.703125 6.890625 
Q 35.15625 6.890625 40.078125 11.328125 
Q 45.015625 15.765625 45.015625 23.390625 
Q 45.015625 31 40.078125 35.4375 
Q 35.15625 39.890625 26.703125 39.890625 
Q 22.75 39.890625 18.8125 39.015625 
Q 14.890625 38.140625 10.796875 36.28125 
z
" id="DejaVuSans-53"/>
      </defs>
      <g style="fill:#262626;" transform="translate(74.459957 357.827187)rotate(-90)scale(0.11 -0.11)">
       <use xlink:href="#DejaVuSans-50"/>
       <use x="63.623047" xlink:href="#DejaVuSans-48"/>
       <use x="127.246094" xlink:href="#DejaVuSans-50"/>
       <use x="190.869141" xlink:href="#DejaVuSans-48"/>
       <use x="254.492188" xlink:href="#DejaVuSans-45"/>
       <use x="290.576172" xlink:href="#DejaVuSans-48"/>
       <use x="354.199219" xlink:href="#DejaVuSans-51"/>
       <use x="417.822266" xlink:href="#DejaVuSans-45"/>
       <use x="453.90625" xlink:href="#DejaVuSans-49"/>
       <use x="517.529297" xlink:href="#DejaVuSans-53"/>
      </g>
     </g>
    </g>
    <g id="xtick_2">
     <g id="line2d_2">
      <path clip-path="url(#p99c1003b3f)" d="M 90.274886 284.4 
L 90.274886 7.2 
" style="fill:none;stroke:#ffffff;stroke-linecap:round;"/>
     </g>
     <g id="text_2">
      <!-- 2020-03-16 -->
      <defs>
       <path d="M 33.015625 40.375 
Q 26.375 40.375 22.484375 35.828125 
Q 18.609375 31.296875 18.609375 23.390625 
Q 18.609375 15.53125 22.484375 10.953125 
Q 26.375 6.390625 33.015625 6.390625 
Q 39.65625 6.390625 43.53125 10.953125 
Q 47.40625 15.53125 47.40625 23.390625 
Q 47.40625 31.296875 43.53125 35.828125 
Q 39.65625 40.375 33.015625 40.375 
z
M 52.59375 71.296875 
L 52.59375 62.3125 
Q 48.875 64.0625 45.09375 64.984375 
Q 41.3125 65.921875 37.59375 65.921875 
Q 27.828125 65.921875 22.671875 59.328125 
Q 17.53125 52.734375 16.796875 39.40625 
Q 19.671875 43.65625 24.015625 45.921875 
Q 28.375 48.1875 33.59375 48.1875 
Q 44.578125 48.1875 50.953125 41.515625 
Q 57.328125 34.859375 57.328125 23.390625 
Q 57.328125 12.15625 50.6875 5.359375 
Q 44.046875 -1.421875 33.015625 -1.421875 
Q 20.359375 -1.421875 13.671875 8.265625 
Q 6.984375 17.96875 6.984375 36.375 
Q 6.984375 53.65625 15.1875 63.9375 
Q 23.390625 74.21875 37.203125 74.21875 
Q 40.921875 74.21875 44.703125 73.484375 
Q 48.484375 72.75 52.59375 71.296875 
z
" id="DejaVuSans-54"/>
      </defs>
      <g style="fill:#262626;" transform="translate(87.98723 357.827187)rotate(-90)scale(0.11 -0.11)">
       <use xlink:href="#DejaVuSans-50"/>
       <use x="63.623047" xlink:href="#DejaVuSans-48"/>
       <use x="127.246094" xlink:href="#DejaVuSans-50"/>
       <use x="190.869141" xlink:href="#DejaVuSans-48"/>
       <use x="254.492188" xlink:href="#DejaVuSans-45"/>
       <use x="290.576172" xlink:href="#DejaVuSans-48"/>
       <use x="354.199219" xlink:href="#DejaVuSans-51"/>
       <use x="417.822266" xlink:href="#DejaVuSans-45"/>
       <use x="453.90625" xlink:href="#DejaVuSans-49"/>
       <use x="517.529297" xlink:href="#DejaVuSans-54"/>
      </g>
     </g>
    </g>
    <g id="xtick_3">
     <g id="line2d_3">
      <path clip-path="url(#p99c1003b3f)" d="M 103.802159 284.4 
L 103.802159 7.2 
" style="fill:none;stroke:#ffffff;stroke-linecap:round;"/>
     </g>
     <g id="text_3">
      <!-- 2020-03-17 -->
      <defs>
       <path d="M 8.203125 72.90625 
L 55.078125 72.90625 
L 55.078125 68.703125 
L 28.609375 0 
L 18.3125 0 
L 43.21875 64.59375 
L 8.203125 64.59375 
z
" id="DejaVuSans-55"/>
      </defs>
      <g style="fill:#262626;" transform="translate(101.514503 357.827187)rotate(-90)scale(0.11 -0.11)">
       <use xlink:href="#DejaVuSans-50"/>
       <use x="63.623047" xlink:href="#DejaVuSans-48"/>
       <use x="127.246094" xlink:href="#DejaVuSans-50"/>
       <use x="190.869141" xlink:href="#DejaVuSans-48"/>
       <use x="254.492188" xlink:href="#DejaVuSans-45"/>
       <use x="290.576172" xlink:href="#DejaVuSans-48"/>
       <use x="354.199219" xlink:href="#DejaVuSans-51"/>
       <use x="417.822266" xlink:href="#DejaVuSans-45"/>
       <use x="453.90625" xlink:href="#DejaVuSans-49"/>
       <use x="517.529297" xlink:href="#DejaVuSans-55"/>
      </g>
     </g>
    </g>
    <g id="xtick_4">
     <g id="line2d_4">
      <path clip-path="url(#p99c1003b3f)" d="M 117.329432 284.4 
L 117.329432 7.2 
" style="fill:none;stroke:#ffffff;stroke-linecap:round;"/>
     </g>
     <g id="text_4">
      <!-- 2020-03-18 -->
      <defs>
       <path d="M 31.78125 34.625 
Q 24.75 34.625 20.71875 30.859375 
Q 16.703125 27.09375 16.703125 20.515625 
Q 16.703125 13.921875 20.71875 10.15625 
Q 24.75 6.390625 31.78125 6.390625 
Q 38.8125 6.390625 42.859375 10.171875 
Q 46.921875 13.96875 46.921875 20.515625 
Q 46.921875 27.09375 42.890625 30.859375 
Q 38.875 34.625 31.78125 34.625 
z
M 21.921875 38.8125 
Q 15.578125 40.375 12.03125 44.71875 
Q 8.5 49.078125 8.5 55.328125 
Q 8.5 64.0625 14.71875 69.140625 
Q 20.953125 74.21875 31.78125 74.21875 
Q 42.671875 74.21875 48.875 69.140625 
Q 55.078125 64.0625 55.078125 55.328125 
Q 55.078125 49.078125 51.53125 44.71875 
Q 48 40.375 41.703125 38.8125 
Q 48.828125 37.15625 52.796875 32.3125 
Q 56.78125 27.484375 56.78125 20.515625 
Q 56.78125 9.90625 50.3125 4.234375 
Q 43.84375 -1.421875 31.78125 -1.421875 
Q 19.734375 -1.421875 13.25 4.234375 
Q 6.78125 9.90625 6.78125 20.515625 
Q 6.78125 27.484375 10.78125 32.3125 
Q 14.796875 37.15625 21.921875 38.8125 
z
M 18.3125 54.390625 
Q 18.3125 48.734375 21.84375 45.5625 
Q 25.390625 42.390625 31.78125 42.390625 
Q 38.140625 42.390625 41.71875 45.5625 
Q 45.3125 48.734375 45.3125 54.390625 
Q 45.3125 60.0625 41.71875 63.234375 
Q 38.140625 66.40625 31.78125 66.40625 
Q 25.390625 66.40625 21.84375 63.234375 
Q 18.3125 60.0625 18.3125 54.390625 
z
" id="DejaVuSans-56"/>
      </defs>
      <g style="fill:#262626;" transform="translate(115.041776 357.827187)rotate(-90)scale(0.11 -0.11)">
       <use xlink:href="#DejaVuSans-50"/>
       <use x="63.623047" xlink:href="#DejaVuSans-48"/>
       <use x="127.246094" xlink:href="#DejaVuSans-50"/>
       <use x="190.869141" xlink:href="#DejaVuSans-48"/>
       <use x="254.492188" xlink:href="#DejaVuSans-45"/>
       <use x="290.576172" xlink:href="#DejaVuSans-48"/>
       <use x="354.199219" xlink:href="#DejaVuSans-51"/>
       <use x="417.822266" xlink:href="#DejaVuSans-45"/>
       <use x="453.90625" xlink:href="#DejaVuSans-49"/>
       <use x="517.529297" xlink:href="#DejaVuSans-56"/>
      </g>
     </g>
    </g>
    <g id="xtick_5">
     <g id="line2d_5">
      <path clip-path="url(#p99c1003b3f)" d="M 130.856705 284.4 
L 130.856705 7.2 
" style="fill:none;stroke:#ffffff;stroke-linecap:round;"/>
     </g>
     <g id="text_5">
      <!-- 2020-03-19 -->
      <defs>
       <path d="M 10.984375 1.515625 
L 10.984375 10.5 
Q 14.703125 8.734375 18.5 7.8125 
Q 22.3125 6.890625 25.984375 6.890625 
Q 35.75 6.890625 40.890625 13.453125 
Q 46.046875 20.015625 46.78125 33.40625 
Q 43.953125 29.203125 39.59375 26.953125 
Q 35.25 24.703125 29.984375 24.703125 
Q 19.046875 24.703125 12.671875 31.3125 
Q 6.296875 37.9375 6.296875 49.421875 
Q 6.296875 60.640625 12.9375 67.421875 
Q 19.578125 74.21875 30.609375 74.21875 
Q 43.265625 74.21875 49.921875 64.515625 
Q 56.59375 54.828125 56.59375 36.375 
Q 56.59375 19.140625 48.40625 8.859375 
Q 40.234375 -1.421875 26.421875 -1.421875 
Q 22.703125 -1.421875 18.890625 -0.6875 
Q 15.09375 0.046875 10.984375 1.515625 
z
M 30.609375 32.421875 
Q 37.25 32.421875 41.125 36.953125 
Q 45.015625 41.5 45.015625 49.421875 
Q 45.015625 57.28125 41.125 61.84375 
Q 37.25 66.40625 30.609375 66.40625 
Q 23.96875 66.40625 20.09375 61.84375 
Q 16.21875 57.28125 16.21875 49.421875 
Q 16.21875 41.5 20.09375 36.953125 
Q 23.96875 32.421875 30.609375 32.421875 
z
" id="DejaVuSans-57"/>
      </defs>
      <g style="fill:#262626;" transform="translate(128.569048 357.827187)rotate(-90)scale(0.11 -0.11)">
       <use xlink:href="#DejaVuSans-50"/>
       <use x="63.623047" xlink:href="#DejaVuSans-48"/>
       <use x="127.246094" xlink:href="#DejaVuSans-50"/>
       <use x="190.869141" xlink:href="#DejaVuSans-48"/>
       <use x="254.492188" xlink:href="#DejaVuSans-45"/>
       <use x="290.576172" xlink:href="#DejaVuSans-48"/>
       <use x="354.199219" xlink:href="#DejaVuSans-51"/>
       <use x="417.822266" xlink:href="#DejaVuSans-45"/>
       <use x="453.90625" xlink:href="#DejaVuSans-49"/>
       <use x="517.529297" xlink:href="#DejaVuSans-57"/>
      </g>
     </g>
    </g>
    <g id="xtick_6">
     <g id="line2d_6">
      <path clip-path="url(#p99c1003b3f)" d="M 144.383977 284.4 
L 144.383977 7.2 
" style="fill:none;stroke:#ffffff;stroke-linecap:round;"/>
     </g>
     <g id="text_6">
      <!-- 2020-03-20 -->
      <g style="fill:#262626;" transform="translate(142.096321 357.827187)rotate(-90)scale(0.11 -0.11)">
       <use xlink:href="#DejaVuSans-50"/>
       <use x="63.623047" xlink:href="#DejaVuSans-48"/>
       <use x="127.246094" xlink:href="#DejaVuSans-50"/>
       <use x="190.869141" xlink:href="#DejaVuSans-48"/>
       <use x="254.492188" xlink:href="#DejaVuSans-45"/>
       <use x="290.576172" xlink:href="#DejaVuSans-48"/>
       <use x="354.199219" xlink:href="#DejaVuSans-51"/>
       <use x="417.822266" xlink:href="#DejaVuSans-45"/>
       <use x="453.90625" xlink:href="#DejaVuSans-50"/>
       <use x="517.529297" xlink:href="#DejaVuSans-48"/>
      </g>
     </g>
    </g>
    <g id="xtick_7">
     <g id="line2d_7">
      <path clip-path="url(#p99c1003b3f)" d="M 157.91125 284.4 
L 157.91125 7.2 
" style="fill:none;stroke:#ffffff;stroke-linecap:round;"/>
     </g>
     <g id="text_7">
      <!-- 2020-03-21 -->
      <g style="fill:#262626;" transform="translate(155.623594 357.827187)rotate(-90)scale(0.11 -0.11)">
       <use xlink:href="#DejaVuSans-50"/>
       <use x="63.623047" xlink:href="#DejaVuSans-48"/>
       <use x="127.246094" xlink:href="#DejaVuSans-50"/>
       <use x="190.869141" xlink:href="#DejaVuSans-48"/>
       <use x="254.492188" xlink:href="#DejaVuSans-45"/>
       <use x="290.576172" xlink:href="#DejaVuSans-48"/>
       <use x="354.199219" xlink:href="#DejaVuSans-51"/>
       <use x="417.822266" xlink:href="#DejaVuSans-45"/>
       <use x="453.90625" xlink:href="#DejaVuSans-50"/>
       <use x="517.529297" xlink:href="#DejaVuSans-49"/>
      </g>
     </g>
    </g>
    <g id="xtick_8">
     <g id="line2d_8">
      <path clip-path="url(#p99c1003b3f)" d="M 171.438523 284.4 
L 171.438523 7.2 
" style="fill:none;stroke:#ffffff;stroke-linecap:round;"/>
     </g>
     <g id="text_8">
      <!-- 2020-03-22 -->
      <g style="fill:#262626;" transform="translate(169.150866 357.827187)rotate(-90)scale(0.11 -0.11)">
       <use xlink:href="#DejaVuSans-50"/>
       <use x="63.623047" xlink:href="#DejaVuSans-48"/>
       <use x="127.246094" xlink:href="#DejaVuSans-50"/>
       <use x="190.869141" xlink:href="#DejaVuSans-48"/>
       <use x="254.492188" xlink:href="#DejaVuSans-45"/>
       <use x="290.576172" xlink:href="#DejaVuSans-48"/>
       <use x="354.199219" xlink:href="#DejaVuSans-51"/>
       <use x="417.822266" xlink:href="#DejaVuSans-45"/>
       <use x="453.90625" xlink:href="#DejaVuSans-50"/>
       <use x="517.529297" xlink:href="#DejaVuSans-50"/>
      </g>
     </g>
    </g>
    <g id="xtick_9">
     <g id="line2d_9">
      <path clip-path="url(#p99c1003b3f)" d="M 184.965795 284.4 
L 184.965795 7.2 
" style="fill:none;stroke:#ffffff;stroke-linecap:round;"/>
     </g>
     <g id="text_9">
      <!-- 2020-03-23 -->
      <g style="fill:#262626;" transform="translate(182.678139 357.827187)rotate(-90)scale(0.11 -0.11)">
       <use xlink:href="#DejaVuSans-50"/>
       <use x="63.623047" xlink:href="#DejaVuSans-48"/>
       <use x="127.246094" xlink:href="#DejaVuSans-50"/>
       <use x="190.869141" xlink:href="#DejaVuSans-48"/>
       <use x="254.492188" xlink:href="#DejaVuSans-45"/>
       <use x="290.576172" xlink:href="#DejaVuSans-48"/>
       <use x="354.199219" xlink:href="#DejaVuSans-51"/>
       <use x="417.822266" xlink:href="#DejaVuSans-45"/>
       <use x="453.90625" xlink:href="#DejaVuSans-50"/>
       <use x="517.529297" xlink:href="#DejaVuSans-51"/>
      </g>
     </g>
    </g>
    <g id="xtick_10">
     <g id="line2d_10">
      <path clip-path="url(#p99c1003b3f)" d="M 198.493068 284.4 
L 198.493068 7.2 
" style="fill:none;stroke:#ffffff;stroke-linecap:round;"/>
     </g>
     <g id="text_10">
      <!-- 2020-03-24 -->
      <defs>
       <path d="M 37.796875 64.3125 
L 12.890625 25.390625 
L 37.796875 25.390625 
z
M 35.203125 72.90625 
L 47.609375 72.90625 
L 47.609375 25.390625 
L 58.015625 25.390625 
L 58.015625 17.1875 
L 47.609375 17.1875 
L 47.609375 0 
L 37.796875 0 
L 37.796875 17.1875 
L 4.890625 17.1875 
L 4.890625 26.703125 
z
" id="DejaVuSans-52"/>
      </defs>
      <g style="fill:#262626;" transform="translate(196.205412 357.827187)rotate(-90)scale(0.11 -0.11)">
       <use xlink:href="#DejaVuSans-50"/>
       <use x="63.623047" xlink:href="#DejaVuSans-48"/>
       <use x="127.246094" xlink:href="#DejaVuSans-50"/>
       <use x="190.869141" xlink:href="#DejaVuSans-48"/>
       <use x="254.492188" xlink:href="#DejaVuSans-45"/>
       <use x="290.576172" xlink:href="#DejaVuSans-48"/>
       <use x="354.199219" xlink:href="#DejaVuSans-51"/>
       <use x="417.822266" xlink:href="#DejaVuSans-45"/>
       <use x="453.90625" xlink:href="#DejaVuSans-50"/>
       <use x="517.529297" xlink:href="#DejaVuSans-52"/>
      </g>
     </g>
    </g>
    <g id="xtick_11">
     <g id="line2d_11">
      <path clip-path="url(#p99c1003b3f)" d="M 212.020341 284.4 
L 212.020341 7.2 
" style="fill:none;stroke:#ffffff;stroke-linecap:round;"/>
     </g>
     <g id="text_11">
      <!-- 2020-03-25 -->
      <g style="fill:#262626;" transform="translate(209.732685 357.827187)rotate(-90)scale(0.11 -0.11)">
       <use xlink:href="#DejaVuSans-50"/>
       <use x="63.623047" xlink:href="#DejaVuSans-48"/>
       <use x="127.246094" xlink:href="#DejaVuSans-50"/>
       <use x="190.869141" xlink:href="#DejaVuSans-48"/>
       <use x="254.492188" xlink:href="#DejaVuSans-45"/>
       <use x="290.576172" xlink:href="#DejaVuSans-48"/>
       <use x="354.199219" xlink:href="#DejaVuSans-51"/>
       <use x="417.822266" xlink:href="#DejaVuSans-45"/>
       <use x="453.90625" xlink:href="#DejaVuSans-50"/>
       <use x="517.529297" xlink:href="#DejaVuSans-53"/>
      </g>
     </g>
    </g>
    <g id="xtick_12">
     <g id="line2d_12">
      <path clip-path="url(#p99c1003b3f)" d="M 225.547614 284.4 
L 225.547614 7.2 
" style="fill:none;stroke:#ffffff;stroke-linecap:round;"/>
     </g>
     <g id="text_12">
      <!-- 2020-03-26 -->
      <g style="fill:#262626;" transform="translate(223.259957 357.827187)rotate(-90)scale(0.11 -0.11)">
       <use xlink:href="#DejaVuSans-50"/>
       <use x="63.623047" xlink:href="#DejaVuSans-48"/>
       <use x="127.246094" xlink:href="#DejaVuSans-50"/>
       <use x="190.869141" xlink:href="#DejaVuSans-48"/>
       <use x="254.492188" xlink:href="#DejaVuSans-45"/>
       <use x="290.576172" xlink:href="#DejaVuSans-48"/>
       <use x="354.199219" xlink:href="#DejaVuSans-51"/>
       <use x="417.822266" xlink:href="#DejaVuSans-45"/>
       <use x="453.90625" xlink:href="#DejaVuSans-50"/>
       <use x="517.529297" xlink:href="#DejaVuSans-54"/>
      </g>
     </g>
    </g>
    <g id="xtick_13">
     <g id="line2d_13">
      <path clip-path="url(#p99c1003b3f)" d="M 239.074886 284.4 
L 239.074886 7.2 
" style="fill:none;stroke:#ffffff;stroke-linecap:round;"/>
     </g>
     <g id="text_13">
      <!-- 2020-03-27 -->
      <g style="fill:#262626;" transform="translate(236.78723 357.827187)rotate(-90)scale(0.11 -0.11)">
       <use xlink:href="#DejaVuSans-50"/>
       <use x="63.623047" xlink:href="#DejaVuSans-48"/>
       <use x="127.246094" xlink:href="#DejaVuSans-50"/>
       <use x="190.869141" xlink:href="#DejaVuSans-48"/>
       <use x="254.492188" xlink:href="#DejaVuSans-45"/>
       <use x="290.576172" xlink:href="#DejaVuSans-48"/>
       <use x="354.199219" xlink:href="#DejaVuSans-51"/>
       <use x="417.822266" xlink:href="#DejaVuSans-45"/>
       <use x="453.90625" xlink:href="#DejaVuSans-50"/>
       <use x="517.529297" xlink:href="#DejaVuSans-55"/>
      </g>
     </g>
    </g>
    <g id="xtick_14">
     <g id="line2d_14">
      <path clip-path="url(#p99c1003b3f)" d="M 252.602159 284.4 
L 252.602159 7.2 
" style="fill:none;stroke:#ffffff;stroke-linecap:round;"/>
     </g>
     <g id="text_14">
      <!-- 2020-03-28 -->
      <g style="fill:#262626;" transform="translate(250.314503 357.827187)rotate(-90)scale(0.11 -0.11)">
       <use xlink:href="#DejaVuSans-50"/>
       <use x="63.623047" xlink:href="#DejaVuSans-48"/>
       <use x="127.246094" xlink:href="#DejaVuSans-50"/>
       <use x="190.869141" xlink:href="#DejaVuSans-48"/>
       <use x="254.492188" xlink:href="#DejaVuSans-45"/>
       <use x="290.576172" xlink:href="#DejaVuSans-48"/>
       <use x="354.199219" xlink:href="#DejaVuSans-51"/>
       <use x="417.822266" xlink:href="#DejaVuSans-45"/>
       <use x="453.90625" xlink:href="#DejaVuSans-50"/>
       <use x="517.529297" xlink:href="#DejaVuSans-56"/>
      </g>
     </g>
    </g>
    <g id="xtick_15">
     <g id="line2d_15">
      <path clip-path="url(#p99c1003b3f)" d="M 266.129432 284.4 
L 266.129432 7.2 
" style="fill:none;stroke:#ffffff;stroke-linecap:round;"/>
     </g>
     <g id="text_15">
      <!-- 2020-03-29 -->
      <g style="fill:#262626;" transform="translate(263.841776 357.827187)rotate(-90)scale(0.11 -0.11)">
       <use xlink:href="#DejaVuSans-50"/>
       <use x="63.623047" xlink:href="#DejaVuSans-48"/>
       <use x="127.246094" xlink:href="#DejaVuSans-50"/>
       <use x="190.869141" xlink:href="#DejaVuSans-48"/>
       <use x="254.492188" xlink:href="#DejaVuSans-45"/>
       <use x="290.576172" xlink:href="#DejaVuSans-48"/>
       <use x="354.199219" xlink:href="#DejaVuSans-51"/>
       <use x="417.822266" xlink:href="#DejaVuSans-45"/>
       <use x="453.90625" xlink:href="#DejaVuSans-50"/>
       <use x="517.529297" xlink:href="#DejaVuSans-57"/>
      </g>
     </g>
    </g>
    <g id="xtick_16">
     <g id="line2d_16">
      <path clip-path="url(#p99c1003b3f)" d="M 279.656705 284.4 
L 279.656705 7.2 
" style="fill:none;stroke:#ffffff;stroke-linecap:round;"/>
     </g>
     <g id="text_16">
      <!-- 2020-03-30 -->
      <g style="fill:#262626;" transform="translate(277.369048 357.827187)rotate(-90)scale(0.11 -0.11)">
       <use xlink:href="#DejaVuSans-50"/>
       <use x="63.623047" xlink:href="#DejaVuSans-48"/>
       <use x="127.246094" xlink:href="#DejaVuSans-50"/>
       <use x="190.869141" xlink:href="#DejaVuSans-48"/>
       <use x="254.492188" xlink:href="#DejaVuSans-45"/>
       <use x="290.576172" xlink:href="#DejaVuSans-48"/>
       <use x="354.199219" xlink:href="#DejaVuSans-51"/>
       <use x="417.822266" xlink:href="#DejaVuSans-45"/>
       <use x="453.90625" xlink:href="#DejaVuSans-51"/>
       <use x="517.529297" xlink:href="#DejaVuSans-48"/>
      </g>
     </g>
    </g>
    <g id="xtick_17">
     <g id="line2d_17">
      <path clip-path="url(#p99c1003b3f)" d="M 293.183977 284.4 
L 293.183977 7.2 
" style="fill:none;stroke:#ffffff;stroke-linecap:round;"/>
     </g>
     <g id="text_17">
      <!-- 2020-03-31 -->
      <g style="fill:#262626;" transform="translate(290.896321 357.827187)rotate(-90)scale(0.11 -0.11)">
       <use xlink:href="#DejaVuSans-50"/>
       <use x="63.623047" xlink:href="#DejaVuSans-48"/>
       <use x="127.246094" xlink:href="#DejaVuSans-50"/>
       <use x="190.869141" xlink:href="#DejaVuSans-48"/>
       <use x="254.492188" xlink:href="#DejaVuSans-45"/>
       <use x="290.576172" xlink:href="#DejaVuSans-48"/>
       <use x="354.199219" xlink:href="#DejaVuSans-51"/>
       <use x="417.822266" xlink:href="#DejaVuSans-45"/>
       <use x="453.90625" xlink:href="#DejaVuSans-51"/>
       <use x="517.529297" xlink:href="#DejaVuSans-49"/>
      </g>
     </g>
    </g>
    <g id="xtick_18">
     <g id="line2d_18">
      <path clip-path="url(#p99c1003b3f)" d="M 306.71125 284.4 
L 306.71125 7.2 
" style="fill:none;stroke:#ffffff;stroke-linecap:round;"/>
     </g>
     <g id="text_18">
      <!-- 2020-04-01 -->
      <g style="fill:#262626;" transform="translate(304.423594 357.827187)rotate(-90)scale(0.11 -0.11)">
       <use xlink:href="#DejaVuSans-50"/>
       <use x="63.623047" xlink:href="#DejaVuSans-48"/>
       <use x="127.246094" xlink:href="#DejaVuSans-50"/>
       <use x="190.869141" xlink:href="#DejaVuSans-48"/>
       <use x="254.492188" xlink:href="#DejaVuSans-45"/>
       <use x="290.576172" xlink:href="#DejaVuSans-48"/>
       <use x="354.199219" xlink:href="#DejaVuSans-52"/>
       <use x="417.822266" xlink:href="#DejaVuSans-45"/>
       <use x="453.90625" xlink:href="#DejaVuSans-48"/>
       <use x="517.529297" xlink:href="#DejaVuSans-49"/>
      </g>
     </g>
    </g>
    <g id="xtick_19">
     <g id="line2d_19">
      <path clip-path="url(#p99c1003b3f)" d="M 320.238523 284.4 
L 320.238523 7.2 
" style="fill:none;stroke:#ffffff;stroke-linecap:round;"/>
     </g>
     <g id="text_19">
      <!-- 2020-04-02 -->
      <g style="fill:#262626;" transform="translate(317.950866 357.827187)rotate(-90)scale(0.11 -0.11)">
       <use xlink:href="#DejaVuSans-50"/>
       <use x="63.623047" xlink:href="#DejaVuSans-48"/>
       <use x="127.246094" xlink:href="#DejaVuSans-50"/>
       <use x="190.869141" xlink:href="#DejaVuSans-48"/>
       <use x="254.492188" xlink:href="#DejaVuSans-45"/>
       <use x="290.576172" xlink:href="#DejaVuSans-48"/>
       <use x="354.199219" xlink:href="#DejaVuSans-52"/>
       <use x="417.822266" xlink:href="#DejaVuSans-45"/>
       <use x="453.90625" xlink:href="#DejaVuSans-48"/>
       <use x="517.529297" xlink:href="#DejaVuSans-50"/>
      </g>
     </g>
    </g>
    <g id="xtick_20">
     <g id="line2d_20">
      <path clip-path="url(#p99c1003b3f)" d="M 333.765795 284.4 
L 333.765795 7.2 
" style="fill:none;stroke:#ffffff;stroke-linecap:round;"/>
     </g>
     <g id="text_20">
      <!-- 2020-04-03 -->
      <g style="fill:#262626;" transform="translate(331.478139 357.827187)rotate(-90)scale(0.11 -0.11)">
       <use xlink:href="#DejaVuSans-50"/>
       <use x="63.623047" xlink:href="#DejaVuSans-48"/>
       <use x="127.246094" xlink:href="#DejaVuSans-50"/>
       <use x="190.869141" xlink:href="#DejaVuSans-48"/>
       <use x="254.492188" xlink:href="#DejaVuSans-45"/>
       <use x="290.576172" xlink:href="#DejaVuSans-48"/>
       <use x="354.199219" xlink:href="#DejaVuSans-52"/>
       <use x="417.822266" xlink:href="#DejaVuSans-45"/>
       <use x="453.90625" xlink:href="#DejaVuSans-48"/>
       <use x="517.529297" xlink:href="#DejaVuSans-51"/>
      </g>
     </g>
    </g>
    <g id="xtick_21">
     <g id="line2d_21">
      <path clip-path="url(#p99c1003b3f)" d="M 347.293068 284.4 
L 347.293068 7.2 
" style="fill:none;stroke:#ffffff;stroke-linecap:round;"/>
     </g>
     <g id="text_21">
      <!-- 2020-04-04 -->
      <g style="fill:#262626;" transform="translate(345.005412 357.827187)rotate(-90)scale(0.11 -0.11)">
       <use xlink:href="#DejaVuSans-50"/>
       <use x="63.623047" xlink:href="#DejaVuSans-48"/>
       <use x="127.246094" xlink:href="#DejaVuSans-50"/>
       <use x="190.869141" xlink:href="#DejaVuSans-48"/>
       <use x="254.492188" xlink:href="#DejaVuSans-45"/>
       <use x="290.576172" xlink:href="#DejaVuSans-48"/>
       <use x="354.199219" xlink:href="#DejaVuSans-52"/>
       <use x="417.822266" xlink:href="#DejaVuSans-45"/>
       <use x="453.90625" xlink:href="#DejaVuSans-48"/>
       <use x="517.529297" xlink:href="#DejaVuSans-52"/>
      </g>
     </g>
    </g>
    <g id="xtick_22">
     <g id="line2d_22">
      <path clip-path="url(#p99c1003b3f)" d="M 360.820341 284.4 
L 360.820341 7.2 
" style="fill:none;stroke:#ffffff;stroke-linecap:round;"/>
     </g>
     <g id="text_22">
      <!-- 2020-04-05 -->
      <g style="fill:#262626;" transform="translate(358.532685 357.827187)rotate(-90)scale(0.11 -0.11)">
       <use xlink:href="#DejaVuSans-50"/>
       <use x="63.623047" xlink:href="#DejaVuSans-48"/>
       <use x="127.246094" xlink:href="#DejaVuSans-50"/>
       <use x="190.869141" xlink:href="#DejaVuSans-48"/>
       <use x="254.492188" xlink:href="#DejaVuSans-45"/>
       <use x="290.576172" xlink:href="#DejaVuSans-48"/>
       <use x="354.199219" xlink:href="#DejaVuSans-52"/>
       <use x="417.822266" xlink:href="#DejaVuSans-45"/>
       <use x="453.90625" xlink:href="#DejaVuSans-48"/>
       <use x="517.529297" xlink:href="#DejaVuSans-53"/>
      </g>
     </g>
    </g>
    <g id="xtick_23">
     <g id="line2d_23">
      <path clip-path="url(#p99c1003b3f)" d="M 374.347614 284.4 
L 374.347614 7.2 
" style="fill:none;stroke:#ffffff;stroke-linecap:round;"/>
     </g>
     <g id="text_23">
      <!-- 2020-04-06 -->
      <g style="fill:#262626;" transform="translate(372.059957 357.827187)rotate(-90)scale(0.11 -0.11)">
       <use xlink:href="#DejaVuSans-50"/>
       <use x="63.623047" xlink:href="#DejaVuSans-48"/>
       <use x="127.246094" xlink:href="#DejaVuSans-50"/>
       <use x="190.869141" xlink:href="#DejaVuSans-48"/>
       <use x="254.492188" xlink:href="#DejaVuSans-45"/>
       <use x="290.576172" xlink:href="#DejaVuSans-48"/>
       <use x="354.199219" xlink:href="#DejaVuSans-52"/>
       <use x="417.822266" xlink:href="#DejaVuSans-45"/>
       <use x="453.90625" xlink:href="#DejaVuSans-48"/>
       <use x="517.529297" xlink:href="#DejaVuSans-54"/>
      </g>
     </g>
    </g>
    <g id="xtick_24">
     <g id="line2d_24">
      <path clip-path="url(#p99c1003b3f)" d="M 387.874886 284.4 
L 387.874886 7.2 
" style="fill:none;stroke:#ffffff;stroke-linecap:round;"/>
     </g>
     <g id="text_24">
      <!-- 2020-04-07 -->
      <g style="fill:#262626;" transform="translate(385.58723 357.827187)rotate(-90)scale(0.11 -0.11)">
       <use xlink:href="#DejaVuSans-50"/>
       <use x="63.623047" xlink:href="#DejaVuSans-48"/>
       <use x="127.246094" xlink:href="#DejaVuSans-50"/>
       <use x="190.869141" xlink:href="#DejaVuSans-48"/>
       <use x="254.492188" xlink:href="#DejaVuSans-45"/>
       <use x="290.576172" xlink:href="#DejaVuSans-48"/>
       <use x="354.199219" xlink:href="#DejaVuSans-52"/>
       <use x="417.822266" xlink:href="#DejaVuSans-45"/>
       <use x="453.90625" xlink:href="#DejaVuSans-48"/>
       <use x="517.529297" xlink:href="#DejaVuSans-55"/>
      </g>
     </g>
    </g>
    <g id="xtick_25">
     <g id="line2d_25">
      <path clip-path="url(#p99c1003b3f)" d="M 401.402159 284.4 
L 401.402159 7.2 
" style="fill:none;stroke:#ffffff;stroke-linecap:round;"/>
     </g>
     <g id="text_25">
      <!-- 2020-04-08 -->
      <g style="fill:#262626;" transform="translate(399.114503 357.827187)rotate(-90)scale(0.11 -0.11)">
       <use xlink:href="#DejaVuSans-50"/>
       <use x="63.623047" xlink:href="#DejaVuSans-48"/>
       <use x="127.246094" xlink:href="#DejaVuSans-50"/>
       <use x="190.869141" xlink:href="#DejaVuSans-48"/>
       <use x="254.492188" xlink:href="#DejaVuSans-45"/>
       <use x="290.576172" xlink:href="#DejaVuSans-48"/>
       <use x="354.199219" xlink:href="#DejaVuSans-52"/>
       <use x="417.822266" xlink:href="#DejaVuSans-45"/>
       <use x="453.90625" xlink:href="#DejaVuSans-48"/>
       <use x="517.529297" xlink:href="#DejaVuSans-56"/>
      </g>
     </g>
    </g>
    <g id="xtick_26">
     <g id="line2d_26">
      <path clip-path="url(#p99c1003b3f)" d="M 414.929432 284.4 
L 414.929432 7.2 
" style="fill:none;stroke:#ffffff;stroke-linecap:round;"/>
     </g>
     <g id="text_26">
      <!-- 2020-04-09 -->
      <g style="fill:#262626;" transform="translate(412.641776 357.827187)rotate(-90)scale(0.11 -0.11)">
       <use xlink:href="#DejaVuSans-50"/>
       <use x="63.623047" xlink:href="#DejaVuSans-48"/>
       <use x="127.246094" xlink:href="#DejaVuSans-50"/>
       <use x="190.869141" xlink:href="#DejaVuSans-48"/>
       <use x="254.492188" xlink:href="#DejaVuSans-45"/>
       <use x="290.576172" xlink:href="#DejaVuSans-48"/>
       <use x="354.199219" xlink:href="#DejaVuSans-52"/>
       <use x="417.822266" xlink:href="#DejaVuSans-45"/>
       <use x="453.90625" xlink:href="#DejaVuSans-48"/>
       <use x="517.529297" xlink:href="#DejaVuSans-57"/>
      </g>
     </g>
    </g>
    <g id="xtick_27">
     <g id="line2d_27">
      <path clip-path="url(#p99c1003b3f)" d="M 428.456705 284.4 
L 428.456705 7.2 
" style="fill:none;stroke:#ffffff;stroke-linecap:round;"/>
     </g>
     <g id="text_27">
      <!-- 2020-04-10 -->
      <g style="fill:#262626;" transform="translate(426.169048 357.827187)rotate(-90)scale(0.11 -0.11)">
       <use xlink:href="#DejaVuSans-50"/>
       <use x="63.623047" xlink:href="#DejaVuSans-48"/>
       <use x="127.246094" xlink:href="#DejaVuSans-50"/>
       <use x="190.869141" xlink:href="#DejaVuSans-48"/>
       <use x="254.492188" xlink:href="#DejaVuSans-45"/>
       <use x="290.576172" xlink:href="#DejaVuSans-48"/>
       <use x="354.199219" xlink:href="#DejaVuSans-52"/>
       <use x="417.822266" xlink:href="#DejaVuSans-45"/>
       <use x="453.90625" xlink:href="#DejaVuSans-49"/>
       <use x="517.529297" xlink:href="#DejaVuSans-48"/>
      </g>
     </g>
    </g>
    <g id="xtick_28">
     <g id="line2d_28">
      <path clip-path="url(#p99c1003b3f)" d="M 441.983977 284.4 
L 441.983977 7.2 
" style="fill:none;stroke:#ffffff;stroke-linecap:round;"/>
     </g>
     <g id="text_28">
      <!-- 2020-04-11 -->
      <g style="fill:#262626;" transform="translate(439.696321 357.827187)rotate(-90)scale(0.11 -0.11)">
       <use xlink:href="#DejaVuSans-50"/>
       <use x="63.623047" xlink:href="#DejaVuSans-48"/>
       <use x="127.246094" xlink:href="#DejaVuSans-50"/>
       <use x="190.869141" xlink:href="#DejaVuSans-48"/>
       <use x="254.492188" xlink:href="#DejaVuSans-45"/>
       <use x="290.576172" xlink:href="#DejaVuSans-48"/>
       <use x="354.199219" xlink:href="#DejaVuSans-52"/>
       <use x="417.822266" xlink:href="#DejaVuSans-45"/>
       <use x="453.90625" xlink:href="#DejaVuSans-49"/>
       <use x="517.529297" xlink:href="#DejaVuSans-49"/>
      </g>
     </g>
    </g>
    <g id="xtick_29">
     <g id="line2d_29">
      <path clip-path="url(#p99c1003b3f)" d="M 455.51125 284.4 
L 455.51125 7.2 
" style="fill:none;stroke:#ffffff;stroke-linecap:round;"/>
     </g>
     <g id="text_29">
      <!-- 2020-04-12 -->
      <g style="fill:#262626;" transform="translate(453.223594 357.827187)rotate(-90)scale(0.11 -0.11)">
       <use xlink:href="#DejaVuSans-50"/>
       <use x="63.623047" xlink:href="#DejaVuSans-48"/>
       <use x="127.246094" xlink:href="#DejaVuSans-50"/>
       <use x="190.869141" xlink:href="#DejaVuSans-48"/>
       <use x="254.492188" xlink:href="#DejaVuSans-45"/>
       <use x="290.576172" xlink:href="#DejaVuSans-48"/>
       <use x="354.199219" xlink:href="#DejaVuSans-52"/>
       <use x="417.822266" xlink:href="#DejaVuSans-45"/>
       <use x="453.90625" xlink:href="#DejaVuSans-49"/>
       <use x="517.529297" xlink:href="#DejaVuSans-50"/>
      </g>
     </g>
    </g>
    <g id="xtick_30">
     <g id="line2d_30">
      <path clip-path="url(#p99c1003b3f)" d="M 469.038523 284.4 
L 469.038523 7.2 
" style="fill:none;stroke:#ffffff;stroke-linecap:round;"/>
     </g>
     <g id="text_30">
      <!-- 2020-04-13 -->
      <g style="fill:#262626;" transform="translate(466.750866 357.827187)rotate(-90)scale(0.11 -0.11)">
       <use xlink:href="#DejaVuSans-50"/>
       <use x="63.623047" xlink:href="#DejaVuSans-48"/>
       <use x="127.246094" xlink:href="#DejaVuSans-50"/>
       <use x="190.869141" xlink:href="#DejaVuSans-48"/>
       <use x="254.492188" xlink:href="#DejaVuSans-45"/>
       <use x="290.576172" xlink:href="#DejaVuSans-48"/>
       <use x="354.199219" xlink:href="#DejaVuSans-52"/>
       <use x="417.822266" xlink:href="#DejaVuSans-45"/>
       <use x="453.90625" xlink:href="#DejaVuSans-49"/>
       <use x="517.529297" xlink:href="#DejaVuSans-51"/>
      </g>
     </g>
    </g>
    <g id="xtick_31">
     <g id="line2d_31">
      <path clip-path="url(#p99c1003b3f)" d="M 482.565795 284.4 
L 482.565795 7.2 
" style="fill:none;stroke:#ffffff;stroke-linecap:round;"/>
     </g>
     <g id="text_31">
      <!-- 2020-04-14 -->
      <g style="fill:#262626;" transform="translate(480.278139 357.827187)rotate(-90)scale(0.11 -0.11)">
       <use xlink:href="#DejaVuSans-50"/>
       <use x="63.623047" xlink:href="#DejaVuSans-48"/>
       <use x="127.246094" xlink:href="#DejaVuSans-50"/>
       <use x="190.869141" xlink:href="#DejaVuSans-48"/>
       <use x="254.492188" xlink:href="#DejaVuSans-45"/>
       <use x="290.576172" xlink:href="#DejaVuSans-48"/>
       <use x="354.199219" xlink:href="#DejaVuSans-52"/>
       <use x="417.822266" xlink:href="#DejaVuSans-45"/>
       <use x="453.90625" xlink:href="#DejaVuSans-49"/>
       <use x="517.529297" xlink:href="#DejaVuSans-52"/>
      </g>
     </g>
    </g>
    <g id="xtick_32">
     <g id="line2d_32">
      <path clip-path="url(#p99c1003b3f)" d="M 496.093068 284.4 
L 496.093068 7.2 
" style="fill:none;stroke:#ffffff;stroke-linecap:round;"/>
     </g>
     <g id="text_32">
      <!-- 2020-04-15 -->
      <g style="fill:#262626;" transform="translate(493.805412 357.827187)rotate(-90)scale(0.11 -0.11)">
       <use xlink:href="#DejaVuSans-50"/>
       <use x="63.623047" xlink:href="#DejaVuSans-48"/>
       <use x="127.246094" xlink:href="#DejaVuSans-50"/>
       <use x="190.869141" xlink:href="#DejaVuSans-48"/>
       <use x="254.492188" xlink:href="#DejaVuSans-45"/>
       <use x="290.576172" xlink:href="#DejaVuSans-48"/>
       <use x="354.199219" xlink:href="#DejaVuSans-52"/>
       <use x="417.822266" xlink:href="#DejaVuSans-45"/>
       <use x="453.90625" xlink:href="#DejaVuSans-49"/>
       <use x="517.529297" xlink:href="#DejaVuSans-53"/>
      </g>
     </g>
    </g>
    <g id="xtick_33">
     <g id="line2d_33">
      <path clip-path="url(#p99c1003b3f)" d="M 509.620341 284.4 
L 509.620341 7.2 
" style="fill:none;stroke:#ffffff;stroke-linecap:round;"/>
     </g>
     <g id="text_33">
      <!-- 2020-04-16 -->
      <g style="fill:#262626;" transform="translate(507.332685 357.827187)rotate(-90)scale(0.11 -0.11)">
       <use xlink:href="#DejaVuSans-50"/>
       <use x="63.623047" xlink:href="#DejaVuSans-48"/>
       <use x="127.246094" xlink:href="#DejaVuSans-50"/>
       <use x="190.869141" xlink:href="#DejaVuSans-48"/>
       <use x="254.492188" xlink:href="#DejaVuSans-45"/>
       <use x="290.576172" xlink:href="#DejaVuSans-48"/>
       <use x="354.199219" xlink:href="#DejaVuSans-52"/>
       <use x="417.822266" xlink:href="#DejaVuSans-45"/>
       <use x="453.90625" xlink:href="#DejaVuSans-49"/>
       <use x="517.529297" xlink:href="#DejaVuSans-54"/>
      </g>
     </g>
    </g>
    <g id="xtick_34">
     <g id="line2d_34">
      <path clip-path="url(#p99c1003b3f)" d="M 523.147614 284.4 
L 523.147614 7.2 
" style="fill:none;stroke:#ffffff;stroke-linecap:round;"/>
     </g>
     <g id="text_34">
      <!-- 2020-04-17 -->
      <g style="fill:#262626;" transform="translate(520.859957 357.827187)rotate(-90)scale(0.11 -0.11)">
       <use xlink:href="#DejaVuSans-50"/>
       <use x="63.623047" xlink:href="#DejaVuSans-48"/>
       <use x="127.246094" xlink:href="#DejaVuSans-50"/>
       <use x="190.869141" xlink:href="#DejaVuSans-48"/>
       <use x="254.492188" xlink:href="#DejaVuSans-45"/>
       <use x="290.576172" xlink:href="#DejaVuSans-48"/>
       <use x="354.199219" xlink:href="#DejaVuSans-52"/>
       <use x="417.822266" xlink:href="#DejaVuSans-45"/>
       <use x="453.90625" xlink:href="#DejaVuSans-49"/>
       <use x="517.529297" xlink:href="#DejaVuSans-55"/>
      </g>
     </g>
    </g>
    <g id="xtick_35">
     <g id="line2d_35">
      <path clip-path="url(#p99c1003b3f)" d="M 536.674886 284.4 
L 536.674886 7.2 
" style="fill:none;stroke:#ffffff;stroke-linecap:round;"/>
     </g>
     <g id="text_35">
      <!-- 2020-04-18 -->
      <g style="fill:#262626;" transform="translate(534.38723 357.827187)rotate(-90)scale(0.11 -0.11)">
       <use xlink:href="#DejaVuSans-50"/>
       <use x="63.623047" xlink:href="#DejaVuSans-48"/>
       <use x="127.246094" xlink:href="#DejaVuSans-50"/>
       <use x="190.869141" xlink:href="#DejaVuSans-48"/>
       <use x="254.492188" xlink:href="#DejaVuSans-45"/>
       <use x="290.576172" xlink:href="#DejaVuSans-48"/>
       <use x="354.199219" xlink:href="#DejaVuSans-52"/>
       <use x="417.822266" xlink:href="#DejaVuSans-45"/>
       <use x="453.90625" xlink:href="#DejaVuSans-49"/>
       <use x="517.529297" xlink:href="#DejaVuSans-56"/>
      </g>
     </g>
    </g>
    <g id="xtick_36">
     <g id="line2d_36">
      <path clip-path="url(#p99c1003b3f)" d="M 550.202159 284.4 
L 550.202159 7.2 
" style="fill:none;stroke:#ffffff;stroke-linecap:round;"/>
     </g>
     <g id="text_36">
      <!-- 2020-04-19 -->
      <g style="fill:#262626;" transform="translate(547.914503 357.827187)rotate(-90)scale(0.11 -0.11)">
       <use xlink:href="#DejaVuSans-50"/>
       <use x="63.623047" xlink:href="#DejaVuSans-48"/>
       <use x="127.246094" xlink:href="#DejaVuSans-50"/>
       <use x="190.869141" xlink:href="#DejaVuSans-48"/>
       <use x="254.492188" xlink:href="#DejaVuSans-45"/>
       <use x="290.576172" xlink:href="#DejaVuSans-48"/>
       <use x="354.199219" xlink:href="#DejaVuSans-52"/>
       <use x="417.822266" xlink:href="#DejaVuSans-45"/>
       <use x="453.90625" xlink:href="#DejaVuSans-49"/>
       <use x="517.529297" xlink:href="#DejaVuSans-57"/>
      </g>
     </g>
    </g>
    <g id="xtick_37">
     <g id="line2d_37">
      <path clip-path="url(#p99c1003b3f)" d="M 563.729432 284.4 
L 563.729432 7.2 
" style="fill:none;stroke:#ffffff;stroke-linecap:round;"/>
     </g>
     <g id="text_37">
      <!-- 2020-04-20 -->
      <g style="fill:#262626;" transform="translate(561.441776 357.827187)rotate(-90)scale(0.11 -0.11)">
       <use xlink:href="#DejaVuSans-50"/>
       <use x="63.623047" xlink:href="#DejaVuSans-48"/>
       <use x="127.246094" xlink:href="#DejaVuSans-50"/>
       <use x="190.869141" xlink:href="#DejaVuSans-48"/>
       <use x="254.492188" xlink:href="#DejaVuSans-45"/>
       <use x="290.576172" xlink:href="#DejaVuSans-48"/>
       <use x="354.199219" xlink:href="#DejaVuSans-52"/>
       <use x="417.822266" xlink:href="#DejaVuSans-45"/>
       <use x="453.90625" xlink:href="#DejaVuSans-50"/>
       <use x="517.529297" xlink:href="#DejaVuSans-48"/>
      </g>
     </g>
    </g>
    <g id="xtick_38">
     <g id="line2d_38">
      <path clip-path="url(#p99c1003b3f)" d="M 577.256705 284.4 
L 577.256705 7.2 
" style="fill:none;stroke:#ffffff;stroke-linecap:round;"/>
     </g>
     <g id="text_38">
      <!-- 2020-04-21 -->
      <g style="fill:#262626;" transform="translate(574.969048 357.827187)rotate(-90)scale(0.11 -0.11)">
       <use xlink:href="#DejaVuSans-50"/>
       <use x="63.623047" xlink:href="#DejaVuSans-48"/>
       <use x="127.246094" xlink:href="#DejaVuSans-50"/>
       <use x="190.869141" xlink:href="#DejaVuSans-48"/>
       <use x="254.492188" xlink:href="#DejaVuSans-45"/>
       <use x="290.576172" xlink:href="#DejaVuSans-48"/>
       <use x="354.199219" xlink:href="#DejaVuSans-52"/>
       <use x="417.822266" xlink:href="#DejaVuSans-45"/>
       <use x="453.90625" xlink:href="#DejaVuSans-50"/>
       <use x="517.529297" xlink:href="#DejaVuSans-49"/>
      </g>
     </g>
    </g>
    <g id="xtick_39">
     <g id="line2d_39">
      <path clip-path="url(#p99c1003b3f)" d="M 590.783977 284.4 
L 590.783977 7.2 
" style="fill:none;stroke:#ffffff;stroke-linecap:round;"/>
     </g>
     <g id="text_39">
      <!-- 2020-04-22 -->
      <g style="fill:#262626;" transform="translate(588.496321 357.827187)rotate(-90)scale(0.11 -0.11)">
       <use xlink:href="#DejaVuSans-50"/>
       <use x="63.623047" xlink:href="#DejaVuSans-48"/>
       <use x="127.246094" xlink:href="#DejaVuSans-50"/>
       <use x="190.869141" xlink:href="#DejaVuSans-48"/>
       <use x="254.492188" xlink:href="#DejaVuSans-45"/>
       <use x="290.576172" xlink:href="#DejaVuSans-48"/>
       <use x="354.199219" xlink:href="#DejaVuSans-52"/>
       <use x="417.822266" xlink:href="#DejaVuSans-45"/>
       <use x="453.90625" xlink:href="#DejaVuSans-50"/>
       <use x="517.529297" xlink:href="#DejaVuSans-50"/>
      </g>
     </g>
    </g>
    <g id="xtick_40">
     <g id="line2d_40">
      <path clip-path="url(#p99c1003b3f)" d="M 604.31125 284.4 
L 604.31125 7.2 
" style="fill:none;stroke:#ffffff;stroke-linecap:round;"/>
     </g>
     <g id="text_40">
      <!-- 2020-04-23 -->
      <g style="fill:#262626;" transform="translate(602.023594 357.827187)rotate(-90)scale(0.11 -0.11)">
       <use xlink:href="#DejaVuSans-50"/>
       <use x="63.623047" xlink:href="#DejaVuSans-48"/>
       <use x="127.246094" xlink:href="#DejaVuSans-50"/>
       <use x="190.869141" xlink:href="#DejaVuSans-48"/>
       <use x="254.492188" xlink:href="#DejaVuSans-45"/>
       <use x="290.576172" xlink:href="#DejaVuSans-48"/>
       <use x="354.199219" xlink:href="#DejaVuSans-52"/>
       <use x="417.822266" xlink:href="#DejaVuSans-45"/>
       <use x="453.90625" xlink:href="#DejaVuSans-50"/>
       <use x="517.529297" xlink:href="#DejaVuSans-51"/>
      </g>
     </g>
    </g>
    <g id="xtick_41">
     <g id="line2d_41">
      <path clip-path="url(#p99c1003b3f)" d="M 617.838523 284.4 
L 617.838523 7.2 
" style="fill:none;stroke:#ffffff;stroke-linecap:round;"/>
     </g>
     <g id="text_41">
      <!-- 2020-04-24 -->
      <g style="fill:#262626;" transform="translate(615.550866 357.827187)rotate(-90)scale(0.11 -0.11)">
       <use xlink:href="#DejaVuSans-50"/>
       <use x="63.623047" xlink:href="#DejaVuSans-48"/>
       <use x="127.246094" xlink:href="#DejaVuSans-50"/>
       <use x="190.869141" xlink:href="#DejaVuSans-48"/>
       <use x="254.492188" xlink:href="#DejaVuSans-45"/>
       <use x="290.576172" xlink:href="#DejaVuSans-48"/>
       <use x="354.199219" xlink:href="#DejaVuSans-52"/>
       <use x="417.822266" xlink:href="#DejaVuSans-45"/>
       <use x="453.90625" xlink:href="#DejaVuSans-50"/>
       <use x="517.529297" xlink:href="#DejaVuSans-52"/>
      </g>
     </g>
    </g>
    <g id="xtick_42">
     <g id="line2d_42">
      <path clip-path="url(#p99c1003b3f)" d="M 631.365795 284.4 
L 631.365795 7.2 
" style="fill:none;stroke:#ffffff;stroke-linecap:round;"/>
     </g>
     <g id="text_42">
      <!-- 2020-04-25 -->
      <g style="fill:#262626;" transform="translate(629.078139 357.827187)rotate(-90)scale(0.11 -0.11)">
       <use xlink:href="#DejaVuSans-50"/>
       <use x="63.623047" xlink:href="#DejaVuSans-48"/>
       <use x="127.246094" xlink:href="#DejaVuSans-50"/>
       <use x="190.869141" xlink:href="#DejaVuSans-48"/>
       <use x="254.492188" xlink:href="#DejaVuSans-45"/>
       <use x="290.576172" xlink:href="#DejaVuSans-48"/>
       <use x="354.199219" xlink:href="#DejaVuSans-52"/>
       <use x="417.822266" xlink:href="#DejaVuSans-45"/>
       <use x="453.90625" xlink:href="#DejaVuSans-50"/>
       <use x="517.529297" xlink:href="#DejaVuSans-53"/>
      </g>
     </g>
    </g>
    <g id="xtick_43">
     <g id="line2d_43">
      <path clip-path="url(#p99c1003b3f)" d="M 644.893068 284.4 
L 644.893068 7.2 
" style="fill:none;stroke:#ffffff;stroke-linecap:round;"/>
     </g>
     <g id="text_43">
      <!-- 2020-04-26 -->
      <g style="fill:#262626;" transform="translate(642.605412 357.827187)rotate(-90)scale(0.11 -0.11)">
       <use xlink:href="#DejaVuSans-50"/>
       <use x="63.623047" xlink:href="#DejaVuSans-48"/>
       <use x="127.246094" xlink:href="#DejaVuSans-50"/>
       <use x="190.869141" xlink:href="#DejaVuSans-48"/>
       <use x="254.492188" xlink:href="#DejaVuSans-45"/>
       <use x="290.576172" xlink:href="#DejaVuSans-48"/>
       <use x="354.199219" xlink:href="#DejaVuSans-52"/>
       <use x="417.822266" xlink:href="#DejaVuSans-45"/>
       <use x="453.90625" xlink:href="#DejaVuSans-50"/>
       <use x="517.529297" xlink:href="#DejaVuSans-54"/>
      </g>
     </g>
    </g>
    <g id="xtick_44">
     <g id="line2d_44">
      <path clip-path="url(#p99c1003b3f)" d="M 658.420341 284.4 
L 658.420341 7.2 
" style="fill:none;stroke:#ffffff;stroke-linecap:round;"/>
     </g>
     <g id="text_44">
      <!-- 2020-04-27 -->
      <g style="fill:#262626;" transform="translate(656.132685 357.827187)rotate(-90)scale(0.11 -0.11)">
       <use xlink:href="#DejaVuSans-50"/>
       <use x="63.623047" xlink:href="#DejaVuSans-48"/>
       <use x="127.246094" xlink:href="#DejaVuSans-50"/>
       <use x="190.869141" xlink:href="#DejaVuSans-48"/>
       <use x="254.492188" xlink:href="#DejaVuSans-45"/>
       <use x="290.576172" xlink:href="#DejaVuSans-48"/>
       <use x="354.199219" xlink:href="#DejaVuSans-52"/>
       <use x="417.822266" xlink:href="#DejaVuSans-45"/>
       <use x="453.90625" xlink:href="#DejaVuSans-50"/>
       <use x="517.529297" xlink:href="#DejaVuSans-55"/>
      </g>
     </g>
    </g>
    <g id="xtick_45">
     <g id="line2d_45">
      <path clip-path="url(#p99c1003b3f)" d="M 671.947614 284.4 
L 671.947614 7.2 
" style="fill:none;stroke:#ffffff;stroke-linecap:round;"/>
     </g>
     <g id="text_45">
      <!-- 2020-04-28 -->
      <g style="fill:#262626;" transform="translate(669.659957 357.827187)rotate(-90)scale(0.11 -0.11)">
       <use xlink:href="#DejaVuSans-50"/>
       <use x="63.623047" xlink:href="#DejaVuSans-48"/>
       <use x="127.246094" xlink:href="#DejaVuSans-50"/>
       <use x="190.869141" xlink:href="#DejaVuSans-48"/>
       <use x="254.492188" xlink:href="#DejaVuSans-45"/>
       <use x="290.576172" xlink:href="#DejaVuSans-48"/>
       <use x="354.199219" xlink:href="#DejaVuSans-52"/>
       <use x="417.822266" xlink:href="#DejaVuSans-45"/>
       <use x="453.90625" xlink:href="#DejaVuSans-50"/>
       <use x="517.529297" xlink:href="#DejaVuSans-56"/>
      </g>
     </g>
    </g>
    <g id="xtick_46">
     <g id="line2d_46">
      <path clip-path="url(#p99c1003b3f)" d="M 685.474886 284.4 
L 685.474886 7.2 
" style="fill:none;stroke:#ffffff;stroke-linecap:round;"/>
     </g>
     <g id="text_46">
      <!-- 2020-04-29 -->
      <g style="fill:#262626;" transform="translate(683.18723 357.827187)rotate(-90)scale(0.11 -0.11)">
       <use xlink:href="#DejaVuSans-50"/>
       <use x="63.623047" xlink:href="#DejaVuSans-48"/>
       <use x="127.246094" xlink:href="#DejaVuSans-50"/>
       <use x="190.869141" xlink:href="#DejaVuSans-48"/>
       <use x="254.492188" xlink:href="#DejaVuSans-45"/>
       <use x="290.576172" xlink:href="#DejaVuSans-48"/>
       <use x="354.199219" xlink:href="#DejaVuSans-52"/>
       <use x="417.822266" xlink:href="#DejaVuSans-45"/>
       <use x="453.90625" xlink:href="#DejaVuSans-50"/>
       <use x="517.529297" xlink:href="#DejaVuSans-57"/>
      </g>
     </g>
    </g>
    <g id="text_47">
     <!-- Day -->
     <defs>
      <path d="M 19.671875 64.796875 
L 19.671875 8.109375 
L 31.59375 8.109375 
Q 46.6875 8.109375 53.6875 14.9375 
Q 60.6875 21.78125 60.6875 36.53125 
Q 60.6875 51.171875 53.6875 57.984375 
Q 46.6875 64.796875 31.59375 64.796875 
z
M 9.8125 72.90625 
L 30.078125 72.90625 
Q 51.265625 72.90625 61.171875 64.09375 
Q 71.09375 55.28125 71.09375 36.53125 
Q 71.09375 17.671875 61.125 8.828125 
Q 51.171875 0 30.078125 0 
L 9.8125 0 
z
" id="DejaVuSans-68"/>
      <path d="M 34.28125 27.484375 
Q 23.390625 27.484375 19.1875 25 
Q 14.984375 22.515625 14.984375 16.5 
Q 14.984375 11.71875 18.140625 8.90625 
Q 21.296875 6.109375 26.703125 6.109375 
Q 34.1875 6.109375 38.703125 11.40625 
Q 43.21875 16.703125 43.21875 25.484375 
L 43.21875 27.484375 
z
M 52.203125 31.203125 
L 52.203125 0 
L 43.21875 0 
L 43.21875 8.296875 
Q 40.140625 3.328125 35.546875 0.953125 
Q 30.953125 -1.421875 24.3125 -1.421875 
Q 15.921875 -1.421875 10.953125 3.296875 
Q 6 8.015625 6 15.921875 
Q 6 25.140625 12.171875 29.828125 
Q 18.359375 34.515625 30.609375 34.515625 
L 43.21875 34.515625 
L 43.21875 35.40625 
Q 43.21875 41.609375 39.140625 45 
Q 35.0625 48.390625 27.6875 48.390625 
Q 23 48.390625 18.546875 47.265625 
Q 14.109375 46.140625 10.015625 43.890625 
L 10.015625 52.203125 
Q 14.9375 54.109375 19.578125 55.046875 
Q 24.21875 56 28.609375 56 
Q 40.484375 56 46.34375 49.84375 
Q 52.203125 43.703125 52.203125 31.203125 
z
" id="DejaVuSans-97"/>
      <path d="M 32.171875 -5.078125 
Q 28.375 -14.84375 24.75 -17.8125 
Q 21.140625 -20.796875 15.09375 -20.796875 
L 7.90625 -20.796875 
L 7.90625 -13.28125 
L 13.1875 -13.28125 
Q 16.890625 -13.28125 18.9375 -11.515625 
Q 21 -9.765625 23.484375 -3.21875 
L 25.09375 0.875 
L 2.984375 54.6875 
L 12.5 54.6875 
L 29.59375 11.921875 
L 46.6875 54.6875 
L 56.203125 54.6875 
z
" id="DejaVuSans-121"/>
     </defs>
     <g style="fill:#262626;" transform="translate(369.263125 370.945312)scale(0.12 -0.12)">
      <use xlink:href="#DejaVuSans-68"/>
      <use x="77.001953" xlink:href="#DejaVuSans-97"/>
      <use x="138.28125" xlink:href="#DejaVuSans-121"/>
     </g>
    </g>
   </g>
   <g id="matplotlib.axis_2">
    <g id="ytick_1">
     <g id="line2d_47">
      <path clip-path="url(#p99c1003b3f)" d="M 46.31125 270.353972 
L 715.91125 270.353972 
" style="fill:none;stroke:#ffffff;stroke-linecap:round;"/>
     </g>
     <g id="text_48">
      <!-- 8 -->
      <g style="fill:#262626;" transform="translate(29.8125 274.533113)scale(0.11 -0.11)">
       <use xlink:href="#DejaVuSans-56"/>
      </g>
     </g>
    </g>
    <g id="ytick_2">
     <g id="line2d_48">
      <path clip-path="url(#p99c1003b3f)" d="M 46.31125 228.599068 
L 715.91125 228.599068 
" style="fill:none;stroke:#ffffff;stroke-linecap:round;"/>
     </g>
     <g id="text_49">
      <!-- 10 -->
      <g style="fill:#262626;" transform="translate(22.81375 232.778209)scale(0.11 -0.11)">
       <use xlink:href="#DejaVuSans-49"/>
       <use x="63.623047" xlink:href="#DejaVuSans-48"/>
      </g>
     </g>
    </g>
    <g id="ytick_3">
     <g id="line2d_49">
      <path clip-path="url(#p99c1003b3f)" d="M 46.31125 186.844165 
L 715.91125 186.844165 
" style="fill:none;stroke:#ffffff;stroke-linecap:round;"/>
     </g>
     <g id="text_50">
      <!-- 12 -->
      <g style="fill:#262626;" transform="translate(22.81375 191.023305)scale(0.11 -0.11)">
       <use xlink:href="#DejaVuSans-49"/>
       <use x="63.623047" xlink:href="#DejaVuSans-50"/>
      </g>
     </g>
    </g>
    <g id="ytick_4">
     <g id="line2d_50">
      <path clip-path="url(#p99c1003b3f)" d="M 46.31125 145.089261 
L 715.91125 145.089261 
" style="fill:none;stroke:#ffffff;stroke-linecap:round;"/>
     </g>
     <g id="text_51">
      <!-- 14 -->
      <g style="fill:#262626;" transform="translate(22.81375 149.268401)scale(0.11 -0.11)">
       <use xlink:href="#DejaVuSans-49"/>
       <use x="63.623047" xlink:href="#DejaVuSans-52"/>
      </g>
     </g>
    </g>
    <g id="ytick_5">
     <g id="line2d_51">
      <path clip-path="url(#p99c1003b3f)" d="M 46.31125 103.334357 
L 715.91125 103.334357 
" style="fill:none;stroke:#ffffff;stroke-linecap:round;"/>
     </g>
     <g id="text_52">
      <!-- 16 -->
      <g style="fill:#262626;" transform="translate(22.81375 107.513498)scale(0.11 -0.11)">
       <use xlink:href="#DejaVuSans-49"/>
       <use x="63.623047" xlink:href="#DejaVuSans-54"/>
      </g>
     </g>
    </g>
    <g id="ytick_6">
     <g id="line2d_52">
      <path clip-path="url(#p99c1003b3f)" d="M 46.31125 61.579453 
L 715.91125 61.579453 
" style="fill:none;stroke:#ffffff;stroke-linecap:round;"/>
     </g>
     <g id="text_53">
      <!-- 18 -->
      <g style="fill:#262626;" transform="translate(22.81375 65.758594)scale(0.11 -0.11)">
       <use xlink:href="#DejaVuSans-49"/>
       <use x="63.623047" xlink:href="#DejaVuSans-56"/>
      </g>
     </g>
    </g>
    <g id="ytick_7">
     <g id="line2d_53">
      <path clip-path="url(#p99c1003b3f)" d="M 46.31125 19.824549 
L 715.91125 19.824549 
" style="fill:none;stroke:#ffffff;stroke-linecap:round;"/>
     </g>
     <g id="text_54">
      <!-- 20 -->
      <g style="fill:#262626;" transform="translate(22.81375 24.00369)scale(0.11 -0.11)">
       <use xlink:href="#DejaVuSans-50"/>
       <use x="63.623047" xlink:href="#DejaVuSans-48"/>
      </g>
     </g>
    </g>
    <g id="text_55">
     <!-- Total Cases (log2 scale) -->
     <defs>
      <path d="M -0.296875 72.90625 
L 61.375 72.90625 
L 61.375 64.59375 
L 35.5 64.59375 
L 35.5 0 
L 25.59375 0 
L 25.59375 64.59375 
L -0.296875 64.59375 
z
" id="DejaVuSans-84"/>
      <path d="M 30.609375 48.390625 
Q 23.390625 48.390625 19.1875 42.75 
Q 14.984375 37.109375 14.984375 27.296875 
Q 14.984375 17.484375 19.15625 11.84375 
Q 23.34375 6.203125 30.609375 6.203125 
Q 37.796875 6.203125 41.984375 11.859375 
Q 46.1875 17.53125 46.1875 27.296875 
Q 46.1875 37.015625 41.984375 42.703125 
Q 37.796875 48.390625 30.609375 48.390625 
z
M 30.609375 56 
Q 42.328125 56 49.015625 48.375 
Q 55.71875 40.765625 55.71875 27.296875 
Q 55.71875 13.875 49.015625 6.21875 
Q 42.328125 -1.421875 30.609375 -1.421875 
Q 18.84375 -1.421875 12.171875 6.21875 
Q 5.515625 13.875 5.515625 27.296875 
Q 5.515625 40.765625 12.171875 48.375 
Q 18.84375 56 30.609375 56 
z
" id="DejaVuSans-111"/>
      <path d="M 18.3125 70.21875 
L 18.3125 54.6875 
L 36.8125 54.6875 
L 36.8125 47.703125 
L 18.3125 47.703125 
L 18.3125 18.015625 
Q 18.3125 11.328125 20.140625 9.421875 
Q 21.96875 7.515625 27.59375 7.515625 
L 36.8125 7.515625 
L 36.8125 0 
L 27.59375 0 
Q 17.1875 0 13.234375 3.875 
Q 9.28125 7.765625 9.28125 18.015625 
L 9.28125 47.703125 
L 2.6875 47.703125 
L 2.6875 54.6875 
L 9.28125 54.6875 
L 9.28125 70.21875 
z
" id="DejaVuSans-116"/>
      <path d="M 9.421875 75.984375 
L 18.40625 75.984375 
L 18.40625 0 
L 9.421875 0 
z
" id="DejaVuSans-108"/>
      <path id="DejaVuSans-32"/>
      <path d="M 64.40625 67.28125 
L 64.40625 56.890625 
Q 59.421875 61.53125 53.78125 63.8125 
Q 48.140625 66.109375 41.796875 66.109375 
Q 29.296875 66.109375 22.65625 58.46875 
Q 16.015625 50.828125 16.015625 36.375 
Q 16.015625 21.96875 22.65625 14.328125 
Q 29.296875 6.6875 41.796875 6.6875 
Q 48.140625 6.6875 53.78125 8.984375 
Q 59.421875 11.28125 64.40625 15.921875 
L 64.40625 5.609375 
Q 59.234375 2.09375 53.4375 0.328125 
Q 47.65625 -1.421875 41.21875 -1.421875 
Q 24.65625 -1.421875 15.125 8.703125 
Q 5.609375 18.84375 5.609375 36.375 
Q 5.609375 53.953125 15.125 64.078125 
Q 24.65625 74.21875 41.21875 74.21875 
Q 47.75 74.21875 53.53125 72.484375 
Q 59.328125 70.75 64.40625 67.28125 
z
" id="DejaVuSans-67"/>
      <path d="M 44.28125 53.078125 
L 44.28125 44.578125 
Q 40.484375 46.53125 36.375 47.5 
Q 32.28125 48.484375 27.875 48.484375 
Q 21.1875 48.484375 17.84375 46.4375 
Q 14.5 44.390625 14.5 40.28125 
Q 14.5 37.15625 16.890625 35.375 
Q 19.28125 33.59375 26.515625 31.984375 
L 29.59375 31.296875 
Q 39.15625 29.25 43.1875 25.515625 
Q 47.21875 21.78125 47.21875 15.09375 
Q 47.21875 7.46875 41.1875 3.015625 
Q 35.15625 -1.421875 24.609375 -1.421875 
Q 20.21875 -1.421875 15.453125 -0.5625 
Q 10.6875 0.296875 5.421875 2 
L 5.421875 11.28125 
Q 10.40625 8.6875 15.234375 7.390625 
Q 20.0625 6.109375 24.8125 6.109375 
Q 31.15625 6.109375 34.5625 8.28125 
Q 37.984375 10.453125 37.984375 14.40625 
Q 37.984375 18.0625 35.515625 20.015625 
Q 33.0625 21.96875 24.703125 23.78125 
L 21.578125 24.515625 
Q 13.234375 26.265625 9.515625 29.90625 
Q 5.8125 33.546875 5.8125 39.890625 
Q 5.8125 47.609375 11.28125 51.796875 
Q 16.75 56 26.8125 56 
Q 31.78125 56 36.171875 55.265625 
Q 40.578125 54.546875 44.28125 53.078125 
z
" id="DejaVuSans-115"/>
      <path d="M 56.203125 29.59375 
L 56.203125 25.203125 
L 14.890625 25.203125 
Q 15.484375 15.921875 20.484375 11.0625 
Q 25.484375 6.203125 34.421875 6.203125 
Q 39.59375 6.203125 44.453125 7.46875 
Q 49.3125 8.734375 54.109375 11.28125 
L 54.109375 2.78125 
Q 49.265625 0.734375 44.1875 -0.34375 
Q 39.109375 -1.421875 33.890625 -1.421875 
Q 20.796875 -1.421875 13.15625 6.1875 
Q 5.515625 13.8125 5.515625 26.8125 
Q 5.515625 40.234375 12.765625 48.109375 
Q 20.015625 56 32.328125 56 
Q 43.359375 56 49.78125 48.890625 
Q 56.203125 41.796875 56.203125 29.59375 
z
M 47.21875 32.234375 
Q 47.125 39.59375 43.09375 43.984375 
Q 39.0625 48.390625 32.421875 48.390625 
Q 24.90625 48.390625 20.390625 44.140625 
Q 15.875 39.890625 15.1875 32.171875 
z
" id="DejaVuSans-101"/>
      <path d="M 31 75.875 
Q 24.46875 64.65625 21.28125 53.65625 
Q 18.109375 42.671875 18.109375 31.390625 
Q 18.109375 20.125 21.3125 9.0625 
Q 24.515625 -2 31 -13.1875 
L 23.1875 -13.1875 
Q 15.875 -1.703125 12.234375 9.375 
Q 8.59375 20.453125 8.59375 31.390625 
Q 8.59375 42.28125 12.203125 53.3125 
Q 15.828125 64.359375 23.1875 75.875 
z
" id="DejaVuSans-40"/>
      <path d="M 45.40625 27.984375 
Q 45.40625 37.75 41.375 43.109375 
Q 37.359375 48.484375 30.078125 48.484375 
Q 22.859375 48.484375 18.828125 43.109375 
Q 14.796875 37.75 14.796875 27.984375 
Q 14.796875 18.265625 18.828125 12.890625 
Q 22.859375 7.515625 30.078125 7.515625 
Q 37.359375 7.515625 41.375 12.890625 
Q 45.40625 18.265625 45.40625 27.984375 
z
M 54.390625 6.78125 
Q 54.390625 -7.171875 48.1875 -13.984375 
Q 42 -20.796875 29.203125 -20.796875 
Q 24.46875 -20.796875 20.265625 -20.09375 
Q 16.0625 -19.390625 12.109375 -17.921875 
L 12.109375 -9.1875 
Q 16.0625 -11.328125 19.921875 -12.34375 
Q 23.78125 -13.375 27.78125 -13.375 
Q 36.625 -13.375 41.015625 -8.765625 
Q 45.40625 -4.15625 45.40625 5.171875 
L 45.40625 9.625 
Q 42.625 4.78125 38.28125 2.390625 
Q 33.9375 0 27.875 0 
Q 17.828125 0 11.671875 7.65625 
Q 5.515625 15.328125 5.515625 27.984375 
Q 5.515625 40.671875 11.671875 48.328125 
Q 17.828125 56 27.875 56 
Q 33.9375 56 38.28125 53.609375 
Q 42.625 51.21875 45.40625 46.390625 
L 45.40625 54.6875 
L 54.390625 54.6875 
z
" id="DejaVuSans-103"/>
      <path d="M 48.78125 52.59375 
L 48.78125 44.1875 
Q 44.96875 46.296875 41.140625 47.34375 
Q 37.3125 48.390625 33.40625 48.390625 
Q 24.65625 48.390625 19.8125 42.84375 
Q 14.984375 37.3125 14.984375 27.296875 
Q 14.984375 17.28125 19.8125 11.734375 
Q 24.65625 6.203125 33.40625 6.203125 
Q 37.3125 6.203125 41.140625 7.25 
Q 44.96875 8.296875 48.78125 10.40625 
L 48.78125 2.09375 
Q 45.015625 0.34375 40.984375 -0.53125 
Q 36.96875 -1.421875 32.421875 -1.421875 
Q 20.0625 -1.421875 12.78125 6.34375 
Q 5.515625 14.109375 5.515625 27.296875 
Q 5.515625 40.671875 12.859375 48.328125 
Q 20.21875 56 33.015625 56 
Q 37.15625 56 41.109375 55.140625 
Q 45.0625 54.296875 48.78125 52.59375 
z
" id="DejaVuSans-99"/>
      <path d="M 8.015625 75.875 
L 15.828125 75.875 
Q 23.140625 64.359375 26.78125 53.3125 
Q 30.421875 42.28125 30.421875 31.390625 
Q 30.421875 20.453125 26.78125 9.375 
Q 23.140625 -1.703125 15.828125 -13.1875 
L 8.015625 -13.1875 
Q 14.5 -2 17.703125 9.0625 
Q 20.90625 20.125 20.90625 31.390625 
Q 20.90625 42.671875 17.703125 53.65625 
Q 14.5 64.65625 8.015625 75.875 
z
" id="DejaVuSans-41"/>
     </defs>
     <g style="fill:#262626;" transform="translate(16.318125 217.453125)rotate(-90)scale(0.12 -0.12)">
      <use xlink:href="#DejaVuSans-84"/>
      <use x="60.818359" xlink:href="#DejaVuSans-111"/>
      <use x="122" xlink:href="#DejaVuSans-116"/>
      <use x="161.208984" xlink:href="#DejaVuSans-97"/>
      <use x="222.488281" xlink:href="#DejaVuSans-108"/>
      <use x="250.271484" xlink:href="#DejaVuSans-32"/>
      <use x="282.058594" xlink:href="#DejaVuSans-67"/>
      <use x="351.882812" xlink:href="#DejaVuSans-97"/>
      <use x="413.162109" xlink:href="#DejaVuSans-115"/>
      <use x="465.261719" xlink:href="#DejaVuSans-101"/>
      <use x="526.785156" xlink:href="#DejaVuSans-115"/>
      <use x="578.884766" xlink:href="#DejaVuSans-32"/>
      <use x="610.671875" xlink:href="#DejaVuSans-40"/>
      <use x="649.685547" xlink:href="#DejaVuSans-108"/>
      <use x="677.46875" xlink:href="#DejaVuSans-111"/>
      <use x="738.650391" xlink:href="#DejaVuSans-103"/>
      <use x="802.126953" xlink:href="#DejaVuSans-50"/>
      <use x="865.75" xlink:href="#DejaVuSans-32"/>
      <use x="897.537109" xlink:href="#DejaVuSans-115"/>
      <use x="949.636719" xlink:href="#DejaVuSans-99"/>
      <use x="1004.617188" xlink:href="#DejaVuSans-97"/>
      <use x="1065.896484" xlink:href="#DejaVuSans-108"/>
      <use x="1093.679688" xlink:href="#DejaVuSans-101"/>
      <use x="1155.203125" xlink:href="#DejaVuSans-41"/>
     </g>
    </g>
   </g>
   <g id="line2d_54">
    <path clip-path="url(#p99c1003b3f)" d="M 76.747614 97.009693 
L 90.274886 96.998147 
L 103.802159 96.997774 
L 117.329432 96.980277 
L 130.856705 96.980277 
L 144.383977 96.965765 
L 157.91125 96.933419 
L 171.438523 96.91893 
L 184.965795 96.91893 
L 198.493068 96.889973 
L 212.020341 96.872538 
L 225.547614 96.827328 
L 239.074886 96.827328 
L 252.602159 96.807338 
L 266.129432 96.790691 
L 279.656705 96.779228 
L 293.183977 96.761487 
L 306.71125 96.748189 
L 320.238523 96.735265 
L 333.765795 96.723823 
L 347.293068 96.716812 
L 360.820341 96.705746 
L 374.347614 96.691366 
L 387.874886 96.679573 
L 401.402159 96.656735 
L 414.929432 96.633547 
L 428.456705 96.618099 
L 441.983977 96.601188 
L 455.51125 96.564825 
L 469.038523 96.525206 
L 482.565795 96.492596 
L 496.093068 96.475756 
L 509.620341 96.458925 
L 523.147614 96.330804 
L 536.674886 96.320971 
L 550.202159 96.315146 
L 563.729432 96.310777 
L 577.256705 96.306774 
L 590.783977 96.295857 
L 604.31125 96.292219 
L 617.838523 96.290037 
L 631.365795 96.285672 
L 644.893068 96.281672 
L 658.420341 96.280581 
L 671.947614 96.278399 
L 685.474886 96.270401 
" style="fill:none;stroke:#a6cee3;stroke-linecap:round;stroke-width:1.5;"/>
   </g>
   <g id="line2d_55">
    <path clip-path="url(#p99c1003b3f)" d="M 76.747614 190.55675 
L 90.274886 185.282313 
L 103.802159 173.270601 
L 117.329432 161.61931 
L 130.856705 151.361422 
L 144.383977 144.893195 
L 157.91125 130.164191 
L 171.438523 122.26752 
L 184.965795 116.419529 
L 198.493068 109.773951 
L 212.020341 103.994621 
L 225.547614 95.285569 
L 239.074886 90.595475 
L 252.602159 85.21343 
L 266.129432 81.373159 
L 279.656705 77.079843 
L 293.183977 72.781864 
L 306.71125 68.615256 
L 320.238523 64.7388 
L 333.765795 61.108059 
L 347.293068 57.4004 
L 360.820341 54.624839 
L 374.347614 52.326682 
L 387.874886 49.879028 
L 401.402159 47.484746 
L 414.929432 44.499708 
L 428.456705 42.760945 
L 441.983977 40.815274 
L 455.51125 39.224103 
L 469.038523 37.78331 
L 482.565795 36.464198 
L 496.093068 35.472641 
L 509.620341 33.424875 
L 523.147614 32.390325 
L 536.674886 30.80276 
L 550.202159 29.644064 
L 563.729432 28.676611 
L 577.256705 27.795617 
L 590.783977 26.844682 
L 604.31125 25.549551 
L 617.838523 24.290459 
L 631.365795 22.930572 
L 644.893068 21.972573 
L 658.420341 21.26208 
L 671.947614 20.589963 
L 685.474886 19.8 
" style="fill:none;stroke:#1f78b4;stroke-linecap:round;stroke-width:1.5;"/>
   </g>
   <g id="line2d_56">
    <path clip-path="url(#p99c1003b3f)" d="M 76.747614 265.576821 
L 90.274886 258.855783 
L 103.802159 253.230725 
L 117.329432 239.671596 
L 130.856705 239.671596 
L 144.383977 233.300941 
L 157.91125 221.737173 
L 171.438523 214.615959 
L 184.965795 213.031288 
L 198.493068 206.341843 
L 212.020341 202.557909 
L 225.547614 194.601275 
L 239.074886 194.468379 
L 252.602159 190.440522 
L 266.129432 187.709478 
L 279.656705 185.767956 
L 293.183977 183.605352 
L 306.71125 181.66807 
L 320.238523 180.01156 
L 333.765795 178.799598 
L 347.293068 177.694161 
L 360.820341 176.959691 
L 374.347614 176.393059 
L 387.874886 175.755362 
L 401.402159 175.280786 
L 414.929432 174.828372 
L 428.456705 174.343782 
L 441.983977 173.862086 
L 455.51125 173.814337 
L 469.038523 173.595664 
L 482.565795 173.402088 
L 496.093068 173.181704 
L 509.620341 173.083753 
L 523.147614 172.814866 
L 536.674886 172.635403 
L 550.202159 172.420538 
L 563.729432 172.388668 
L 577.256705 172.270587 
L 590.783977 172.252461 
L 604.31125 172.19815 
L 617.838523 172.134912 
L 631.365795 172.0448 
L 644.893068 171.972904 
L 658.420341 171.932538 
L 671.947614 171.883275 
L 685.474886 171.816228 
" style="fill:none;stroke:#b2df8a;stroke-linecap:round;stroke-width:1.5;"/>
   </g>
   <g id="line2d_57">
    <path clip-path="url(#p99c1003b3f)" d="M 76.747614 234.600772 
L 90.274886 232.654641 
L 103.802159 233.232252 
L 117.329432 231.726785 
L 130.856705 231.081106 
L 144.383977 230.448978 
L 157.91125 227.729331 
L 171.438523 226.415313 
L 184.965795 225.685592 
L 198.493068 223.99813 
L 212.020341 221.249299 
L 225.547614 219.45992 
L 239.074886 219.45992 
L 252.602159 217.120965 
L 266.129432 210.524764 
L 279.656705 210.524764 
L 293.183977 209.152218 
L 306.71125 205.867944 
L 320.238523 203.145936 
L 333.765795 200.337299 
L 347.293068 196.883196 
L 360.820341 194.859241 
L 374.347614 190.283497 
L 387.874886 188.274766 
L 401.402159 185.682932 
L 414.929432 182.913363 
L 428.456705 177.802897 
L 441.983977 175.320886 
L 455.51125 171.8073 
L 469.038523 169.151591 
L 482.565795 168.048178 
L 496.093068 166.306886 
L 509.620341 164.411844 
L 523.147614 162.370128 
L 536.674886 160.608494 
L 550.202159 157.650328 
L 563.729432 157.650328 
L 577.256705 156.721886 
L 590.783977 155.718997 
L 604.31125 154.594284 
L 617.838523 153.558729 
L 631.365795 152.456473 
L 644.893068 151.527147 
L 658.420341 151.052845 
L 671.947614 150.667645 
L 685.474886 150.398933 
" style="fill:none;stroke:#33a02c;stroke-linecap:round;stroke-width:1.5;"/>
   </g>
   <g id="line2d_58">
    <path clip-path="url(#p99c1003b3f)" d="M 76.747614 176.299649 
L 90.274886 169.683458 
L 103.802159 161.929612 
L 117.329432 151.865961 
L 130.856705 147.111687 
L 144.383977 140.955848 
L 157.91125 135.717568 
L 171.438523 132.51492 
L 184.965795 127.833034 
L 198.493068 124.012091 
L 212.020341 120.291497 
L 225.547614 113.170113 
L 239.074886 111.377033 
L 252.602159 107.172495 
L 266.129432 105.663569 
L 279.656705 104.082127 
L 293.183977 102.143069 
L 306.71125 98.657773 
L 320.238523 95.709666 
L 333.765795 93.834319 
L 347.293068 93.068986 
L 360.820341 90.617462 
L 374.347614 90.140969 
L 387.874886 88.440104 
L 401.402159 87.545374 
L 414.929432 86.260347 
L 428.456705 85.209653 
L 441.983977 84.157155 
L 455.51125 83.426219 
L 469.038523 83.122337 
L 482.565795 82.434394 
L 496.093068 81.969792 
L 509.620341 81.380032 
L 523.147614 80.659033 
L 536.674886 79.860508 
L 550.202159 79.538839 
L 563.729432 79.126193 
L 577.256705 78.793506 
L 590.783977 78.440109 
L 604.31125 78.127808 
L 617.838523 77.570337 
L 631.365795 77.254891 
L 644.893068 76.997299 
L 658.420341 76.788497 
L 671.947614 76.593803 
L 685.474886 76.273206 
" style="fill:none;stroke:#fb9a99;stroke-linecap:round;stroke-width:1.5;"/>
   </g>
   <g id="line2d_59">
    <path clip-path="url(#p99c1003b3f)" d="M 76.747614 219.373182 
L 90.274886 216.249589 
L 103.802159 209.198521 
L 117.329432 200.233893 
L 130.856705 193.636985 
L 144.383977 193.636985 
L 157.91125 180.729227 
L 171.438523 176.980884 
L 184.965795 172.247932 
L 198.493068 166.392533 
L 212.020341 165.703144 
L 225.547614 155.339407 
L 239.074886 148.679404 
L 252.602159 143.820322 
L 266.129432 139.811164 
L 279.656705 136.019412 
L 293.183977 132.181342 
L 306.71125 127.402818 
L 320.238523 123.351003 
L 333.765795 119.617183 
L 347.293068 116.805201 
L 360.820341 112.8356 
L 374.347614 110.530666 
L 387.874886 108.48111 
L 401.402159 105.626847 
L 414.929432 103.546052 
L 428.456705 99.774503 
L 441.983977 97.709958 
L 455.51125 95.758231 
L 469.038523 94.245129 
L 482.565795 92.511013 
L 496.093068 91.069177 
L 509.620341 89.689129 
L 523.147614 88.096192 
L 536.674886 86.602794 
L 550.202159 85.098317 
L 563.729432 83.947569 
L 577.256705 82.926574 
L 590.783977 81.905194 
L 604.31125 80.888508 
L 617.838523 79.735963 
L 631.365795 78.721763 
L 644.893068 77.829154 
L 658.420341 76.99174 
L 671.947614 76.235427 
L 685.474886 75.483052 
" style="fill:none;stroke:#e31a1c;stroke-linecap:round;stroke-width:1.5;"/>
   </g>
   <g id="line2d_60">
    <path clip-path="url(#p99c1003b3f)" d="M 76.747614 178.391397 
L 90.274886 172.325028 
L 103.802159 167.715143 
L 117.329432 162.688304 
L 130.856705 157.102982 
L 144.383977 157.102982 
L 157.91125 148.85388 
L 171.438523 145.769732 
L 184.965795 139.300206 
L 198.493068 135.798485 
L 212.020341 132.082105 
L 225.547614 127.730584 
L 239.074886 124.032186 
L 252.602159 120.088815 
L 266.129432 118.074371 
L 279.656705 114.960221 
L 293.183977 110.228699 
L 306.71125 107.543338 
L 320.238523 106.445253 
L 333.765795 103.890042 
L 347.293068 93.795788 
L 360.820341 93.795788 
L 374.347614 91.212045 
L 387.874886 87.991902 
L 401.402159 86.938777 
L 414.929432 85.685493 
L 428.456705 83.917161 
L 441.983977 82.784531 
L 455.51125 82.109852 
L 469.038523 81.173209 
L 482.565795 79.769783 
L 496.093068 78.826284 
L 509.620341 75.518439 
L 523.147614 78.804699 
L 536.674886 78.036194 
L 550.202159 77.88083 
L 563.729432 77.332135 
L 577.256705 76.819544 
L 590.783977 76.473367 
L 604.31125 76.163552 
L 617.838523 76.4826 
L 631.365795 76.171384 
L 644.893068 76.057453 
L 658.420341 75.370056 
L 671.947614 75.370056 
L 685.474886 75.357527 
" style="fill:none;stroke:#fdbf6f;stroke-linecap:round;stroke-width:1.5;"/>
   </g>
   <g id="line2d_61">
    <path clip-path="url(#p99c1003b3f)" d="M 76.747614 132.667886 
L 90.274886 128.969606 
L 103.802159 125.394747 
L 117.329432 121.619629 
L 130.856705 117.43567 
L 144.383977 113.334289 
L 157.91125 109.402323 
L 171.438523 106.428441 
L 184.965795 104.083069 
L 198.493068 101.70625 
L 212.020341 99.519138 
L 225.547614 97.106711 
L 239.074886 94.97546 
L 252.602159 92.963922 
L 266.129432 91.310855 
L 279.656705 90.087336 
L 293.183977 88.910731 
L 306.71125 87.579132 
L 320.238523 86.3337 
L 333.765795 85.158583 
L 347.293068 83.974382 
L 360.820341 82.948989 
L 374.347614 82.119849 
L 387.874886 81.437069 
L 401.402159 80.596751 
L 414.929432 79.701971 
L 428.456705 78.884598 
L 441.983977 77.941495 
L 455.51125 77.142766 
L 469.038523 76.541454 
L 482.565795 75.985445 
L 496.093068 75.495087 
L 509.620341 74.812418 
L 523.147614 74.196016 
L 536.674886 73.592318 
L 550.202159 73.075113 
L 563.729432 72.697816 
L 577.256705 72.247642 
L 590.783977 71.700856 
L 604.31125 71.278389 
L 617.838523 70.803185 
L 631.365795 70.437566 
L 644.893068 70.081359 
L 658.420341 69.817546 
L 671.947614 69.503362 
L 685.474886 69.193162 
" style="fill:none;stroke:#ff7f00;stroke-linecap:round;stroke-width:1.5;"/>
   </g>
   <g id="line2d_62">
    <path clip-path="url(#p99c1003b3f)" d="M 76.747614 167.278028 
L 90.274886 161.734101 
L 103.802159 154.908457 
L 117.329432 143.718268 
L 130.856705 142.127426 
L 144.383977 138.468396 
L 157.91125 131.769795 
L 171.438523 128.133068 
L 184.965795 123.918187 
L 198.493068 118.450071 
L 212.020341 112.95871 
L 225.547614 107.125026 
L 239.074886 104.02094 
L 252.602159 100.397525 
L 266.129432 97.783258 
L 279.656705 95.432635 
L 293.183977 92.336971 
L 306.71125 89.970033 
L 320.238523 87.670796 
L 333.765795 85.69547 
L 347.293068 83.949259 
L 360.820341 82.528917 
L 374.347614 81.560389 
L 387.874886 80.362405 
L 401.402159 79.066177 
L 414.929432 77.906899 
L 428.456705 77.010145 
L 441.983977 76.103569 
L 455.51125 75.337927 
L 469.038523 74.713631 
L 482.565795 74.177332 
L 496.093068 73.301305 
L 509.620341 72.435043 
L 523.147614 71.577944 
L 536.674886 71.00173 
L 550.202159 70.346274 
L 563.729432 69.697556 
L 577.256705 69.106445 
L 590.783977 68.491568 
L 604.31125 67.828984 
L 617.838523 66.89077 
L 631.365795 66.348152 
L 644.893068 65.964283 
L 658.420341 65.595352 
L 671.947614 65.242172 
L 685.474886 64.629386 
" style="fill:none;stroke:#cab2d6;stroke-linecap:round;stroke-width:1.5;"/>
   </g>
   <g id="line2d_63">
    <path clip-path="url(#p99c1003b3f)" d="M 76.747614 222.592367 
L 90.274886 220.633424 
L 103.802159 217.70938 
L 117.329432 213.490872 
L 130.856705 211.777189 
L 144.383977 209.759775 
L 157.91125 206.02045 
L 171.438523 203.133305 
L 184.965795 201.15392 
L 198.493068 198.528228 
L 212.020341 195.567975 
L 225.547614 192.640149 
L 239.074886 189.768616 
L 252.602159 187.550972 
L 266.129432 185.647576 
L 279.656705 184.381299 
L 293.183977 183.153105 
L 306.71125 181.891825 
L 320.238523 180.058485 
L 333.765795 179.105156 
L 347.293068 177.694161 
L 360.820341 176.959691 
L 374.347614 176.559842 
L 387.874886 175.836891 
L 401.402159 174.917323 
L 414.929432 174.543525 
L 428.456705 173.885989 
L 441.983977 173.364462 
L 455.51125 173.004693 
L 469.038523 172.699703 
L 482.565795 172.370471 
L 496.093068 171.843029 
L 509.620341 171.364223 
L 523.147614 170.975293 
L 536.674886 170.548483 
L 550.202159 170.369223 
L 563.729432 170.161427 
L 577.256705 169.89216 
L 590.783977 169.542362 
L 604.31125 169.188395 
L 617.838523 168.850675 
L 631.365795 168.653062 
L 644.893068 168.580793 
L 658.420341 168.408851 
L 671.947614 168.150788 
L 685.474886 167.9106 
" style="fill:none;stroke:#6a3d9a;stroke-linecap:round;stroke-width:1.5;"/>
   </g>
   <g id="line2d_64">
    <path clip-path="url(#p99c1003b3f)" d="M 76.747614 228.132085 
L 90.274886 225.926873 
L 103.802159 223.922484 
L 117.329432 220.701236 
L 130.856705 218.351353 
L 144.383977 214.431627 
L 157.91125 212.115618 
L 171.438523 209.446677 
L 184.965795 207.751045 
L 198.493068 204.41025 
L 212.020341 201.403287 
L 225.547614 197.87424 
L 239.074886 195.765095 
L 252.602159 192.040028 
L 266.129432 189.906687 
L 279.656705 187.348397 
L 293.183977 184.449137 
L 306.71125 181.158437 
L 320.238523 178.153513 
L 333.765795 174.695436 
L 347.293068 173.200397 
L 360.820341 171.443497 
L 374.347614 169.829397 
L 387.874886 167.859659 
L 401.402159 165.143449 
L 414.929432 162.66523 
L 428.456705 160.924049 
L 441.983977 159.508602 
L 455.51125 158.539266 
L 469.038523 157.23201 
L 482.565795 155.894807 
L 496.093068 154.652311 
L 509.620341 153.142744 
L 523.147614 151.561313 
L 536.674886 150.210943 
L 550.202159 149.008426 
L 563.729432 148.198628 
L 577.256705 147.107755 
L 590.783977 145.796069 
L 604.31125 144.414834 
L 617.838523 142.989402 
L 631.365795 141.961265 
L 644.893068 141.20367 
L 658.420341 140.745041 
L 671.947614 139.658807 
L 685.474886 138.63115 
" style="fill:none;stroke:#ffff99;stroke-linecap:round;stroke-width:1.5;"/>
   </g>
   <g id="line2d_65">
    <path clip-path="url(#p99c1003b3f)" d="M 76.747614 271.8 
L 90.274886 267.870786 
L 103.802159 263.445271 
L 117.329432 256.911895 
L 130.856705 256.911895 
L 144.383977 253.364294 
L 157.91125 248.836269 
L 171.438523 243.421666 
L 184.965795 240.056382 
L 198.493068 236.337158 
L 212.020341 233.16372 
L 225.547614 230.60577 
L 239.074886 228.103138 
L 252.602159 224.661814 
L 266.129432 222.834294 
L 279.656705 220.229727 
L 293.183977 218.794144 
L 306.71125 218.205191 
L 320.238523 216.741593 
L 333.765795 214.875934 
L 347.293068 210.267603 
L 360.820341 209.555891 
L 374.347614 205.895615 
L 387.874886 204.121769 
L 401.402159 201.871947 
L 414.929432 200.475728 
L 428.456705 198.636807 
L 441.983977 197.192649 
L 455.51125 196.485603 
L 469.038523 195.587629 
L 482.565795 194.64888 
L 496.093068 193.933278 
L 509.620341 192.72942 
L 523.147614 191.675251 
L 536.674886 190.061755 
L 550.202159 189.238494 
L 563.729432 188.569225 
L 577.256705 187.453266 
L 590.783977 186.602472 
L 604.31125 185.492501 
L 617.838523 184.722025 
L 631.365795 184.178699 
L 644.893068 183.506458 
L 658.420341 182.733197 
L 671.947614 182.445884 
L 685.474886 181.409106 
" style="fill:none;stroke:#b15928;stroke-linecap:round;stroke-width:1.5;"/>
   </g>
   <g id="line2d_66"/>
   <g id="line2d_67"/>
   <g id="line2d_68"/>
   <g id="line2d_69"/>
   <g id="line2d_70"/>
   <g id="line2d_71"/>
   <g id="line2d_72"/>
   <g id="line2d_73"/>
   <g id="line2d_74"/>
   <g id="line2d_75"/>
   <g id="line2d_76"/>
   <g id="line2d_77"/>
   <g id="line2d_78"/>
   <g id="patch_3">
    <path d="M 46.31125 284.4 
L 46.31125 7.2 
" style="fill:none;stroke:#ffffff;stroke-linecap:square;stroke-linejoin:miter;stroke-width:1.25;"/>
   </g>
   <g id="legend_1">
    <g id="patch_4">
     <path d="M 723.61125 225.897187 
L 809.560781 225.897187 
Q 811.760781 225.897187 811.760781 223.697187 
L 811.760781 14.9 
Q 811.760781 12.7 809.560781 12.7 
L 723.61125 12.7 
Q 721.41125 12.7 721.41125 14.9 
L 721.41125 223.697187 
Q 721.41125 225.897187 723.61125 225.897187 
z
" style="fill:#eaeaf2;opacity:0.8;stroke:#cccccc;stroke-linejoin:miter;"/>
    </g>
    <g id="line2d_79">
     <path d="M 725.81125 21.608281 
L 747.81125 21.608281 
" style="fill:none;"/>
    </g>
    <g id="line2d_80"/>
    <g id="text_56">
     <!-- Country -->
     <defs>
      <path d="M 8.5 21.578125 
L 8.5 54.6875 
L 17.484375 54.6875 
L 17.484375 21.921875 
Q 17.484375 14.15625 20.5 10.265625 
Q 23.53125 6.390625 29.59375 6.390625 
Q 36.859375 6.390625 41.078125 11.03125 
Q 45.3125 15.671875 45.3125 23.6875 
L 45.3125 54.6875 
L 54.296875 54.6875 
L 54.296875 0 
L 45.3125 0 
L 45.3125 8.40625 
Q 42.046875 3.421875 37.71875 1 
Q 33.40625 -1.421875 27.6875 -1.421875 
Q 18.265625 -1.421875 13.375 4.4375 
Q 8.5 10.296875 8.5 21.578125 
z
M 31.109375 56 
z
" id="DejaVuSans-117"/>
      <path d="M 54.890625 33.015625 
L 54.890625 0 
L 45.90625 0 
L 45.90625 32.71875 
Q 45.90625 40.484375 42.875 44.328125 
Q 39.84375 48.1875 33.796875 48.1875 
Q 26.515625 48.1875 22.3125 43.546875 
Q 18.109375 38.921875 18.109375 30.90625 
L 18.109375 0 
L 9.078125 0 
L 9.078125 54.6875 
L 18.109375 54.6875 
L 18.109375 46.1875 
Q 21.34375 51.125 25.703125 53.5625 
Q 30.078125 56 35.796875 56 
Q 45.21875 56 50.046875 50.171875 
Q 54.890625 44.34375 54.890625 33.015625 
z
" id="DejaVuSans-110"/>
      <path d="M 41.109375 46.296875 
Q 39.59375 47.171875 37.8125 47.578125 
Q 36.03125 48 33.890625 48 
Q 26.265625 48 22.1875 43.046875 
Q 18.109375 38.09375 18.109375 28.8125 
L 18.109375 0 
L 9.078125 0 
L 9.078125 54.6875 
L 18.109375 54.6875 
L 18.109375 46.1875 
Q 20.953125 51.171875 25.484375 53.578125 
Q 30.03125 56 36.53125 56 
Q 37.453125 56 38.578125 55.875 
Q 39.703125 55.765625 41.0625 55.515625 
z
" id="DejaVuSans-114"/>
     </defs>
     <g style="fill:#262626;" transform="translate(756.61125 25.458281)scale(0.11 -0.11)">
      <use xlink:href="#DejaVuSans-67"/>
      <use x="69.824219" xlink:href="#DejaVuSans-111"/>
      <use x="131.005859" xlink:href="#DejaVuSans-117"/>
      <use x="194.384766" xlink:href="#DejaVuSans-110"/>
      <use x="257.763672" xlink:href="#DejaVuSans-116"/>
      <use x="296.972656" xlink:href="#DejaVuSans-114"/>
      <use x="338.085938" xlink:href="#DejaVuSans-121"/>
     </g>
    </g>
    <g id="line2d_81">
     <path d="M 725.81125 37.754219 
L 747.81125 37.754219 
" style="fill:none;stroke:#a6cee3;stroke-linecap:round;stroke-width:1.5;"/>
    </g>
    <g id="line2d_82"/>
    <g id="text_57">
     <!-- China -->
     <defs>
      <path d="M 54.890625 33.015625 
L 54.890625 0 
L 45.90625 0 
L 45.90625 32.71875 
Q 45.90625 40.484375 42.875 44.328125 
Q 39.84375 48.1875 33.796875 48.1875 
Q 26.515625 48.1875 22.3125 43.546875 
Q 18.109375 38.921875 18.109375 30.90625 
L 18.109375 0 
L 9.078125 0 
L 9.078125 75.984375 
L 18.109375 75.984375 
L 18.109375 46.1875 
Q 21.34375 51.125 25.703125 53.5625 
Q 30.078125 56 35.796875 56 
Q 45.21875 56 50.046875 50.171875 
Q 54.890625 44.34375 54.890625 33.015625 
z
" id="DejaVuSans-104"/>
      <path d="M 9.421875 54.6875 
L 18.40625 54.6875 
L 18.40625 0 
L 9.421875 0 
z
M 9.421875 75.984375 
L 18.40625 75.984375 
L 18.40625 64.59375 
L 9.421875 64.59375 
z
" id="DejaVuSans-105"/>
     </defs>
     <g style="fill:#262626;" transform="translate(756.61125 41.604219)scale(0.11 -0.11)">
      <use xlink:href="#DejaVuSans-67"/>
      <use x="69.824219" xlink:href="#DejaVuSans-104"/>
      <use x="133.203125" xlink:href="#DejaVuSans-105"/>
      <use x="160.986328" xlink:href="#DejaVuSans-110"/>
      <use x="224.365234" xlink:href="#DejaVuSans-97"/>
     </g>
    </g>
    <g id="line2d_83">
     <path d="M 725.81125 53.900156 
L 747.81125 53.900156 
" style="fill:none;stroke:#1f78b4;stroke-linecap:round;stroke-width:1.5;"/>
    </g>
    <g id="line2d_84"/>
    <g id="text_58">
     <!-- USA -->
     <defs>
      <path d="M 8.6875 72.90625 
L 18.609375 72.90625 
L 18.609375 28.609375 
Q 18.609375 16.890625 22.84375 11.734375 
Q 27.09375 6.59375 36.625 6.59375 
Q 46.09375 6.59375 50.34375 11.734375 
Q 54.59375 16.890625 54.59375 28.609375 
L 54.59375 72.90625 
L 64.5 72.90625 
L 64.5 27.390625 
Q 64.5 13.140625 57.4375 5.859375 
Q 50.390625 -1.421875 36.625 -1.421875 
Q 22.796875 -1.421875 15.734375 5.859375 
Q 8.6875 13.140625 8.6875 27.390625 
z
" id="DejaVuSans-85"/>
      <path d="M 53.515625 70.515625 
L 53.515625 60.890625 
Q 47.90625 63.578125 42.921875 64.890625 
Q 37.9375 66.21875 33.296875 66.21875 
Q 25.25 66.21875 20.875 63.09375 
Q 16.5 59.96875 16.5 54.203125 
Q 16.5 49.359375 19.40625 46.890625 
Q 22.3125 44.4375 30.421875 42.921875 
L 36.375 41.703125 
Q 47.40625 39.59375 52.65625 34.296875 
Q 57.90625 29 57.90625 20.125 
Q 57.90625 9.515625 50.796875 4.046875 
Q 43.703125 -1.421875 29.984375 -1.421875 
Q 24.8125 -1.421875 18.96875 -0.25 
Q 13.140625 0.921875 6.890625 3.21875 
L 6.890625 13.375 
Q 12.890625 10.015625 18.65625 8.296875 
Q 24.421875 6.59375 29.984375 6.59375 
Q 38.421875 6.59375 43.015625 9.90625 
Q 47.609375 13.234375 47.609375 19.390625 
Q 47.609375 24.75 44.3125 27.78125 
Q 41.015625 30.8125 33.5 32.328125 
L 27.484375 33.5 
Q 16.453125 35.6875 11.515625 40.375 
Q 6.59375 45.0625 6.59375 53.421875 
Q 6.59375 63.09375 13.40625 68.65625 
Q 20.21875 74.21875 32.171875 74.21875 
Q 37.3125 74.21875 42.625 73.28125 
Q 47.953125 72.359375 53.515625 70.515625 
z
" id="DejaVuSans-83"/>
      <path d="M 34.1875 63.1875 
L 20.796875 26.90625 
L 47.609375 26.90625 
z
M 28.609375 72.90625 
L 39.796875 72.90625 
L 67.578125 0 
L 57.328125 0 
L 50.6875 18.703125 
L 17.828125 18.703125 
L 11.1875 0 
L 0.78125 0 
z
" id="DejaVuSans-65"/>
     </defs>
     <g style="fill:#262626;" transform="translate(756.61125 57.750156)scale(0.11 -0.11)">
      <use xlink:href="#DejaVuSans-85"/>
      <use x="73.193359" xlink:href="#DejaVuSans-83"/>
      <use x="136.685547" xlink:href="#DejaVuSans-65"/>
     </g>
    </g>
    <g id="line2d_85">
     <path d="M 725.81125 70.046094 
L 747.81125 70.046094 
" style="fill:none;stroke:#b2df8a;stroke-linecap:round;stroke-width:1.5;"/>
    </g>
    <g id="line2d_86"/>
    <g id="text_59">
     <!-- Australia -->
     <g style="fill:#262626;" transform="translate(756.61125 73.896094)scale(0.11 -0.11)">
      <use xlink:href="#DejaVuSans-65"/>
      <use x="68.408203" xlink:href="#DejaVuSans-117"/>
      <use x="131.787109" xlink:href="#DejaVuSans-115"/>
      <use x="183.886719" xlink:href="#DejaVuSans-116"/>
      <use x="223.095703" xlink:href="#DejaVuSans-114"/>
      <use x="264.208984" xlink:href="#DejaVuSans-97"/>
      <use x="325.488281" xlink:href="#DejaVuSans-108"/>
      <use x="353.271484" xlink:href="#DejaVuSans-105"/>
      <use x="381.054688" xlink:href="#DejaVuSans-97"/>
     </g>
    </g>
    <g id="line2d_87">
     <path d="M 725.81125 86.192031 
L 747.81125 86.192031 
" style="fill:none;stroke:#33a02c;stroke-linecap:round;stroke-width:1.5;"/>
    </g>
    <g id="line2d_88"/>
    <g id="text_60">
     <!-- Japan -->
     <defs>
      <path d="M 9.8125 72.90625 
L 19.671875 72.90625 
L 19.671875 5.078125 
Q 19.671875 -8.109375 14.671875 -14.0625 
Q 9.671875 -20.015625 -1.421875 -20.015625 
L -5.171875 -20.015625 
L -5.171875 -11.71875 
L -2.09375 -11.71875 
Q 4.4375 -11.71875 7.125 -8.046875 
Q 9.8125 -4.390625 9.8125 5.078125 
z
" id="DejaVuSans-74"/>
      <path d="M 18.109375 8.203125 
L 18.109375 -20.796875 
L 9.078125 -20.796875 
L 9.078125 54.6875 
L 18.109375 54.6875 
L 18.109375 46.390625 
Q 20.953125 51.265625 25.265625 53.625 
Q 29.59375 56 35.59375 56 
Q 45.5625 56 51.78125 48.09375 
Q 58.015625 40.1875 58.015625 27.296875 
Q 58.015625 14.40625 51.78125 6.484375 
Q 45.5625 -1.421875 35.59375 -1.421875 
Q 29.59375 -1.421875 25.265625 0.953125 
Q 20.953125 3.328125 18.109375 8.203125 
z
M 48.6875 27.296875 
Q 48.6875 37.203125 44.609375 42.84375 
Q 40.53125 48.484375 33.40625 48.484375 
Q 26.265625 48.484375 22.1875 42.84375 
Q 18.109375 37.203125 18.109375 27.296875 
Q 18.109375 17.390625 22.1875 11.75 
Q 26.265625 6.109375 33.40625 6.109375 
Q 40.53125 6.109375 44.609375 11.75 
Q 48.6875 17.390625 48.6875 27.296875 
z
" id="DejaVuSans-112"/>
     </defs>
     <g style="fill:#262626;" transform="translate(756.61125 90.042031)scale(0.11 -0.11)">
      <use xlink:href="#DejaVuSans-74"/>
      <use x="29.492188" xlink:href="#DejaVuSans-97"/>
      <use x="90.771484" xlink:href="#DejaVuSans-112"/>
      <use x="154.248047" xlink:href="#DejaVuSans-97"/>
      <use x="215.527344" xlink:href="#DejaVuSans-110"/>
     </g>
    </g>
    <g id="line2d_89">
     <path d="M 725.81125 102.337969 
L 747.81125 102.337969 
" style="fill:none;stroke:#fb9a99;stroke-linecap:round;stroke-width:1.5;"/>
    </g>
    <g id="line2d_90"/>
    <g id="text_61">
     <!-- Germany -->
     <defs>
      <path d="M 59.515625 10.40625 
L 59.515625 29.984375 
L 43.40625 29.984375 
L 43.40625 38.09375 
L 69.28125 38.09375 
L 69.28125 6.78125 
Q 63.578125 2.734375 56.6875 0.65625 
Q 49.8125 -1.421875 42 -1.421875 
Q 24.90625 -1.421875 15.25 8.5625 
Q 5.609375 18.5625 5.609375 36.375 
Q 5.609375 54.25 15.25 64.234375 
Q 24.90625 74.21875 42 74.21875 
Q 49.125 74.21875 55.546875 72.453125 
Q 61.96875 70.703125 67.390625 67.28125 
L 67.390625 56.78125 
Q 61.921875 61.421875 55.765625 63.765625 
Q 49.609375 66.109375 42.828125 66.109375 
Q 29.4375 66.109375 22.71875 58.640625 
Q 16.015625 51.171875 16.015625 36.375 
Q 16.015625 21.625 22.71875 14.15625 
Q 29.4375 6.6875 42.828125 6.6875 
Q 48.046875 6.6875 52.140625 7.59375 
Q 56.25 8.5 59.515625 10.40625 
z
" id="DejaVuSans-71"/>
      <path d="M 52 44.1875 
Q 55.375 50.25 60.0625 53.125 
Q 64.75 56 71.09375 56 
Q 79.640625 56 84.28125 50.015625 
Q 88.921875 44.046875 88.921875 33.015625 
L 88.921875 0 
L 79.890625 0 
L 79.890625 32.71875 
Q 79.890625 40.578125 77.09375 44.375 
Q 74.3125 48.1875 68.609375 48.1875 
Q 61.625 48.1875 57.5625 43.546875 
Q 53.515625 38.921875 53.515625 30.90625 
L 53.515625 0 
L 44.484375 0 
L 44.484375 32.71875 
Q 44.484375 40.625 41.703125 44.40625 
Q 38.921875 48.1875 33.109375 48.1875 
Q 26.21875 48.1875 22.15625 43.53125 
Q 18.109375 38.875 18.109375 30.90625 
L 18.109375 0 
L 9.078125 0 
L 9.078125 54.6875 
L 18.109375 54.6875 
L 18.109375 46.1875 
Q 21.1875 51.21875 25.484375 53.609375 
Q 29.78125 56 35.6875 56 
Q 41.65625 56 45.828125 52.96875 
Q 50 49.953125 52 44.1875 
z
" id="DejaVuSans-109"/>
     </defs>
     <g style="fill:#262626;" transform="translate(756.61125 106.187969)scale(0.11 -0.11)">
      <use xlink:href="#DejaVuSans-71"/>
      <use x="77.490234" xlink:href="#DejaVuSans-101"/>
      <use x="139.013672" xlink:href="#DejaVuSans-114"/>
      <use x="180.111328" xlink:href="#DejaVuSans-109"/>
      <use x="277.523438" xlink:href="#DejaVuSans-97"/>
      <use x="338.802734" xlink:href="#DejaVuSans-110"/>
      <use x="402.181641" xlink:href="#DejaVuSans-121"/>
     </g>
    </g>
    <g id="line2d_91">
     <path d="M 725.81125 118.483906 
L 747.81125 118.483906 
" style="fill:none;stroke:#e31a1c;stroke-linecap:round;stroke-width:1.5;"/>
    </g>
    <g id="line2d_92"/>
    <g id="text_62">
     <!-- UK -->
     <defs>
      <path d="M 9.8125 72.90625 
L 19.671875 72.90625 
L 19.671875 42.09375 
L 52.390625 72.90625 
L 65.09375 72.90625 
L 28.90625 38.921875 
L 67.671875 0 
L 54.6875 0 
L 19.671875 35.109375 
L 19.671875 0 
L 9.8125 0 
z
" id="DejaVuSans-75"/>
     </defs>
     <g style="fill:#262626;" transform="translate(756.61125 122.333906)scale(0.11 -0.11)">
      <use xlink:href="#DejaVuSans-85"/>
      <use x="73.193359" xlink:href="#DejaVuSans-75"/>
     </g>
    </g>
    <g id="line2d_93">
     <path d="M 725.81125 134.629844 
L 747.81125 134.629844 
" style="fill:none;stroke:#fdbf6f;stroke-linecap:round;stroke-width:1.5;"/>
    </g>
    <g id="line2d_94"/>
    <g id="text_63">
     <!-- France -->
     <defs>
      <path d="M 9.8125 72.90625 
L 51.703125 72.90625 
L 51.703125 64.59375 
L 19.671875 64.59375 
L 19.671875 43.109375 
L 48.578125 43.109375 
L 48.578125 34.8125 
L 19.671875 34.8125 
L 19.671875 0 
L 9.8125 0 
z
" id="DejaVuSans-70"/>
     </defs>
     <g style="fill:#262626;" transform="translate(756.61125 138.479844)scale(0.11 -0.11)">
      <use xlink:href="#DejaVuSans-70"/>
      <use x="57.410156" xlink:href="#DejaVuSans-114"/>
      <use x="98.523438" xlink:href="#DejaVuSans-97"/>
      <use x="159.802734" xlink:href="#DejaVuSans-110"/>
      <use x="223.181641" xlink:href="#DejaVuSans-99"/>
      <use x="278.162109" xlink:href="#DejaVuSans-101"/>
     </g>
    </g>
    <g id="line2d_95">
     <path d="M 725.81125 150.775781 
L 747.81125 150.775781 
" style="fill:none;stroke:#ff7f00;stroke-linecap:round;stroke-width:1.5;"/>
    </g>
    <g id="line2d_96"/>
    <g id="text_64">
     <!-- Italy -->
     <defs>
      <path d="M 9.8125 72.90625 
L 19.671875 72.90625 
L 19.671875 0 
L 9.8125 0 
z
" id="DejaVuSans-73"/>
     </defs>
     <g style="fill:#262626;" transform="translate(756.61125 154.625781)scale(0.11 -0.11)">
      <use xlink:href="#DejaVuSans-73"/>
      <use x="29.492188" xlink:href="#DejaVuSans-116"/>
      <use x="68.701172" xlink:href="#DejaVuSans-97"/>
      <use x="129.980469" xlink:href="#DejaVuSans-108"/>
      <use x="157.763672" xlink:href="#DejaVuSans-121"/>
     </g>
    </g>
    <g id="line2d_97">
     <path d="M 725.81125 166.921719 
L 747.81125 166.921719 
" style="fill:none;stroke:#cab2d6;stroke-linecap:round;stroke-width:1.5;"/>
    </g>
    <g id="line2d_98"/>
    <g id="text_65">
     <!-- Spain -->
     <g style="fill:#262626;" transform="translate(756.61125 170.771719)scale(0.11 -0.11)">
      <use xlink:href="#DejaVuSans-83"/>
      <use x="63.476562" xlink:href="#DejaVuSans-112"/>
      <use x="126.953125" xlink:href="#DejaVuSans-97"/>
      <use x="188.232422" xlink:href="#DejaVuSans-105"/>
      <use x="216.015625" xlink:href="#DejaVuSans-110"/>
     </g>
    </g>
    <g id="line2d_99">
     <path d="M 725.81125 183.067656 
L 747.81125 183.067656 
" style="fill:none;stroke:#6a3d9a;stroke-linecap:round;stroke-width:1.5;"/>
    </g>
    <g id="line2d_100"/>
    <g id="text_66">
     <!-- Norway -->
     <defs>
      <path d="M 9.8125 72.90625 
L 23.09375 72.90625 
L 55.421875 11.921875 
L 55.421875 72.90625 
L 64.984375 72.90625 
L 64.984375 0 
L 51.703125 0 
L 19.390625 60.984375 
L 19.390625 0 
L 9.8125 0 
z
" id="DejaVuSans-78"/>
      <path d="M 4.203125 54.6875 
L 13.1875 54.6875 
L 24.421875 12.015625 
L 35.59375 54.6875 
L 46.1875 54.6875 
L 57.421875 12.015625 
L 68.609375 54.6875 
L 77.59375 54.6875 
L 63.28125 0 
L 52.6875 0 
L 40.921875 44.828125 
L 29.109375 0 
L 18.5 0 
z
" id="DejaVuSans-119"/>
     </defs>
     <g style="fill:#262626;" transform="translate(756.61125 186.917656)scale(0.11 -0.11)">
      <use xlink:href="#DejaVuSans-78"/>
      <use x="74.804688" xlink:href="#DejaVuSans-111"/>
      <use x="135.986328" xlink:href="#DejaVuSans-114"/>
      <use x="177.099609" xlink:href="#DejaVuSans-119"/>
      <use x="258.886719" xlink:href="#DejaVuSans-97"/>
      <use x="320.166016" xlink:href="#DejaVuSans-121"/>
     </g>
    </g>
    <g id="line2d_101">
     <path d="M 725.81125 199.213594 
L 747.81125 199.213594 
" style="fill:none;stroke:#ffff99;stroke-linecap:round;stroke-width:1.5;"/>
    </g>
    <g id="line2d_102"/>
    <g id="text_67">
     <!-- Sweden -->
     <defs>
      <path d="M 45.40625 46.390625 
L 45.40625 75.984375 
L 54.390625 75.984375 
L 54.390625 0 
L 45.40625 0 
L 45.40625 8.203125 
Q 42.578125 3.328125 38.25 0.953125 
Q 33.9375 -1.421875 27.875 -1.421875 
Q 17.96875 -1.421875 11.734375 6.484375 
Q 5.515625 14.40625 5.515625 27.296875 
Q 5.515625 40.1875 11.734375 48.09375 
Q 17.96875 56 27.875 56 
Q 33.9375 56 38.25 53.625 
Q 42.578125 51.265625 45.40625 46.390625 
z
M 14.796875 27.296875 
Q 14.796875 17.390625 18.875 11.75 
Q 22.953125 6.109375 30.078125 6.109375 
Q 37.203125 6.109375 41.296875 11.75 
Q 45.40625 17.390625 45.40625 27.296875 
Q 45.40625 37.203125 41.296875 42.84375 
Q 37.203125 48.484375 30.078125 48.484375 
Q 22.953125 48.484375 18.875 42.84375 
Q 14.796875 37.203125 14.796875 27.296875 
z
" id="DejaVuSans-100"/>
     </defs>
     <g style="fill:#262626;" transform="translate(756.61125 203.063594)scale(0.11 -0.11)">
      <use xlink:href="#DejaVuSans-83"/>
      <use x="63.476562" xlink:href="#DejaVuSans-119"/>
      <use x="145.263672" xlink:href="#DejaVuSans-101"/>
      <use x="206.787109" xlink:href="#DejaVuSans-100"/>
      <use x="270.263672" xlink:href="#DejaVuSans-101"/>
      <use x="331.787109" xlink:href="#DejaVuSans-110"/>
     </g>
    </g>
    <g id="line2d_103">
     <path d="M 725.81125 215.359531 
L 747.81125 215.359531 
" style="fill:none;stroke:#b15928;stroke-linecap:round;stroke-width:1.5;"/>
    </g>
    <g id="line2d_104"/>
    <g id="text_68">
     <!-- Finland -->
     <g style="fill:#262626;" transform="translate(756.61125 219.209531)scale(0.11 -0.11)">
      <use xlink:href="#DejaVuSans-70"/>
      <use x="57.410156" xlink:href="#DejaVuSans-105"/>
      <use x="85.193359" xlink:href="#DejaVuSans-110"/>
      <use x="148.572266" xlink:href="#DejaVuSans-108"/>
      <use x="176.355469" xlink:href="#DejaVuSans-97"/>
      <use x="237.634766" xlink:href="#DejaVuSans-110"/>
      <use x="301.013672" xlink:href="#DejaVuSans-100"/>
     </g>
    </g>
   </g>
  </g>
 </g>
 <defs>
  <clipPath id="p99c1003b3f">
   <rect height="277.2" width="669.6" x="46.31125" y="7.2"/>
  </clipPath>
 </defs>
</svg>
