<?xml version="1.0" encoding="utf-8" standalone="no"?>
<!DOCTYPE svg PUBLIC "-//W3C//DTD SVG 1.1//EN"
  "http://www.w3.org/Graphics/SVG/1.1/DTD/svg11.dtd">
<!-- Created with matplotlib (https://matplotlib.org/) -->
<svg height="380.640937pt" version="1.1" viewBox="0 0 717.855469 380.640937" width="717.855469pt" xmlns="http://www.w3.org/2000/svg" xmlns:xlink="http://www.w3.org/1999/xlink">
 <defs>
  <style type="text/css">
*{stroke-linecap:butt;stroke-linejoin:round;}
  </style>
 </defs>
 <g id="figure_1">
  <g id="patch_1">
   <path d="M 0 380.640937 
L 717.855469 380.640937 
L 717.855469 0 
L 0 0 
z
" style="fill:#ffffff;"/>
  </g>
  <g id="axes_1">
   <g id="patch_2">
    <path d="M 56.805938 284.4 
L 614.805938 284.4 
L 614.805938 7.2 
L 56.805938 7.2 
z
" style="fill:#eaeaf2;"/>
   </g>
   <g id="matplotlib.axis_1">
    <g id="xtick_1">
     <g id="line2d_1">
      <path clip-path="url(#p6d3fa6340c)" d="M 82.169574 284.4 
L 82.169574 7.2 
" style="fill:none;stroke:#ffffff;stroke-linecap:round;"/>
     </g>
     <g id="text_1">
      <!-- 2020-03-17 -->
      <defs>
       <path d="M 19.1875 8.296875 
L 53.609375 8.296875 
L 53.609375 0 
L 7.328125 0 
L 7.328125 8.296875 
Q 12.9375 14.109375 22.625 23.890625 
Q 32.328125 33.6875 34.8125 36.53125 
Q 39.546875 41.84375 41.421875 45.53125 
Q 43.3125 49.21875 43.3125 52.78125 
Q 43.3125 58.59375 39.234375 62.25 
Q 35.15625 65.921875 28.609375 65.921875 
Q 23.96875 65.921875 18.8125 64.3125 
Q 13.671875 62.703125 7.8125 59.421875 
L 7.8125 69.390625 
Q 13.765625 71.78125 18.9375 73 
Q 24.125 74.21875 28.421875 74.21875 
Q 39.75 74.21875 46.484375 68.546875 
Q 53.21875 62.890625 53.21875 53.421875 
Q 53.21875 48.921875 51.53125 44.890625 
Q 49.859375 40.875 45.40625 35.40625 
Q 44.1875 33.984375 37.640625 27.21875 
Q 31.109375 20.453125 19.1875 8.296875 
z
" id="DejaVuSans-50"/>
       <path d="M 31.78125 66.40625 
Q 24.171875 66.40625 20.328125 58.90625 
Q 16.5 51.421875 16.5 36.375 
Q 16.5 21.390625 20.328125 13.890625 
Q 24.171875 6.390625 31.78125 6.390625 
Q 39.453125 6.390625 43.28125 13.890625 
Q 47.125 21.390625 47.125 36.375 
Q 47.125 51.421875 43.28125 58.90625 
Q 39.453125 66.40625 31.78125 66.40625 
z
M 31.78125 74.21875 
Q 44.046875 74.21875 50.515625 64.515625 
Q 56.984375 54.828125 56.984375 36.375 
Q 56.984375 17.96875 50.515625 8.265625 
Q 44.046875 -1.421875 31.78125 -1.421875 
Q 19.53125 -1.421875 13.0625 8.265625 
Q 6.59375 17.96875 6.59375 36.375 
Q 6.59375 54.828125 13.0625 64.515625 
Q 19.53125 74.21875 31.78125 74.21875 
z
" id="DejaVuSans-48"/>
       <path d="M 4.890625 31.390625 
L 31.203125 31.390625 
L 31.203125 23.390625 
L 4.890625 23.390625 
z
" id="DejaVuSans-45"/>
       <path d="M 40.578125 39.3125 
Q 47.65625 37.796875 51.625 33 
Q 55.609375 28.21875 55.609375 21.1875 
Q 55.609375 10.40625 48.1875 4.484375 
Q 40.765625 -1.421875 27.09375 -1.421875 
Q 22.515625 -1.421875 17.65625 -0.515625 
Q 12.796875 0.390625 7.625 2.203125 
L 7.625 11.71875 
Q 11.71875 9.328125 16.59375 8.109375 
Q 21.484375 6.890625 26.8125 6.890625 
Q 36.078125 6.890625 40.9375 10.546875 
Q 45.796875 14.203125 45.796875 21.1875 
Q 45.796875 27.640625 41.28125 31.265625 
Q 36.765625 34.90625 28.71875 34.90625 
L 20.21875 34.90625 
L 20.21875 43.015625 
L 29.109375 43.015625 
Q 36.375 43.015625 40.234375 45.921875 
Q 44.09375 48.828125 44.09375 54.296875 
Q 44.09375 59.90625 40.109375 62.90625 
Q 36.140625 65.921875 28.71875 65.921875 
Q 24.65625 65.921875 20.015625 65.03125 
Q 15.375 64.15625 9.8125 62.3125 
L 9.8125 71.09375 
Q 15.4375 72.65625 20.34375 73.4375 
Q 25.25 74.21875 29.59375 74.21875 
Q 40.828125 74.21875 47.359375 69.109375 
Q 53.90625 64.015625 53.90625 55.328125 
Q 53.90625 49.265625 50.4375 45.09375 
Q 46.96875 40.921875 40.578125 39.3125 
z
" id="DejaVuSans-51"/>
       <path d="M 12.40625 8.296875 
L 28.515625 8.296875 
L 28.515625 63.921875 
L 10.984375 60.40625 
L 10.984375 69.390625 
L 28.421875 72.90625 
L 38.28125 72.90625 
L 38.28125 8.296875 
L 54.390625 8.296875 
L 54.390625 0 
L 12.40625 0 
z
" id="DejaVuSans-49"/>
       <path d="M 8.203125 72.90625 
L 55.078125 72.90625 
L 55.078125 68.703125 
L 28.609375 0 
L 18.3125 0 
L 43.21875 64.59375 
L 8.203125 64.59375 
z
" id="DejaVuSans-55"/>
      </defs>
      <g style="fill:#262626;" transform="translate(79.881918 357.827187)rotate(-90)scale(0.11 -0.11)">
       <use xlink:href="#DejaVuSans-50"/>
       <use x="63.623047" xlink:href="#DejaVuSans-48"/>
       <use x="127.246094" xlink:href="#DejaVuSans-50"/>
       <use x="190.869141" xlink:href="#DejaVuSans-48"/>
       <use x="254.492188" xlink:href="#DejaVuSans-45"/>
       <use x="290.576172" xlink:href="#DejaVuSans-48"/>
       <use x="354.199219" xlink:href="#DejaVuSans-51"/>
       <use x="417.822266" xlink:href="#DejaVuSans-45"/>
       <use x="453.90625" xlink:href="#DejaVuSans-49"/>
       <use x="517.529297" xlink:href="#DejaVuSans-55"/>
      </g>
     </g>
    </g>
    <g id="xtick_2">
     <g id="line2d_2">
      <path clip-path="url(#p6d3fa6340c)" d="M 103.305938 284.4 
L 103.305938 7.2 
" style="fill:none;stroke:#ffffff;stroke-linecap:round;"/>
     </g>
     <g id="text_2">
      <!-- 2020-03-18 -->
      <defs>
       <path d="M 31.78125 34.625 
Q 24.75 34.625 20.71875 30.859375 
Q 16.703125 27.09375 16.703125 20.515625 
Q 16.703125 13.921875 20.71875 10.15625 
Q 24.75 6.390625 31.78125 6.390625 
Q 38.8125 6.390625 42.859375 10.171875 
Q 46.921875 13.96875 46.921875 20.515625 
Q 46.921875 27.09375 42.890625 30.859375 
Q 38.875 34.625 31.78125 34.625 
z
M 21.921875 38.8125 
Q 15.578125 40.375 12.03125 44.71875 
Q 8.5 49.078125 8.5 55.328125 
Q 8.5 64.0625 14.71875 69.140625 
Q 20.953125 74.21875 31.78125 74.21875 
Q 42.671875 74.21875 48.875 69.140625 
Q 55.078125 64.0625 55.078125 55.328125 
Q 55.078125 49.078125 51.53125 44.71875 
Q 48 40.375 41.703125 38.8125 
Q 48.828125 37.15625 52.796875 32.3125 
Q 56.78125 27.484375 56.78125 20.515625 
Q 56.78125 9.90625 50.3125 4.234375 
Q 43.84375 -1.421875 31.78125 -1.421875 
Q 19.734375 -1.421875 13.25 4.234375 
Q 6.78125 9.90625 6.78125 20.515625 
Q 6.78125 27.484375 10.78125 32.3125 
Q 14.796875 37.15625 21.921875 38.8125 
z
M 18.3125 54.390625 
Q 18.3125 48.734375 21.84375 45.5625 
Q 25.390625 42.390625 31.78125 42.390625 
Q 38.140625 42.390625 41.71875 45.5625 
Q 45.3125 48.734375 45.3125 54.390625 
Q 45.3125 60.0625 41.71875 63.234375 
Q 38.140625 66.40625 31.78125 66.40625 
Q 25.390625 66.40625 21.84375 63.234375 
Q 18.3125 60.0625 18.3125 54.390625 
z
" id="DejaVuSans-56"/>
      </defs>
      <g style="fill:#262626;" transform="translate(101.018281 357.827187)rotate(-90)scale(0.11 -0.11)">
       <use xlink:href="#DejaVuSans-50"/>
       <use x="63.623047" xlink:href="#DejaVuSans-48"/>
       <use x="127.246094" xlink:href="#DejaVuSans-50"/>
       <use x="190.869141" xlink:href="#DejaVuSans-48"/>
       <use x="254.492188" xlink:href="#DejaVuSans-45"/>
       <use x="290.576172" xlink:href="#DejaVuSans-48"/>
       <use x="354.199219" xlink:href="#DejaVuSans-51"/>
       <use x="417.822266" xlink:href="#DejaVuSans-45"/>
       <use x="453.90625" xlink:href="#DejaVuSans-49"/>
       <use x="517.529297" xlink:href="#DejaVuSans-56"/>
      </g>
     </g>
    </g>
    <g id="xtick_3">
     <g id="line2d_3">
      <path clip-path="url(#p6d3fa6340c)" d="M 124.442301 284.4 
L 124.442301 7.2 
" style="fill:none;stroke:#ffffff;stroke-linecap:round;"/>
     </g>
     <g id="text_3">
      <!-- 2020-03-19 -->
      <defs>
       <path d="M 10.984375 1.515625 
L 10.984375 10.5 
Q 14.703125 8.734375 18.5 7.8125 
Q 22.3125 6.890625 25.984375 6.890625 
Q 35.75 6.890625 40.890625 13.453125 
Q 46.046875 20.015625 46.78125 33.40625 
Q 43.953125 29.203125 39.59375 26.953125 
Q 35.25 24.703125 29.984375 24.703125 
Q 19.046875 24.703125 12.671875 31.3125 
Q 6.296875 37.9375 6.296875 49.421875 
Q 6.296875 60.640625 12.9375 67.421875 
Q 19.578125 74.21875 30.609375 74.21875 
Q 43.265625 74.21875 49.921875 64.515625 
Q 56.59375 54.828125 56.59375 36.375 
Q 56.59375 19.140625 48.40625 8.859375 
Q 40.234375 -1.421875 26.421875 -1.421875 
Q 22.703125 -1.421875 18.890625 -0.6875 
Q 15.09375 0.046875 10.984375 1.515625 
z
M 30.609375 32.421875 
Q 37.25 32.421875 41.125 36.953125 
Q 45.015625 41.5 45.015625 49.421875 
Q 45.015625 57.28125 41.125 61.84375 
Q 37.25 66.40625 30.609375 66.40625 
Q 23.96875 66.40625 20.09375 61.84375 
Q 16.21875 57.28125 16.21875 49.421875 
Q 16.21875 41.5 20.09375 36.953125 
Q 23.96875 32.421875 30.609375 32.421875 
z
" id="DejaVuSans-57"/>
      </defs>
      <g style="fill:#262626;" transform="translate(122.154645 357.827187)rotate(-90)scale(0.11 -0.11)">
       <use xlink:href="#DejaVuSans-50"/>
       <use x="63.623047" xlink:href="#DejaVuSans-48"/>
       <use x="127.246094" xlink:href="#DejaVuSans-50"/>
       <use x="190.869141" xlink:href="#DejaVuSans-48"/>
       <use x="254.492188" xlink:href="#DejaVuSans-45"/>
       <use x="290.576172" xlink:href="#DejaVuSans-48"/>
       <use x="354.199219" xlink:href="#DejaVuSans-51"/>
       <use x="417.822266" xlink:href="#DejaVuSans-45"/>
       <use x="453.90625" xlink:href="#DejaVuSans-49"/>
       <use x="517.529297" xlink:href="#DejaVuSans-57"/>
      </g>
     </g>
    </g>
    <g id="xtick_4">
     <g id="line2d_4">
      <path clip-path="url(#p6d3fa6340c)" d="M 145.578665 284.4 
L 145.578665 7.2 
" style="fill:none;stroke:#ffffff;stroke-linecap:round;"/>
     </g>
     <g id="text_4">
      <!-- 2020-03-20 -->
      <g style="fill:#262626;" transform="translate(143.291009 357.827187)rotate(-90)scale(0.11 -0.11)">
       <use xlink:href="#DejaVuSans-50"/>
       <use x="63.623047" xlink:href="#DejaVuSans-48"/>
       <use x="127.246094" xlink:href="#DejaVuSans-50"/>
       <use x="190.869141" xlink:href="#DejaVuSans-48"/>
       <use x="254.492188" xlink:href="#DejaVuSans-45"/>
       <use x="290.576172" xlink:href="#DejaVuSans-48"/>
       <use x="354.199219" xlink:href="#DejaVuSans-51"/>
       <use x="417.822266" xlink:href="#DejaVuSans-45"/>
       <use x="453.90625" xlink:href="#DejaVuSans-50"/>
       <use x="517.529297" xlink:href="#DejaVuSans-48"/>
      </g>
     </g>
    </g>
    <g id="xtick_5">
     <g id="line2d_5">
      <path clip-path="url(#p6d3fa6340c)" d="M 166.715028 284.4 
L 166.715028 7.2 
" style="fill:none;stroke:#ffffff;stroke-linecap:round;"/>
     </g>
     <g id="text_5">
      <!-- 2020-03-21 -->
      <g style="fill:#262626;" transform="translate(164.427372 357.827187)rotate(-90)scale(0.11 -0.11)">
       <use xlink:href="#DejaVuSans-50"/>
       <use x="63.623047" xlink:href="#DejaVuSans-48"/>
       <use x="127.246094" xlink:href="#DejaVuSans-50"/>
       <use x="190.869141" xlink:href="#DejaVuSans-48"/>
       <use x="254.492188" xlink:href="#DejaVuSans-45"/>
       <use x="290.576172" xlink:href="#DejaVuSans-48"/>
       <use x="354.199219" xlink:href="#DejaVuSans-51"/>
       <use x="417.822266" xlink:href="#DejaVuSans-45"/>
       <use x="453.90625" xlink:href="#DejaVuSans-50"/>
       <use x="517.529297" xlink:href="#DejaVuSans-49"/>
      </g>
     </g>
    </g>
    <g id="xtick_6">
     <g id="line2d_6">
      <path clip-path="url(#p6d3fa6340c)" d="M 187.851392 284.4 
L 187.851392 7.2 
" style="fill:none;stroke:#ffffff;stroke-linecap:round;"/>
     </g>
     <g id="text_6">
      <!-- 2020-03-22 -->
      <g style="fill:#262626;" transform="translate(185.563736 357.827187)rotate(-90)scale(0.11 -0.11)">
       <use xlink:href="#DejaVuSans-50"/>
       <use x="63.623047" xlink:href="#DejaVuSans-48"/>
       <use x="127.246094" xlink:href="#DejaVuSans-50"/>
       <use x="190.869141" xlink:href="#DejaVuSans-48"/>
       <use x="254.492188" xlink:href="#DejaVuSans-45"/>
       <use x="290.576172" xlink:href="#DejaVuSans-48"/>
       <use x="354.199219" xlink:href="#DejaVuSans-51"/>
       <use x="417.822266" xlink:href="#DejaVuSans-45"/>
       <use x="453.90625" xlink:href="#DejaVuSans-50"/>
       <use x="517.529297" xlink:href="#DejaVuSans-50"/>
      </g>
     </g>
    </g>
    <g id="xtick_7">
     <g id="line2d_7">
      <path clip-path="url(#p6d3fa6340c)" d="M 208.987756 284.4 
L 208.987756 7.2 
" style="fill:none;stroke:#ffffff;stroke-linecap:round;"/>
     </g>
     <g id="text_7">
      <!-- 2020-03-23 -->
      <g style="fill:#262626;" transform="translate(206.700099 357.827187)rotate(-90)scale(0.11 -0.11)">
       <use xlink:href="#DejaVuSans-50"/>
       <use x="63.623047" xlink:href="#DejaVuSans-48"/>
       <use x="127.246094" xlink:href="#DejaVuSans-50"/>
       <use x="190.869141" xlink:href="#DejaVuSans-48"/>
       <use x="254.492188" xlink:href="#DejaVuSans-45"/>
       <use x="290.576172" xlink:href="#DejaVuSans-48"/>
       <use x="354.199219" xlink:href="#DejaVuSans-51"/>
       <use x="417.822266" xlink:href="#DejaVuSans-45"/>
       <use x="453.90625" xlink:href="#DejaVuSans-50"/>
       <use x="517.529297" xlink:href="#DejaVuSans-51"/>
      </g>
     </g>
    </g>
    <g id="xtick_8">
     <g id="line2d_8">
      <path clip-path="url(#p6d3fa6340c)" d="M 230.124119 284.4 
L 230.124119 7.2 
" style="fill:none;stroke:#ffffff;stroke-linecap:round;"/>
     </g>
     <g id="text_8">
      <!-- 2020-03-24 -->
      <defs>
       <path d="M 37.796875 64.3125 
L 12.890625 25.390625 
L 37.796875 25.390625 
z
M 35.203125 72.90625 
L 47.609375 72.90625 
L 47.609375 25.390625 
L 58.015625 25.390625 
L 58.015625 17.1875 
L 47.609375 17.1875 
L 47.609375 0 
L 37.796875 0 
L 37.796875 17.1875 
L 4.890625 17.1875 
L 4.890625 26.703125 
z
" id="DejaVuSans-52"/>
      </defs>
      <g style="fill:#262626;" transform="translate(227.836463 357.827187)rotate(-90)scale(0.11 -0.11)">
       <use xlink:href="#DejaVuSans-50"/>
       <use x="63.623047" xlink:href="#DejaVuSans-48"/>
       <use x="127.246094" xlink:href="#DejaVuSans-50"/>
       <use x="190.869141" xlink:href="#DejaVuSans-48"/>
       <use x="254.492188" xlink:href="#DejaVuSans-45"/>
       <use x="290.576172" xlink:href="#DejaVuSans-48"/>
       <use x="354.199219" xlink:href="#DejaVuSans-51"/>
       <use x="417.822266" xlink:href="#DejaVuSans-45"/>
       <use x="453.90625" xlink:href="#DejaVuSans-50"/>
       <use x="517.529297" xlink:href="#DejaVuSans-52"/>
      </g>
     </g>
    </g>
    <g id="xtick_9">
     <g id="line2d_9">
      <path clip-path="url(#p6d3fa6340c)" d="M 251.260483 284.4 
L 251.260483 7.2 
" style="fill:none;stroke:#ffffff;stroke-linecap:round;"/>
     </g>
     <g id="text_9">
      <!-- 2020-03-25 -->
      <defs>
       <path d="M 10.796875 72.90625 
L 49.515625 72.90625 
L 49.515625 64.59375 
L 19.828125 64.59375 
L 19.828125 46.734375 
Q 21.96875 47.46875 24.109375 47.828125 
Q 26.265625 48.1875 28.421875 48.1875 
Q 40.625 48.1875 47.75 41.5 
Q 54.890625 34.8125 54.890625 23.390625 
Q 54.890625 11.625 47.5625 5.09375 
Q 40.234375 -1.421875 26.90625 -1.421875 
Q 22.3125 -1.421875 17.546875 -0.640625 
Q 12.796875 0.140625 7.71875 1.703125 
L 7.71875 11.625 
Q 12.109375 9.234375 16.796875 8.0625 
Q 21.484375 6.890625 26.703125 6.890625 
Q 35.15625 6.890625 40.078125 11.328125 
Q 45.015625 15.765625 45.015625 23.390625 
Q 45.015625 31 40.078125 35.4375 
Q 35.15625 39.890625 26.703125 39.890625 
Q 22.75 39.890625 18.8125 39.015625 
Q 14.890625 38.140625 10.796875 36.28125 
z
" id="DejaVuSans-53"/>
      </defs>
      <g style="fill:#262626;" transform="translate(248.972827 357.827187)rotate(-90)scale(0.11 -0.11)">
       <use xlink:href="#DejaVuSans-50"/>
       <use x="63.623047" xlink:href="#DejaVuSans-48"/>
       <use x="127.246094" xlink:href="#DejaVuSans-50"/>
       <use x="190.869141" xlink:href="#DejaVuSans-48"/>
       <use x="254.492188" xlink:href="#DejaVuSans-45"/>
       <use x="290.576172" xlink:href="#DejaVuSans-48"/>
       <use x="354.199219" xlink:href="#DejaVuSans-51"/>
       <use x="417.822266" xlink:href="#DejaVuSans-45"/>
       <use x="453.90625" xlink:href="#DejaVuSans-50"/>
       <use x="517.529297" xlink:href="#DejaVuSans-53"/>
      </g>
     </g>
    </g>
    <g id="xtick_10">
     <g id="line2d_10">
      <path clip-path="url(#p6d3fa6340c)" d="M 272.396847 284.4 
L 272.396847 7.2 
" style="fill:none;stroke:#ffffff;stroke-linecap:round;"/>
     </g>
     <g id="text_10">
      <!-- 2020-03-26 -->
      <defs>
       <path d="M 33.015625 40.375 
Q 26.375 40.375 22.484375 35.828125 
Q 18.609375 31.296875 18.609375 23.390625 
Q 18.609375 15.53125 22.484375 10.953125 
Q 26.375 6.390625 33.015625 6.390625 
Q 39.65625 6.390625 43.53125 10.953125 
Q 47.40625 15.53125 47.40625 23.390625 
Q 47.40625 31.296875 43.53125 35.828125 
Q 39.65625 40.375 33.015625 40.375 
z
M 52.59375 71.296875 
L 52.59375 62.3125 
Q 48.875 64.0625 45.09375 64.984375 
Q 41.3125 65.921875 37.59375 65.921875 
Q 27.828125 65.921875 22.671875 59.328125 
Q 17.53125 52.734375 16.796875 39.40625 
Q 19.671875 43.65625 24.015625 45.921875 
Q 28.375 48.1875 33.59375 48.1875 
Q 44.578125 48.1875 50.953125 41.515625 
Q 57.328125 34.859375 57.328125 23.390625 
Q 57.328125 12.15625 50.6875 5.359375 
Q 44.046875 -1.421875 33.015625 -1.421875 
Q 20.359375 -1.421875 13.671875 8.265625 
Q 6.984375 17.96875 6.984375 36.375 
Q 6.984375 53.65625 15.1875 63.9375 
Q 23.390625 74.21875 37.203125 74.21875 
Q 40.921875 74.21875 44.703125 73.484375 
Q 48.484375 72.75 52.59375 71.296875 
z
" id="DejaVuSans-54"/>
      </defs>
      <g style="fill:#262626;" transform="translate(270.10919 357.827187)rotate(-90)scale(0.11 -0.11)">
       <use xlink:href="#DejaVuSans-50"/>
       <use x="63.623047" xlink:href="#DejaVuSans-48"/>
       <use x="127.246094" xlink:href="#DejaVuSans-50"/>
       <use x="190.869141" xlink:href="#DejaVuSans-48"/>
       <use x="254.492188" xlink:href="#DejaVuSans-45"/>
       <use x="290.576172" xlink:href="#DejaVuSans-48"/>
       <use x="354.199219" xlink:href="#DejaVuSans-51"/>
       <use x="417.822266" xlink:href="#DejaVuSans-45"/>
       <use x="453.90625" xlink:href="#DejaVuSans-50"/>
       <use x="517.529297" xlink:href="#DejaVuSans-54"/>
      </g>
     </g>
    </g>
    <g id="xtick_11">
     <g id="line2d_11">
      <path clip-path="url(#p6d3fa6340c)" d="M 293.53321 284.4 
L 293.53321 7.2 
" style="fill:none;stroke:#ffffff;stroke-linecap:round;"/>
     </g>
     <g id="text_11">
      <!-- 2020-03-27 -->
      <g style="fill:#262626;" transform="translate(291.245554 357.827187)rotate(-90)scale(0.11 -0.11)">
       <use xlink:href="#DejaVuSans-50"/>
       <use x="63.623047" xlink:href="#DejaVuSans-48"/>
       <use x="127.246094" xlink:href="#DejaVuSans-50"/>
       <use x="190.869141" xlink:href="#DejaVuSans-48"/>
       <use x="254.492188" xlink:href="#DejaVuSans-45"/>
       <use x="290.576172" xlink:href="#DejaVuSans-48"/>
       <use x="354.199219" xlink:href="#DejaVuSans-51"/>
       <use x="417.822266" xlink:href="#DejaVuSans-45"/>
       <use x="453.90625" xlink:href="#DejaVuSans-50"/>
       <use x="517.529297" xlink:href="#DejaVuSans-55"/>
      </g>
     </g>
    </g>
    <g id="xtick_12">
     <g id="line2d_12">
      <path clip-path="url(#p6d3fa6340c)" d="M 314.669574 284.4 
L 314.669574 7.2 
" style="fill:none;stroke:#ffffff;stroke-linecap:round;"/>
     </g>
     <g id="text_12">
      <!-- 2020-03-28 -->
      <g style="fill:#262626;" transform="translate(312.381918 357.827187)rotate(-90)scale(0.11 -0.11)">
       <use xlink:href="#DejaVuSans-50"/>
       <use x="63.623047" xlink:href="#DejaVuSans-48"/>
       <use x="127.246094" xlink:href="#DejaVuSans-50"/>
       <use x="190.869141" xlink:href="#DejaVuSans-48"/>
       <use x="254.492188" xlink:href="#DejaVuSans-45"/>
       <use x="290.576172" xlink:href="#DejaVuSans-48"/>
       <use x="354.199219" xlink:href="#DejaVuSans-51"/>
       <use x="417.822266" xlink:href="#DejaVuSans-45"/>
       <use x="453.90625" xlink:href="#DejaVuSans-50"/>
       <use x="517.529297" xlink:href="#DejaVuSans-56"/>
      </g>
     </g>
    </g>
    <g id="xtick_13">
     <g id="line2d_13">
      <path clip-path="url(#p6d3fa6340c)" d="M 335.805938 284.4 
L 335.805938 7.2 
" style="fill:none;stroke:#ffffff;stroke-linecap:round;"/>
     </g>
     <g id="text_13">
      <!-- 2020-03-29 -->
      <g style="fill:#262626;" transform="translate(333.518281 357.827187)rotate(-90)scale(0.11 -0.11)">
       <use xlink:href="#DejaVuSans-50"/>
       <use x="63.623047" xlink:href="#DejaVuSans-48"/>
       <use x="127.246094" xlink:href="#DejaVuSans-50"/>
       <use x="190.869141" xlink:href="#DejaVuSans-48"/>
       <use x="254.492188" xlink:href="#DejaVuSans-45"/>
       <use x="290.576172" xlink:href="#DejaVuSans-48"/>
       <use x="354.199219" xlink:href="#DejaVuSans-51"/>
       <use x="417.822266" xlink:href="#DejaVuSans-45"/>
       <use x="453.90625" xlink:href="#DejaVuSans-50"/>
       <use x="517.529297" xlink:href="#DejaVuSans-57"/>
      </g>
     </g>
    </g>
    <g id="xtick_14">
     <g id="line2d_14">
      <path clip-path="url(#p6d3fa6340c)" d="M 356.942301 284.4 
L 356.942301 7.2 
" style="fill:none;stroke:#ffffff;stroke-linecap:round;"/>
     </g>
     <g id="text_14">
      <!-- 2020-03-30 -->
      <g style="fill:#262626;" transform="translate(354.654645 357.827187)rotate(-90)scale(0.11 -0.11)">
       <use xlink:href="#DejaVuSans-50"/>
       <use x="63.623047" xlink:href="#DejaVuSans-48"/>
       <use x="127.246094" xlink:href="#DejaVuSans-50"/>
       <use x="190.869141" xlink:href="#DejaVuSans-48"/>
       <use x="254.492188" xlink:href="#DejaVuSans-45"/>
       <use x="290.576172" xlink:href="#DejaVuSans-48"/>
       <use x="354.199219" xlink:href="#DejaVuSans-51"/>
       <use x="417.822266" xlink:href="#DejaVuSans-45"/>
       <use x="453.90625" xlink:href="#DejaVuSans-51"/>
       <use x="517.529297" xlink:href="#DejaVuSans-48"/>
      </g>
     </g>
    </g>
    <g id="xtick_15">
     <g id="line2d_15">
      <path clip-path="url(#p6d3fa6340c)" d="M 378.078665 284.4 
L 378.078665 7.2 
" style="fill:none;stroke:#ffffff;stroke-linecap:round;"/>
     </g>
     <g id="text_15">
      <!-- 2020-03-31 -->
      <g style="fill:#262626;" transform="translate(375.791009 357.827187)rotate(-90)scale(0.11 -0.11)">
       <use xlink:href="#DejaVuSans-50"/>
       <use x="63.623047" xlink:href="#DejaVuSans-48"/>
       <use x="127.246094" xlink:href="#DejaVuSans-50"/>
       <use x="190.869141" xlink:href="#DejaVuSans-48"/>
       <use x="254.492188" xlink:href="#DejaVuSans-45"/>
       <use x="290.576172" xlink:href="#DejaVuSans-48"/>
       <use x="354.199219" xlink:href="#DejaVuSans-51"/>
       <use x="417.822266" xlink:href="#DejaVuSans-45"/>
       <use x="453.90625" xlink:href="#DejaVuSans-51"/>
       <use x="517.529297" xlink:href="#DejaVuSans-49"/>
      </g>
     </g>
    </g>
    <g id="xtick_16">
     <g id="line2d_16">
      <path clip-path="url(#p6d3fa6340c)" d="M 399.215028 284.4 
L 399.215028 7.2 
" style="fill:none;stroke:#ffffff;stroke-linecap:round;"/>
     </g>
     <g id="text_16">
      <!-- 2020-04-01 -->
      <g style="fill:#262626;" transform="translate(396.927372 357.827187)rotate(-90)scale(0.11 -0.11)">
       <use xlink:href="#DejaVuSans-50"/>
       <use x="63.623047" xlink:href="#DejaVuSans-48"/>
       <use x="127.246094" xlink:href="#DejaVuSans-50"/>
       <use x="190.869141" xlink:href="#DejaVuSans-48"/>
       <use x="254.492188" xlink:href="#DejaVuSans-45"/>
       <use x="290.576172" xlink:href="#DejaVuSans-48"/>
       <use x="354.199219" xlink:href="#DejaVuSans-52"/>
       <use x="417.822266" xlink:href="#DejaVuSans-45"/>
       <use x="453.90625" xlink:href="#DejaVuSans-48"/>
       <use x="517.529297" xlink:href="#DejaVuSans-49"/>
      </g>
     </g>
    </g>
    <g id="xtick_17">
     <g id="line2d_17">
      <path clip-path="url(#p6d3fa6340c)" d="M 420.351392 284.4 
L 420.351392 7.2 
" style="fill:none;stroke:#ffffff;stroke-linecap:round;"/>
     </g>
     <g id="text_17">
      <!-- 2020-04-02 -->
      <g style="fill:#262626;" transform="translate(418.063736 357.827187)rotate(-90)scale(0.11 -0.11)">
       <use xlink:href="#DejaVuSans-50"/>
       <use x="63.623047" xlink:href="#DejaVuSans-48"/>
       <use x="127.246094" xlink:href="#DejaVuSans-50"/>
       <use x="190.869141" xlink:href="#DejaVuSans-48"/>
       <use x="254.492188" xlink:href="#DejaVuSans-45"/>
       <use x="290.576172" xlink:href="#DejaVuSans-48"/>
       <use x="354.199219" xlink:href="#DejaVuSans-52"/>
       <use x="417.822266" xlink:href="#DejaVuSans-45"/>
       <use x="453.90625" xlink:href="#DejaVuSans-48"/>
       <use x="517.529297" xlink:href="#DejaVuSans-50"/>
      </g>
     </g>
    </g>
    <g id="xtick_18">
     <g id="line2d_18">
      <path clip-path="url(#p6d3fa6340c)" d="M 441.487756 284.4 
L 441.487756 7.2 
" style="fill:none;stroke:#ffffff;stroke-linecap:round;"/>
     </g>
     <g id="text_18">
      <!-- 2020-04-03 -->
      <g style="fill:#262626;" transform="translate(439.200099 357.827187)rotate(-90)scale(0.11 -0.11)">
       <use xlink:href="#DejaVuSans-50"/>
       <use x="63.623047" xlink:href="#DejaVuSans-48"/>
       <use x="127.246094" xlink:href="#DejaVuSans-50"/>
       <use x="190.869141" xlink:href="#DejaVuSans-48"/>
       <use x="254.492188" xlink:href="#DejaVuSans-45"/>
       <use x="290.576172" xlink:href="#DejaVuSans-48"/>
       <use x="354.199219" xlink:href="#DejaVuSans-52"/>
       <use x="417.822266" xlink:href="#DejaVuSans-45"/>
       <use x="453.90625" xlink:href="#DejaVuSans-48"/>
       <use x="517.529297" xlink:href="#DejaVuSans-51"/>
      </g>
     </g>
    </g>
    <g id="xtick_19">
     <g id="line2d_19">
      <path clip-path="url(#p6d3fa6340c)" d="M 462.624119 284.4 
L 462.624119 7.2 
" style="fill:none;stroke:#ffffff;stroke-linecap:round;"/>
     </g>
     <g id="text_19">
      <!-- 2020-04-04 -->
      <g style="fill:#262626;" transform="translate(460.336463 357.827187)rotate(-90)scale(0.11 -0.11)">
       <use xlink:href="#DejaVuSans-50"/>
       <use x="63.623047" xlink:href="#DejaVuSans-48"/>
       <use x="127.246094" xlink:href="#DejaVuSans-50"/>
       <use x="190.869141" xlink:href="#DejaVuSans-48"/>
       <use x="254.492188" xlink:href="#DejaVuSans-45"/>
       <use x="290.576172" xlink:href="#DejaVuSans-48"/>
       <use x="354.199219" xlink:href="#DejaVuSans-52"/>
       <use x="417.822266" xlink:href="#DejaVuSans-45"/>
       <use x="453.90625" xlink:href="#DejaVuSans-48"/>
       <use x="517.529297" xlink:href="#DejaVuSans-52"/>
      </g>
     </g>
    </g>
    <g id="xtick_20">
     <g id="line2d_20">
      <path clip-path="url(#p6d3fa6340c)" d="M 483.760483 284.4 
L 483.760483 7.2 
" style="fill:none;stroke:#ffffff;stroke-linecap:round;"/>
     </g>
     <g id="text_20">
      <!-- 2020-04-05 -->
      <g style="fill:#262626;" transform="translate(481.472827 357.827187)rotate(-90)scale(0.11 -0.11)">
       <use xlink:href="#DejaVuSans-50"/>
       <use x="63.623047" xlink:href="#DejaVuSans-48"/>
       <use x="127.246094" xlink:href="#DejaVuSans-50"/>
       <use x="190.869141" xlink:href="#DejaVuSans-48"/>
       <use x="254.492188" xlink:href="#DejaVuSans-45"/>
       <use x="290.576172" xlink:href="#DejaVuSans-48"/>
       <use x="354.199219" xlink:href="#DejaVuSans-52"/>
       <use x="417.822266" xlink:href="#DejaVuSans-45"/>
       <use x="453.90625" xlink:href="#DejaVuSans-48"/>
       <use x="517.529297" xlink:href="#DejaVuSans-53"/>
      </g>
     </g>
    </g>
    <g id="xtick_21">
     <g id="line2d_21">
      <path clip-path="url(#p6d3fa6340c)" d="M 504.896847 284.4 
L 504.896847 7.2 
" style="fill:none;stroke:#ffffff;stroke-linecap:round;"/>
     </g>
     <g id="text_21">
      <!-- 2020-04-06 -->
      <g style="fill:#262626;" transform="translate(502.60919 357.827187)rotate(-90)scale(0.11 -0.11)">
       <use xlink:href="#DejaVuSans-50"/>
       <use x="63.623047" xlink:href="#DejaVuSans-48"/>
       <use x="127.246094" xlink:href="#DejaVuSans-50"/>
       <use x="190.869141" xlink:href="#DejaVuSans-48"/>
       <use x="254.492188" xlink:href="#DejaVuSans-45"/>
       <use x="290.576172" xlink:href="#DejaVuSans-48"/>
       <use x="354.199219" xlink:href="#DejaVuSans-52"/>
       <use x="417.822266" xlink:href="#DejaVuSans-45"/>
       <use x="453.90625" xlink:href="#DejaVuSans-48"/>
       <use x="517.529297" xlink:href="#DejaVuSans-54"/>
      </g>
     </g>
    </g>
    <g id="xtick_22">
     <g id="line2d_22">
      <path clip-path="url(#p6d3fa6340c)" d="M 526.03321 284.4 
L 526.03321 7.2 
" style="fill:none;stroke:#ffffff;stroke-linecap:round;"/>
     </g>
     <g id="text_22">
      <!-- 2020-04-07 -->
      <g style="fill:#262626;" transform="translate(523.745554 357.827187)rotate(-90)scale(0.11 -0.11)">
       <use xlink:href="#DejaVuSans-50"/>
       <use x="63.623047" xlink:href="#DejaVuSans-48"/>
       <use x="127.246094" xlink:href="#DejaVuSans-50"/>
       <use x="190.869141" xlink:href="#DejaVuSans-48"/>
       <use x="254.492188" xlink:href="#DejaVuSans-45"/>
       <use x="290.576172" xlink:href="#DejaVuSans-48"/>
       <use x="354.199219" xlink:href="#DejaVuSans-52"/>
       <use x="417.822266" xlink:href="#DejaVuSans-45"/>
       <use x="453.90625" xlink:href="#DejaVuSans-48"/>
       <use x="517.529297" xlink:href="#DejaVuSans-55"/>
      </g>
     </g>
    </g>
    <g id="xtick_23">
     <g id="line2d_23">
      <path clip-path="url(#p6d3fa6340c)" d="M 547.169574 284.4 
L 547.169574 7.2 
" style="fill:none;stroke:#ffffff;stroke-linecap:round;"/>
     </g>
     <g id="text_23">
      <!-- 2020-04-08 -->
      <g style="fill:#262626;" transform="translate(544.881918 357.827187)rotate(-90)scale(0.11 -0.11)">
       <use xlink:href="#DejaVuSans-50"/>
       <use x="63.623047" xlink:href="#DejaVuSans-48"/>
       <use x="127.246094" xlink:href="#DejaVuSans-50"/>
       <use x="190.869141" xlink:href="#DejaVuSans-48"/>
       <use x="254.492188" xlink:href="#DejaVuSans-45"/>
       <use x="290.576172" xlink:href="#DejaVuSans-48"/>
       <use x="354.199219" xlink:href="#DejaVuSans-52"/>
       <use x="417.822266" xlink:href="#DejaVuSans-45"/>
       <use x="453.90625" xlink:href="#DejaVuSans-48"/>
       <use x="517.529297" xlink:href="#DejaVuSans-56"/>
      </g>
     </g>
    </g>
    <g id="xtick_24">
     <g id="line2d_24">
      <path clip-path="url(#p6d3fa6340c)" d="M 568.305938 284.4 
L 568.305938 7.2 
" style="fill:none;stroke:#ffffff;stroke-linecap:round;"/>
     </g>
     <g id="text_24">
      <!-- 2020-04-09 -->
      <g style="fill:#262626;" transform="translate(566.018281 357.827187)rotate(-90)scale(0.11 -0.11)">
       <use xlink:href="#DejaVuSans-50"/>
       <use x="63.623047" xlink:href="#DejaVuSans-48"/>
       <use x="127.246094" xlink:href="#DejaVuSans-50"/>
       <use x="190.869141" xlink:href="#DejaVuSans-48"/>
       <use x="254.492188" xlink:href="#DejaVuSans-45"/>
       <use x="290.576172" xlink:href="#DejaVuSans-48"/>
       <use x="354.199219" xlink:href="#DejaVuSans-52"/>
       <use x="417.822266" xlink:href="#DejaVuSans-45"/>
       <use x="453.90625" xlink:href="#DejaVuSans-48"/>
       <use x="517.529297" xlink:href="#DejaVuSans-57"/>
      </g>
     </g>
    </g>
    <g id="xtick_25">
     <g id="line2d_25">
      <path clip-path="url(#p6d3fa6340c)" d="M 589.442301 284.4 
L 589.442301 7.2 
" style="fill:none;stroke:#ffffff;stroke-linecap:round;"/>
     </g>
     <g id="text_25">
      <!-- 2020-04-10 -->
      <g style="fill:#262626;" transform="translate(587.154645 357.827187)rotate(-90)scale(0.11 -0.11)">
       <use xlink:href="#DejaVuSans-50"/>
       <use x="63.623047" xlink:href="#DejaVuSans-48"/>
       <use x="127.246094" xlink:href="#DejaVuSans-50"/>
       <use x="190.869141" xlink:href="#DejaVuSans-48"/>
       <use x="254.492188" xlink:href="#DejaVuSans-45"/>
       <use x="290.576172" xlink:href="#DejaVuSans-48"/>
       <use x="354.199219" xlink:href="#DejaVuSans-52"/>
       <use x="417.822266" xlink:href="#DejaVuSans-45"/>
       <use x="453.90625" xlink:href="#DejaVuSans-49"/>
       <use x="517.529297" xlink:href="#DejaVuSans-48"/>
      </g>
     </g>
    </g>
    <g id="text_26">
     <!-- Day -->
     <defs>
      <path d="M 19.671875 64.796875 
L 19.671875 8.109375 
L 31.59375 8.109375 
Q 46.6875 8.109375 53.6875 14.9375 
Q 60.6875 21.78125 60.6875 36.53125 
Q 60.6875 51.171875 53.6875 57.984375 
Q 46.6875 64.796875 31.59375 64.796875 
z
M 9.8125 72.90625 
L 30.078125 72.90625 
Q 51.265625 72.90625 61.171875 64.09375 
Q 71.09375 55.28125 71.09375 36.53125 
Q 71.09375 17.671875 61.125 8.828125 
Q 51.171875 0 30.078125 0 
L 9.8125 0 
z
" id="DejaVuSans-68"/>
      <path d="M 34.28125 27.484375 
Q 23.390625 27.484375 19.1875 25 
Q 14.984375 22.515625 14.984375 16.5 
Q 14.984375 11.71875 18.140625 8.90625 
Q 21.296875 6.109375 26.703125 6.109375 
Q 34.1875 6.109375 38.703125 11.40625 
Q 43.21875 16.703125 43.21875 25.484375 
L 43.21875 27.484375 
z
M 52.203125 31.203125 
L 52.203125 0 
L 43.21875 0 
L 43.21875 8.296875 
Q 40.140625 3.328125 35.546875 0.953125 
Q 30.953125 -1.421875 24.3125 -1.421875 
Q 15.921875 -1.421875 10.953125 3.296875 
Q 6 8.015625 6 15.921875 
Q 6 25.140625 12.171875 29.828125 
Q 18.359375 34.515625 30.609375 34.515625 
L 43.21875 34.515625 
L 43.21875 35.40625 
Q 43.21875 41.609375 39.140625 45 
Q 35.0625 48.390625 27.6875 48.390625 
Q 23 48.390625 18.546875 47.265625 
Q 14.109375 46.140625 10.015625 43.890625 
L 10.015625 52.203125 
Q 14.9375 54.109375 19.578125 55.046875 
Q 24.21875 56 28.609375 56 
Q 40.484375 56 46.34375 49.84375 
Q 52.203125 43.703125 52.203125 31.203125 
z
" id="DejaVuSans-97"/>
      <path d="M 32.171875 -5.078125 
Q 28.375 -14.84375 24.75 -17.8125 
Q 21.140625 -20.796875 15.09375 -20.796875 
L 7.90625 -20.796875 
L 7.90625 -13.28125 
L 13.1875 -13.28125 
Q 16.890625 -13.28125 18.9375 -11.515625 
Q 21 -9.765625 23.484375 -3.21875 
L 25.09375 0.875 
L 2.984375 54.6875 
L 12.5 54.6875 
L 29.59375 11.921875 
L 46.6875 54.6875 
L 56.203125 54.6875 
z
" id="DejaVuSans-121"/>
     </defs>
     <g style="fill:#262626;" transform="translate(323.957813 370.945312)scale(0.12 -0.12)">
      <use xlink:href="#DejaVuSans-68"/>
      <use x="77.001953" xlink:href="#DejaVuSans-97"/>
      <use x="138.28125" xlink:href="#DejaVuSans-121"/>
     </g>
    </g>
   </g>
   <g id="matplotlib.axis_2">
    <g id="ytick_1">
     <g id="line2d_26">
      <path clip-path="url(#p6d3fa6340c)" d="M 56.805938 271.8 
L 614.805938 271.8 
" style="fill:none;stroke:#ffffff;stroke-linecap:round;"/>
     </g>
     <g id="text_27">
      <!-- 0.00 -->
      <defs>
       <path d="M 10.6875 12.40625 
L 21 12.40625 
L 21 0 
L 10.6875 0 
z
" id="DejaVuSans-46"/>
      </defs>
      <g style="fill:#262626;" transform="translate(22.81375 275.979141)scale(0.11 -0.11)">
       <use xlink:href="#DejaVuSans-48"/>
       <use x="63.623047" xlink:href="#DejaVuSans-46"/>
       <use x="95.410156" xlink:href="#DejaVuSans-48"/>
       <use x="159.033203" xlink:href="#DejaVuSans-48"/>
      </g>
     </g>
    </g>
    <g id="ytick_2">
     <g id="line2d_27">
      <path clip-path="url(#p6d3fa6340c)" d="M 56.805938 232.339653 
L 614.805938 232.339653 
" style="fill:none;stroke:#ffffff;stroke-linecap:round;"/>
     </g>
     <g id="text_28">
      <!-- 0.02 -->
      <g style="fill:#262626;" transform="translate(22.81375 236.518794)scale(0.11 -0.11)">
       <use xlink:href="#DejaVuSans-48"/>
       <use x="63.623047" xlink:href="#DejaVuSans-46"/>
       <use x="95.410156" xlink:href="#DejaVuSans-48"/>
       <use x="159.033203" xlink:href="#DejaVuSans-50"/>
      </g>
     </g>
    </g>
    <g id="ytick_3">
     <g id="line2d_28">
      <path clip-path="url(#p6d3fa6340c)" d="M 56.805938 192.879306 
L 614.805938 192.879306 
" style="fill:none;stroke:#ffffff;stroke-linecap:round;"/>
     </g>
     <g id="text_29">
      <!-- 0.04 -->
      <g style="fill:#262626;" transform="translate(22.81375 197.058447)scale(0.11 -0.11)">
       <use xlink:href="#DejaVuSans-48"/>
       <use x="63.623047" xlink:href="#DejaVuSans-46"/>
       <use x="95.410156" xlink:href="#DejaVuSans-48"/>
       <use x="159.033203" xlink:href="#DejaVuSans-52"/>
      </g>
     </g>
    </g>
    <g id="ytick_4">
     <g id="line2d_29">
      <path clip-path="url(#p6d3fa6340c)" d="M 56.805938 153.418959 
L 614.805938 153.418959 
" style="fill:none;stroke:#ffffff;stroke-linecap:round;"/>
     </g>
     <g id="text_30">
      <!-- 0.06 -->
      <g style="fill:#262626;" transform="translate(22.81375 157.5981)scale(0.11 -0.11)">
       <use xlink:href="#DejaVuSans-48"/>
       <use x="63.623047" xlink:href="#DejaVuSans-46"/>
       <use x="95.410156" xlink:href="#DejaVuSans-48"/>
       <use x="159.033203" xlink:href="#DejaVuSans-54"/>
      </g>
     </g>
    </g>
    <g id="ytick_5">
     <g id="line2d_30">
      <path clip-path="url(#p6d3fa6340c)" d="M 56.805938 113.958612 
L 614.805938 113.958612 
" style="fill:none;stroke:#ffffff;stroke-linecap:round;"/>
     </g>
     <g id="text_31">
      <!-- 0.08 -->
      <g style="fill:#262626;" transform="translate(22.81375 118.137753)scale(0.11 -0.11)">
       <use xlink:href="#DejaVuSans-48"/>
       <use x="63.623047" xlink:href="#DejaVuSans-46"/>
       <use x="95.410156" xlink:href="#DejaVuSans-48"/>
       <use x="159.033203" xlink:href="#DejaVuSans-56"/>
      </g>
     </g>
    </g>
    <g id="ytick_6">
     <g id="line2d_31">
      <path clip-path="url(#p6d3fa6340c)" d="M 56.805938 74.498265 
L 614.805938 74.498265 
" style="fill:none;stroke:#ffffff;stroke-linecap:round;"/>
     </g>
     <g id="text_32">
      <!-- 0.10 -->
      <g style="fill:#262626;" transform="translate(22.81375 78.677406)scale(0.11 -0.11)">
       <use xlink:href="#DejaVuSans-48"/>
       <use x="63.623047" xlink:href="#DejaVuSans-46"/>
       <use x="95.410156" xlink:href="#DejaVuSans-49"/>
       <use x="159.033203" xlink:href="#DejaVuSans-48"/>
      </g>
     </g>
    </g>
    <g id="ytick_7">
     <g id="line2d_32">
      <path clip-path="url(#p6d3fa6340c)" d="M 56.805938 35.037918 
L 614.805938 35.037918 
" style="fill:none;stroke:#ffffff;stroke-linecap:round;"/>
     </g>
     <g id="text_33">
      <!-- 0.12 -->
      <g style="fill:#262626;" transform="translate(22.81375 39.217059)scale(0.11 -0.11)">
       <use xlink:href="#DejaVuSans-48"/>
       <use x="63.623047" xlink:href="#DejaVuSans-46"/>
       <use x="95.410156" xlink:href="#DejaVuSans-49"/>
       <use x="159.033203" xlink:href="#DejaVuSans-50"/>
      </g>
     </g>
    </g>
    <g id="text_34">
     <!-- Death Rate -->
     <defs>
      <path d="M 56.203125 29.59375 
L 56.203125 25.203125 
L 14.890625 25.203125 
Q 15.484375 15.921875 20.484375 11.0625 
Q 25.484375 6.203125 34.421875 6.203125 
Q 39.59375 6.203125 44.453125 7.46875 
Q 49.3125 8.734375 54.109375 11.28125 
L 54.109375 2.78125 
Q 49.265625 0.734375 44.1875 -0.34375 
Q 39.109375 -1.421875 33.890625 -1.421875 
Q 20.796875 -1.421875 13.15625 6.1875 
Q 5.515625 13.8125 5.515625 26.8125 
Q 5.515625 40.234375 12.765625 48.109375 
Q 20.015625 56 32.328125 56 
Q 43.359375 56 49.78125 48.890625 
Q 56.203125 41.796875 56.203125 29.59375 
z
M 47.21875 32.234375 
Q 47.125 39.59375 43.09375 43.984375 
Q 39.0625 48.390625 32.421875 48.390625 
Q 24.90625 48.390625 20.390625 44.140625 
Q 15.875 39.890625 15.1875 32.171875 
z
" id="DejaVuSans-101"/>
      <path d="M 18.3125 70.21875 
L 18.3125 54.6875 
L 36.8125 54.6875 
L 36.8125 47.703125 
L 18.3125 47.703125 
L 18.3125 18.015625 
Q 18.3125 11.328125 20.140625 9.421875 
Q 21.96875 7.515625 27.59375 7.515625 
L 36.8125 7.515625 
L 36.8125 0 
L 27.59375 0 
Q 17.1875 0 13.234375 3.875 
Q 9.28125 7.765625 9.28125 18.015625 
L 9.28125 47.703125 
L 2.6875 47.703125 
L 2.6875 54.6875 
L 9.28125 54.6875 
L 9.28125 70.21875 
z
" id="DejaVuSans-116"/>
      <path d="M 54.890625 33.015625 
L 54.890625 0 
L 45.90625 0 
L 45.90625 32.71875 
Q 45.90625 40.484375 42.875 44.328125 
Q 39.84375 48.1875 33.796875 48.1875 
Q 26.515625 48.1875 22.3125 43.546875 
Q 18.109375 38.921875 18.109375 30.90625 
L 18.109375 0 
L 9.078125 0 
L 9.078125 75.984375 
L 18.109375 75.984375 
L 18.109375 46.1875 
Q 21.34375 51.125 25.703125 53.5625 
Q 30.078125 56 35.796875 56 
Q 45.21875 56 50.046875 50.171875 
Q 54.890625 44.34375 54.890625 33.015625 
z
" id="DejaVuSans-104"/>
      <path id="DejaVuSans-32"/>
      <path d="M 44.390625 34.1875 
Q 47.5625 33.109375 50.5625 29.59375 
Q 53.5625 26.078125 56.59375 19.921875 
L 66.609375 0 
L 56 0 
L 46.6875 18.703125 
Q 43.0625 26.03125 39.671875 28.421875 
Q 36.28125 30.8125 30.421875 30.8125 
L 19.671875 30.8125 
L 19.671875 0 
L 9.8125 0 
L 9.8125 72.90625 
L 32.078125 72.90625 
Q 44.578125 72.90625 50.734375 67.671875 
Q 56.890625 62.453125 56.890625 51.90625 
Q 56.890625 45.015625 53.6875 40.46875 
Q 50.484375 35.9375 44.390625 34.1875 
z
M 19.671875 64.796875 
L 19.671875 38.921875 
L 32.078125 38.921875 
Q 39.203125 38.921875 42.84375 42.21875 
Q 46.484375 45.515625 46.484375 51.90625 
Q 46.484375 58.296875 42.84375 61.546875 
Q 39.203125 64.796875 32.078125 64.796875 
z
" id="DejaVuSans-82"/>
     </defs>
     <g style="fill:#262626;" transform="translate(16.318125 179.738437)rotate(-90)scale(0.12 -0.12)">
      <use xlink:href="#DejaVuSans-68"/>
      <use x="77.001953" xlink:href="#DejaVuSans-101"/>
      <use x="138.525391" xlink:href="#DejaVuSans-97"/>
      <use x="199.804688" xlink:href="#DejaVuSans-116"/>
      <use x="239.013672" xlink:href="#DejaVuSans-104"/>
      <use x="302.392578" xlink:href="#DejaVuSans-32"/>
      <use x="334.179688" xlink:href="#DejaVuSans-82"/>
      <use x="403.630859" xlink:href="#DejaVuSans-97"/>
      <use x="464.910156" xlink:href="#DejaVuSans-116"/>
      <use x="504.119141" xlink:href="#DejaVuSans-101"/>
     </g>
    </g>
   </g>
   <g id="line2d_33">
    <path clip-path="url(#p6d3fa6340c)" d="M 82.169574 193.104707 
L 103.305938 192.687192 
L 124.442301 192.687192 
L 145.578665 192.652195 
L 166.715028 192.420703 
L 187.851392 192.239906 
L 208.987756 192.239906 
L 230.124119 192.146209 
L 251.260483 192.095133 
L 272.396847 191.947859 
L 293.53321 191.947859 
L 314.669574 191.928116 
L 335.805938 191.851115 
L 356.942301 191.784665 
L 378.078665 191.807577 
L 399.215028 191.673538 
L 420.351392 191.562817 
L 441.487756 191.496598 
L 462.624119 191.418617 
L 483.760483 191.375668 
L 504.896847 191.365761 
L 526.03321 191.39725 
L 547.169574 191.409951 
L 568.305938 191.423614 
L 589.442301 191.44074 
" style="fill:none;stroke:#a6cee3;stroke-linecap:round;stroke-width:1.5;"/>
   </g>
   <g id="line2d_34">
    <path clip-path="url(#p6d3fa6340c)" d="M 82.169574 239.264244 
L 103.305938 239.486212 
L 124.442301 244.364025 
L 145.578665 245.000177 
L 166.715028 246.26787 
L 187.851392 246.003389 
L 208.987756 247.766591 
L 230.124119 246.298897 
L 251.260483 244.319621 
L 272.396847 241.817105 
L 293.53321 241.505662 
L 314.669574 239.006828 
L 335.805938 237.109489 
L 356.942301 235.661384 
L 378.078665 232.7377 
L 399.215028 227.982634 
L 420.351392 224.723091 
L 441.487756 221.392581 
L 462.624119 218.25547 
L 483.760483 215.387277 
L 504.896847 213.730025 
L 526.03321 209.152296 
L 547.169574 204.672385 
L 568.305938 201.601598 
L 589.442301 199.13241 
" style="fill:none;stroke:#1f78b4;stroke-linecap:round;stroke-width:1.5;"/>
   </g>
   <g id="line2d_35">
    <path clip-path="url(#p6d3fa6340c)" d="M 82.169574 249.974587 
L 103.305938 255.103097 
L 124.442301 255.103097 
L 145.578665 256.03388 
L 166.715028 261.060403 
L 187.851392 263.321718 
L 208.987756 263.756248 
L 230.124119 264.437995 
L 251.260483 264.495534 
L 272.396847 263.698539 
L 293.53321 263.734206 
L 314.669574 264.201034 
L 335.805938 263.868272 
L 356.942301 263.433849 
L 378.078665 263.580897 
L 399.215028 263.281627 
L 420.351392 261.433884 
L 441.487756 261.473928 
L 462.624119 261.135041 
L 483.760483 259.657287 
L 504.896847 257.840775 
L 526.03321 255.799859 
L 547.169574 255.393736 
L 568.305938 255.315091 
L 589.442301 254.942041 
" style="fill:none;stroke:#b2df8a;stroke-linecap:round;stroke-width:1.5;"/>
   </g>
   <g id="line2d_36">
    <path clip-path="url(#p6d3fa6340c)" d="M 82.169574 206.632001 
L 103.305938 203.396365 
L 124.442301 202.754854 
L 145.578665 204.188814 
L 166.715028 204.410413 
L 187.851392 198.327056 
L 208.987756 198.336588 
L 230.124119 200.685376 
L 251.260483 203.869028 
L 272.396847 204.942166 
L 293.53321 204.942166 
L 314.669574 207.305103 
L 335.805938 214.703035 
L 356.942301 214.703035 
L 378.078665 215.226026 
L 399.215028 220.16456 
L 420.351392 224.626347 
L 441.487756 224.30283 
L 462.624119 225.415606 
L 483.760483 223.401677 
L 504.896847 225.903318 
L 526.03321 225.328521 
L 547.169574 228.696732 
L 568.305938 232.060632 
L 589.442301 236.478351 
" style="fill:none;stroke:#33a02c;stroke-linecap:round;stroke-width:1.5;"/>
   </g>
   <g id="line2d_37">
    <path clip-path="url(#p6d3fa6340c)" d="M 82.169574 266.323492 
L 103.305938 267.124961 
L 124.442301 266.133371 
L 145.578665 266.235994 
L 166.715028 264.389275 
L 187.851392 264.343576 
L 208.987756 263.787333 
L 230.124119 262.409237 
L 251.260483 260.910158 
L 272.396847 260.073238 
L 293.53321 258.509716 
L 314.669574 257.09513 
L 335.805938 256.122288 
L 356.942301 254.516925 
L 378.078665 252.064039 
L 399.215028 249.683977 
L 420.351392 246.323617 
L 441.487756 244.698958 
L 462.624119 243.323461 
L 483.760483 240.75326 
L 504.896847 239.511506 
L 526.03321 235.390487 
L 547.169574 232.731055 
L 568.305938 229.93937 
L 589.442301 228.801469 
" style="fill:none;stroke:#fb9a99;stroke-linecap:round;stroke-width:1.5;"/>
   </g>
   <g id="line2d_38">
    <path clip-path="url(#p6d3fa6340c)" d="M 82.169574 199.961932 
L 103.305938 190.655341 
L 124.442301 184.888254 
L 145.578665 160.746102 
L 166.715028 180.187198 
L 187.851392 174.242746 
L 208.987756 172.407397 
L 230.124119 168.715523 
L 251.260483 167.944416 
L 272.396847 173.978416 
L 293.53321 168.828112 
L 314.669574 154.150946 
L 335.805938 147.690518 
L 356.942301 146.331032 
L 378.078665 131.452961 
L 399.215028 114.354903 
L 420.351392 100.876942 
L 441.487756 85.446837 
L 462.624119 68.720893 
L 483.760483 68.167243 
L 504.896847 66.38568 
L 526.03321 51.825816 
L 547.169574 41.241587 
L 568.305938 29.921419 
L 589.442301 32.174611 
" style="fill:none;stroke:#e31a1c;stroke-linecap:round;stroke-width:1.5;"/>
   </g>
   <g id="line2d_39">
    <path clip-path="url(#p6d3fa6340c)" d="M 82.169574 227.132725 
L 103.305938 214.77388 
L 124.442301 205.045798 
L 145.578665 205.045798 
L 166.715028 195.111726 
L 187.851392 188.780042 
L 208.987756 186.344978 
L 230.124119 174.493728 
L 251.260483 167.726521 
L 272.396847 157.02595 
L 293.53321 152.39187 
L 314.669574 150.294687 
L 335.805938 143.814656 
L 356.942301 137.873974 
L 378.078665 138.456305 
L 399.215028 132.208045 
L 420.351392 121.482817 
L 441.487756 72.253482 
L 462.624119 105.979948 
L 483.760483 105.979948 
L 504.896847 92.414656 
L 526.03321 84.970349 
L 547.169574 81.939659 
L 568.305938 67.207674 
L 589.442301 63.27819 
" style="fill:none;stroke:#fdbf6f;stroke-linecap:round;stroke-width:1.5;"/>
   </g>
   <g id="line2d_40">
    <path clip-path="url(#p6d3fa6340c)" d="M 82.169574 115.053272 
L 103.305938 107.275999 
L 124.442301 108.083074 
L 145.578665 102.615892 
L 166.715028 94.1187 
L 187.851392 89.104559 
L 208.987756 84.241904 
L 230.124119 77.281983 
L 251.260483 72.790117 
L 272.396847 70.676552 
L 293.53321 63.453675 
L 314.669574 57.945505 
L 335.805938 54.097352 
L 356.942301 47.016543 
L 378.078665 40.018205 
L 399.215028 37.069926 
L 420.351392 33.566228 
L 441.487756 30.069274 
L 462.624119 28.608103 
L 483.760483 28.714984 
L 504.896847 25.848257 
L 526.03321 22.571701 
L 547.169574 21.758805 
L 568.305938 20.697942 
L 589.442301 19.8 
" style="fill:none;stroke:#ff7f00;stroke-linecap:round;stroke-width:1.5;"/>
   </g>
   <g id="line2d_41">
    <path clip-path="url(#p6d3fa6340c)" d="M 82.169574 182.875744 
L 103.305938 183.545244 
L 124.442301 181.100359 
L 145.578665 170.983956 
L 166.715028 164.930806 
L 187.851392 150.269593 
L 208.987756 140.201907 
L 230.124119 132.560949 
L 251.260483 129.037933 
L 272.396847 122.763543 
L 293.53321 119.832789 
L 314.669574 113.080356 
L 335.805938 106.394949 
L 356.942301 101.814117 
L 378.078665 99.003994 
L 399.215028 96.918214 
L 420.351392 91.103841 
L 441.487756 88.51103 
L 462.624119 86.038746 
L 483.760483 84.425292 
L 504.896847 79.381422 
L 526.03321 76.662096 
L 547.169574 74.444464 
L 568.305938 74.583685 
L 589.442301 71.172906 
" style="fill:none;stroke:#cab2d6;stroke-linecap:round;stroke-width:1.5;"/>
   </g>
   <g id="line2d_42">
    <path clip-path="url(#p6d3fa6340c)" d="M 82.169574 267.773434 
L 103.305938 264.799347 
L 124.442301 264.08429 
L 145.578665 264.584158 
L 166.715028 265.426617 
L 187.851392 266.009173 
L 208.987756 264.053564 
L 230.124119 263.280314 
L 251.260483 262.790788 
L 272.396847 263.62532 
L 293.53321 261.714627 
L 314.669574 260.951117 
L 335.805938 260.226693 
L 356.942301 257.596051 
L 378.078665 255.180631 
L 399.215028 253.818897 
L 420.351392 252.573559 
L 441.487756 249.819633 
L 462.624119 249.759085 
L 483.760483 247.16764 
L 504.896847 245.780684 
L 526.03321 242.052661 
L 547.169574 239.05686 
L 568.305938 237.219365 
L 589.442301 236.39972 
" style="fill:none;stroke:#6a3d9a;stroke-linecap:round;stroke-width:1.5;"/>
   </g>
   <g id="line2d_43">
    <path clip-path="url(#p6d3fa6340c)" d="M 82.169574 258.60256 
L 103.305938 256.976429 
L 124.442301 256.717866 
L 145.578665 252.539306 
L 166.715028 249.506019 
L 187.851392 250.376337 
L 208.987756 247.691772 
L 230.124119 240.728861 
L 251.260483 237.432319 
L 272.396847 218.30622 
L 293.53321 212.20788 
L 314.669574 211.699385 
L 335.805938 213.142727 
L 356.942301 200.285469 
L 378.078665 191.722633 
L 399.215028 176.479372 
L 420.351392 170.008765 
L 441.487756 156.592006 
L 462.624119 157.577515 
L 483.760483 155.961061 
L 504.896847 141.196437 
L 526.03321 120.226719 
L 547.169574 110.799535 
L 568.305938 100.636806 
L 589.442301 94.564575 
" style="fill:none;stroke:#ffff99;stroke-linecap:round;stroke-width:1.5;"/>
   </g>
   <g id="line2d_44">
    <path clip-path="url(#p6d3fa6340c)" d="M 82.169574 271.8 
L 103.305938 271.8 
L 124.442301 271.8 
L 145.578665 271.8 
L 166.715028 268.0275 
L 187.851392 268.648215 
L 208.987756 268.981404 
L 230.124119 269.308816 
L 251.260483 265.073804 
L 272.396847 261.502415 
L 293.53321 258.532832 
L 314.669574 256.583928 
L 335.805938 254.297427 
L 356.942301 252.828679 
L 378.078665 248.146054 
L 399.215028 248.604084 
L 420.351392 247.104789 
L 441.487756 247.366349 
L 462.624119 245.590949 
L 483.760483 243.131351 
L 504.896847 247.318627 
L 526.03321 242.734753 
L 547.169574 240.066709 
L 568.305938 239.989356 
L 589.442301 237.598182 
" style="fill:none;stroke:#b15928;stroke-linecap:round;stroke-width:1.5;"/>
   </g>
   <g id="line2d_45"/>
   <g id="line2d_46"/>
   <g id="line2d_47"/>
   <g id="line2d_48"/>
   <g id="line2d_49"/>
   <g id="line2d_50"/>
   <g id="line2d_51"/>
   <g id="line2d_52"/>
   <g id="line2d_53"/>
   <g id="line2d_54"/>
   <g id="line2d_55"/>
   <g id="line2d_56"/>
   <g id="line2d_57"/>
   <g id="patch_3">
    <path d="M 56.805938 284.4 
L 56.805938 7.2 
" style="fill:none;stroke:#ffffff;stroke-linecap:square;stroke-linejoin:miter;stroke-width:1.25;"/>
   </g>
   <g id="legend_1">
    <g id="patch_4">
     <path d="M 622.505938 225.897187 
L 708.455469 225.897187 
Q 710.655469 225.897187 710.655469 223.697187 
L 710.655469 14.9 
Q 710.655469 12.7 708.455469 12.7 
L 622.505938 12.7 
Q 620.305938 12.7 620.305938 14.9 
L 620.305938 223.697187 
Q 620.305938 225.897187 622.505938 225.897187 
z
" style="fill:#eaeaf2;opacity:0.8;stroke:#cccccc;stroke-linejoin:miter;"/>
    </g>
    <g id="line2d_58">
     <path d="M 624.705938 21.608281 
L 646.705938 21.608281 
" style="fill:none;"/>
    </g>
    <g id="line2d_59"/>
    <g id="text_35">
     <!-- Country -->
     <defs>
      <path d="M 64.40625 67.28125 
L 64.40625 56.890625 
Q 59.421875 61.53125 53.78125 63.8125 
Q 48.140625 66.109375 41.796875 66.109375 
Q 29.296875 66.109375 22.65625 58.46875 
Q 16.015625 50.828125 16.015625 36.375 
Q 16.015625 21.96875 22.65625 14.328125 
Q 29.296875 6.6875 41.796875 6.6875 
Q 48.140625 6.6875 53.78125 8.984375 
Q 59.421875 11.28125 64.40625 15.921875 
L 64.40625 5.609375 
Q 59.234375 2.09375 53.4375 0.328125 
Q 47.65625 -1.421875 41.21875 -1.421875 
Q 24.65625 -1.421875 15.125 8.703125 
Q 5.609375 18.84375 5.609375 36.375 
Q 5.609375 53.953125 15.125 64.078125 
Q 24.65625 74.21875 41.21875 74.21875 
Q 47.75 74.21875 53.53125 72.484375 
Q 59.328125 70.75 64.40625 67.28125 
z
" id="DejaVuSans-67"/>
      <path d="M 30.609375 48.390625 
Q 23.390625 48.390625 19.1875 42.75 
Q 14.984375 37.109375 14.984375 27.296875 
Q 14.984375 17.484375 19.15625 11.84375 
Q 23.34375 6.203125 30.609375 6.203125 
Q 37.796875 6.203125 41.984375 11.859375 
Q 46.1875 17.53125 46.1875 27.296875 
Q 46.1875 37.015625 41.984375 42.703125 
Q 37.796875 48.390625 30.609375 48.390625 
z
M 30.609375 56 
Q 42.328125 56 49.015625 48.375 
Q 55.71875 40.765625 55.71875 27.296875 
Q 55.71875 13.875 49.015625 6.21875 
Q 42.328125 -1.421875 30.609375 -1.421875 
Q 18.84375 -1.421875 12.171875 6.21875 
Q 5.515625 13.875 5.515625 27.296875 
Q 5.515625 40.765625 12.171875 48.375 
Q 18.84375 56 30.609375 56 
z
" id="DejaVuSans-111"/>
      <path d="M 8.5 21.578125 
L 8.5 54.6875 
L 17.484375 54.6875 
L 17.484375 21.921875 
Q 17.484375 14.15625 20.5 10.265625 
Q 23.53125 6.390625 29.59375 6.390625 
Q 36.859375 6.390625 41.078125 11.03125 
Q 45.3125 15.671875 45.3125 23.6875 
L 45.3125 54.6875 
L 54.296875 54.6875 
L 54.296875 0 
L 45.3125 0 
L 45.3125 8.40625 
Q 42.046875 3.421875 37.71875 1 
Q 33.40625 -1.421875 27.6875 -1.421875 
Q 18.265625 -1.421875 13.375 4.4375 
Q 8.5 10.296875 8.5 21.578125 
z
M 31.109375 56 
z
" id="DejaVuSans-117"/>
      <path d="M 54.890625 33.015625 
L 54.890625 0 
L 45.90625 0 
L 45.90625 32.71875 
Q 45.90625 40.484375 42.875 44.328125 
Q 39.84375 48.1875 33.796875 48.1875 
Q 26.515625 48.1875 22.3125 43.546875 
Q 18.109375 38.921875 18.109375 30.90625 
L 18.109375 0 
L 9.078125 0 
L 9.078125 54.6875 
L 18.109375 54.6875 
L 18.109375 46.1875 
Q 21.34375 51.125 25.703125 53.5625 
Q 30.078125 56 35.796875 56 
Q 45.21875 56 50.046875 50.171875 
Q 54.890625 44.34375 54.890625 33.015625 
z
" id="DejaVuSans-110"/>
      <path d="M 41.109375 46.296875 
Q 39.59375 47.171875 37.8125 47.578125 
Q 36.03125 48 33.890625 48 
Q 26.265625 48 22.1875 43.046875 
Q 18.109375 38.09375 18.109375 28.8125 
L 18.109375 0 
L 9.078125 0 
L 9.078125 54.6875 
L 18.109375 54.6875 
L 18.109375 46.1875 
Q 20.953125 51.171875 25.484375 53.578125 
Q 30.03125 56 36.53125 56 
Q 37.453125 56 38.578125 55.875 
Q 39.703125 55.765625 41.0625 55.515625 
z
" id="DejaVuSans-114"/>
     </defs>
     <g style="fill:#262626;" transform="translate(655.505937 25.458281)scale(0.11 -0.11)">
      <use xlink:href="#DejaVuSans-67"/>
      <use x="69.824219" xlink:href="#DejaVuSans-111"/>
      <use x="131.005859" xlink:href="#DejaVuSans-117"/>
      <use x="194.384766" xlink:href="#DejaVuSans-110"/>
      <use x="257.763672" xlink:href="#DejaVuSans-116"/>
      <use x="296.972656" xlink:href="#DejaVuSans-114"/>
      <use x="338.085938" xlink:href="#DejaVuSans-121"/>
     </g>
    </g>
    <g id="line2d_60">
     <path d="M 624.705938 37.754219 
L 646.705938 37.754219 
" style="fill:none;stroke:#a6cee3;stroke-linecap:round;stroke-width:1.5;"/>
    </g>
    <g id="line2d_61"/>
    <g id="text_36">
     <!-- China -->
     <defs>
      <path d="M 9.421875 54.6875 
L 18.40625 54.6875 
L 18.40625 0 
L 9.421875 0 
z
M 9.421875 75.984375 
L 18.40625 75.984375 
L 18.40625 64.59375 
L 9.421875 64.59375 
z
" id="DejaVuSans-105"/>
     </defs>
     <g style="fill:#262626;" transform="translate(655.505937 41.604219)scale(0.11 -0.11)">
      <use xlink:href="#DejaVuSans-67"/>
      <use x="69.824219" xlink:href="#DejaVuSans-104"/>
      <use x="133.203125" xlink:href="#DejaVuSans-105"/>
      <use x="160.986328" xlink:href="#DejaVuSans-110"/>
      <use x="224.365234" xlink:href="#DejaVuSans-97"/>
     </g>
    </g>
    <g id="line2d_62">
     <path d="M 624.705938 53.900156 
L 646.705938 53.900156 
" style="fill:none;stroke:#1f78b4;stroke-linecap:round;stroke-width:1.5;"/>
    </g>
    <g id="line2d_63"/>
    <g id="text_37">
     <!-- USA -->
     <defs>
      <path d="M 8.6875 72.90625 
L 18.609375 72.90625 
L 18.609375 28.609375 
Q 18.609375 16.890625 22.84375 11.734375 
Q 27.09375 6.59375 36.625 6.59375 
Q 46.09375 6.59375 50.34375 11.734375 
Q 54.59375 16.890625 54.59375 28.609375 
L 54.59375 72.90625 
L 64.5 72.90625 
L 64.5 27.390625 
Q 64.5 13.140625 57.4375 5.859375 
Q 50.390625 -1.421875 36.625 -1.421875 
Q 22.796875 -1.421875 15.734375 5.859375 
Q 8.6875 13.140625 8.6875 27.390625 
z
" id="DejaVuSans-85"/>
      <path d="M 53.515625 70.515625 
L 53.515625 60.890625 
Q 47.90625 63.578125 42.921875 64.890625 
Q 37.9375 66.21875 33.296875 66.21875 
Q 25.25 66.21875 20.875 63.09375 
Q 16.5 59.96875 16.5 54.203125 
Q 16.5 49.359375 19.40625 46.890625 
Q 22.3125 44.4375 30.421875 42.921875 
L 36.375 41.703125 
Q 47.40625 39.59375 52.65625 34.296875 
Q 57.90625 29 57.90625 20.125 
Q 57.90625 9.515625 50.796875 4.046875 
Q 43.703125 -1.421875 29.984375 -1.421875 
Q 24.8125 -1.421875 18.96875 -0.25 
Q 13.140625 0.921875 6.890625 3.21875 
L 6.890625 13.375 
Q 12.890625 10.015625 18.65625 8.296875 
Q 24.421875 6.59375 29.984375 6.59375 
Q 38.421875 6.59375 43.015625 9.90625 
Q 47.609375 13.234375 47.609375 19.390625 
Q 47.609375 24.75 44.3125 27.78125 
Q 41.015625 30.8125 33.5 32.328125 
L 27.484375 33.5 
Q 16.453125 35.6875 11.515625 40.375 
Q 6.59375 45.0625 6.59375 53.421875 
Q 6.59375 63.09375 13.40625 68.65625 
Q 20.21875 74.21875 32.171875 74.21875 
Q 37.3125 74.21875 42.625 73.28125 
Q 47.953125 72.359375 53.515625 70.515625 
z
" id="DejaVuSans-83"/>
      <path d="M 34.1875 63.1875 
L 20.796875 26.90625 
L 47.609375 26.90625 
z
M 28.609375 72.90625 
L 39.796875 72.90625 
L 67.578125 0 
L 57.328125 0 
L 50.6875 18.703125 
L 17.828125 18.703125 
L 11.1875 0 
L 0.78125 0 
z
" id="DejaVuSans-65"/>
     </defs>
     <g style="fill:#262626;" transform="translate(655.505937 57.750156)scale(0.11 -0.11)">
      <use xlink:href="#DejaVuSans-85"/>
      <use x="73.193359" xlink:href="#DejaVuSans-83"/>
      <use x="136.685547" xlink:href="#DejaVuSans-65"/>
     </g>
    </g>
    <g id="line2d_64">
     <path d="M 624.705938 70.046094 
L 646.705938 70.046094 
" style="fill:none;stroke:#b2df8a;stroke-linecap:round;stroke-width:1.5;"/>
    </g>
    <g id="line2d_65"/>
    <g id="text_38">
     <!-- Australia -->
     <defs>
      <path d="M 44.28125 53.078125 
L 44.28125 44.578125 
Q 40.484375 46.53125 36.375 47.5 
Q 32.28125 48.484375 27.875 48.484375 
Q 21.1875 48.484375 17.84375 46.4375 
Q 14.5 44.390625 14.5 40.28125 
Q 14.5 37.15625 16.890625 35.375 
Q 19.28125 33.59375 26.515625 31.984375 
L 29.59375 31.296875 
Q 39.15625 29.25 43.1875 25.515625 
Q 47.21875 21.78125 47.21875 15.09375 
Q 47.21875 7.46875 41.1875 3.015625 
Q 35.15625 -1.421875 24.609375 -1.421875 
Q 20.21875 -1.421875 15.453125 -0.5625 
Q 10.6875 0.296875 5.421875 2 
L 5.421875 11.28125 
Q 10.40625 8.6875 15.234375 7.390625 
Q 20.0625 6.109375 24.8125 6.109375 
Q 31.15625 6.109375 34.5625 8.28125 
Q 37.984375 10.453125 37.984375 14.40625 
Q 37.984375 18.0625 35.515625 20.015625 
Q 33.0625 21.96875 24.703125 23.78125 
L 21.578125 24.515625 
Q 13.234375 26.265625 9.515625 29.90625 
Q 5.8125 33.546875 5.8125 39.890625 
Q 5.8125 47.609375 11.28125 51.796875 
Q 16.75 56 26.8125 56 
Q 31.78125 56 36.171875 55.265625 
Q 40.578125 54.546875 44.28125 53.078125 
z
" id="DejaVuSans-115"/>
      <path d="M 9.421875 75.984375 
L 18.40625 75.984375 
L 18.40625 0 
L 9.421875 0 
z
" id="DejaVuSans-108"/>
     </defs>
     <g style="fill:#262626;" transform="translate(655.505937 73.896094)scale(0.11 -0.11)">
      <use xlink:href="#DejaVuSans-65"/>
      <use x="68.408203" xlink:href="#DejaVuSans-117"/>
      <use x="131.787109" xlink:href="#DejaVuSans-115"/>
      <use x="183.886719" xlink:href="#DejaVuSans-116"/>
      <use x="223.095703" xlink:href="#DejaVuSans-114"/>
      <use x="264.208984" xlink:href="#DejaVuSans-97"/>
      <use x="325.488281" xlink:href="#DejaVuSans-108"/>
      <use x="353.271484" xlink:href="#DejaVuSans-105"/>
      <use x="381.054688" xlink:href="#DejaVuSans-97"/>
     </g>
    </g>
    <g id="line2d_66">
     <path d="M 624.705938 86.192031 
L 646.705938 86.192031 
" style="fill:none;stroke:#33a02c;stroke-linecap:round;stroke-width:1.5;"/>
    </g>
    <g id="line2d_67"/>
    <g id="text_39">
     <!-- Japan -->
     <defs>
      <path d="M 9.8125 72.90625 
L 19.671875 72.90625 
L 19.671875 5.078125 
Q 19.671875 -8.109375 14.671875 -14.0625 
Q 9.671875 -20.015625 -1.421875 -20.015625 
L -5.171875 -20.015625 
L -5.171875 -11.71875 
L -2.09375 -11.71875 
Q 4.4375 -11.71875 7.125 -8.046875 
Q 9.8125 -4.390625 9.8125 5.078125 
z
" id="DejaVuSans-74"/>
      <path d="M 18.109375 8.203125 
L 18.109375 -20.796875 
L 9.078125 -20.796875 
L 9.078125 54.6875 
L 18.109375 54.6875 
L 18.109375 46.390625 
Q 20.953125 51.265625 25.265625 53.625 
Q 29.59375 56 35.59375 56 
Q 45.5625 56 51.78125 48.09375 
Q 58.015625 40.1875 58.015625 27.296875 
Q 58.015625 14.40625 51.78125 6.484375 
Q 45.5625 -1.421875 35.59375 -1.421875 
Q 29.59375 -1.421875 25.265625 0.953125 
Q 20.953125 3.328125 18.109375 8.203125 
z
M 48.6875 27.296875 
Q 48.6875 37.203125 44.609375 42.84375 
Q 40.53125 48.484375 33.40625 48.484375 
Q 26.265625 48.484375 22.1875 42.84375 
Q 18.109375 37.203125 18.109375 27.296875 
Q 18.109375 17.390625 22.1875 11.75 
Q 26.265625 6.109375 33.40625 6.109375 
Q 40.53125 6.109375 44.609375 11.75 
Q 48.6875 17.390625 48.6875 27.296875 
z
" id="DejaVuSans-112"/>
     </defs>
     <g style="fill:#262626;" transform="translate(655.505937 90.042031)scale(0.11 -0.11)">
      <use xlink:href="#DejaVuSans-74"/>
      <use x="29.492188" xlink:href="#DejaVuSans-97"/>
      <use x="90.771484" xlink:href="#DejaVuSans-112"/>
      <use x="154.248047" xlink:href="#DejaVuSans-97"/>
      <use x="215.527344" xlink:href="#DejaVuSans-110"/>
     </g>
    </g>
    <g id="line2d_68">
     <path d="M 624.705938 102.337969 
L 646.705938 102.337969 
" style="fill:none;stroke:#fb9a99;stroke-linecap:round;stroke-width:1.5;"/>
    </g>
    <g id="line2d_69"/>
    <g id="text_40">
     <!-- Germany -->
     <defs>
      <path d="M 59.515625 10.40625 
L 59.515625 29.984375 
L 43.40625 29.984375 
L 43.40625 38.09375 
L 69.28125 38.09375 
L 69.28125 6.78125 
Q 63.578125 2.734375 56.6875 0.65625 
Q 49.8125 -1.421875 42 -1.421875 
Q 24.90625 -1.421875 15.25 8.5625 
Q 5.609375 18.5625 5.609375 36.375 
Q 5.609375 54.25 15.25 64.234375 
Q 24.90625 74.21875 42 74.21875 
Q 49.125 74.21875 55.546875 72.453125 
Q 61.96875 70.703125 67.390625 67.28125 
L 67.390625 56.78125 
Q 61.921875 61.421875 55.765625 63.765625 
Q 49.609375 66.109375 42.828125 66.109375 
Q 29.4375 66.109375 22.71875 58.640625 
Q 16.015625 51.171875 16.015625 36.375 
Q 16.015625 21.625 22.71875 14.15625 
Q 29.4375 6.6875 42.828125 6.6875 
Q 48.046875 6.6875 52.140625 7.59375 
Q 56.25 8.5 59.515625 10.40625 
z
" id="DejaVuSans-71"/>
      <path d="M 52 44.1875 
Q 55.375 50.25 60.0625 53.125 
Q 64.75 56 71.09375 56 
Q 79.640625 56 84.28125 50.015625 
Q 88.921875 44.046875 88.921875 33.015625 
L 88.921875 0 
L 79.890625 0 
L 79.890625 32.71875 
Q 79.890625 40.578125 77.09375 44.375 
Q 74.3125 48.1875 68.609375 48.1875 
Q 61.625 48.1875 57.5625 43.546875 
Q 53.515625 38.921875 53.515625 30.90625 
L 53.515625 0 
L 44.484375 0 
L 44.484375 32.71875 
Q 44.484375 40.625 41.703125 44.40625 
Q 38.921875 48.1875 33.109375 48.1875 
Q 26.21875 48.1875 22.15625 43.53125 
Q 18.109375 38.875 18.109375 30.90625 
L 18.109375 0 
L 9.078125 0 
L 9.078125 54.6875 
L 18.109375 54.6875 
L 18.109375 46.1875 
Q 21.1875 51.21875 25.484375 53.609375 
Q 29.78125 56 35.6875 56 
Q 41.65625 56 45.828125 52.96875 
Q 50 49.953125 52 44.1875 
z
" id="DejaVuSans-109"/>
     </defs>
     <g style="fill:#262626;" transform="translate(655.505937 106.187969)scale(0.11 -0.11)">
      <use xlink:href="#DejaVuSans-71"/>
      <use x="77.490234" xlink:href="#DejaVuSans-101"/>
      <use x="139.013672" xlink:href="#DejaVuSans-114"/>
      <use x="180.111328" xlink:href="#DejaVuSans-109"/>
      <use x="277.523438" xlink:href="#DejaVuSans-97"/>
      <use x="338.802734" xlink:href="#DejaVuSans-110"/>
      <use x="402.181641" xlink:href="#DejaVuSans-121"/>
     </g>
    </g>
    <g id="line2d_70">
     <path d="M 624.705938 118.483906 
L 646.705938 118.483906 
" style="fill:none;stroke:#e31a1c;stroke-linecap:round;stroke-width:1.5;"/>
    </g>
    <g id="line2d_71"/>
    <g id="text_41">
     <!-- UK -->
     <defs>
      <path d="M 9.8125 72.90625 
L 19.671875 72.90625 
L 19.671875 42.09375 
L 52.390625 72.90625 
L 65.09375 72.90625 
L 28.90625 38.921875 
L 67.671875 0 
L 54.6875 0 
L 19.671875 35.109375 
L 19.671875 0 
L 9.8125 0 
z
" id="DejaVuSans-75"/>
     </defs>
     <g style="fill:#262626;" transform="translate(655.505937 122.333906)scale(0.11 -0.11)">
      <use xlink:href="#DejaVuSans-85"/>
      <use x="73.193359" xlink:href="#DejaVuSans-75"/>
     </g>
    </g>
    <g id="line2d_72">
     <path d="M 624.705938 134.629844 
L 646.705938 134.629844 
" style="fill:none;stroke:#fdbf6f;stroke-linecap:round;stroke-width:1.5;"/>
    </g>
    <g id="line2d_73"/>
    <g id="text_42">
     <!-- France -->
     <defs>
      <path d="M 9.8125 72.90625 
L 51.703125 72.90625 
L 51.703125 64.59375 
L 19.671875 64.59375 
L 19.671875 43.109375 
L 48.578125 43.109375 
L 48.578125 34.8125 
L 19.671875 34.8125 
L 19.671875 0 
L 9.8125 0 
z
" id="DejaVuSans-70"/>
      <path d="M 48.78125 52.59375 
L 48.78125 44.1875 
Q 44.96875 46.296875 41.140625 47.34375 
Q 37.3125 48.390625 33.40625 48.390625 
Q 24.65625 48.390625 19.8125 42.84375 
Q 14.984375 37.3125 14.984375 27.296875 
Q 14.984375 17.28125 19.8125 11.734375 
Q 24.65625 6.203125 33.40625 6.203125 
Q 37.3125 6.203125 41.140625 7.25 
Q 44.96875 8.296875 48.78125 10.40625 
L 48.78125 2.09375 
Q 45.015625 0.34375 40.984375 -0.53125 
Q 36.96875 -1.421875 32.421875 -1.421875 
Q 20.0625 -1.421875 12.78125 6.34375 
Q 5.515625 14.109375 5.515625 27.296875 
Q 5.515625 40.671875 12.859375 48.328125 
Q 20.21875 56 33.015625 56 
Q 37.15625 56 41.109375 55.140625 
Q 45.0625 54.296875 48.78125 52.59375 
z
" id="DejaVuSans-99"/>
     </defs>
     <g style="fill:#262626;" transform="translate(655.505937 138.479844)scale(0.11 -0.11)">
      <use xlink:href="#DejaVuSans-70"/>
      <use x="57.410156" xlink:href="#DejaVuSans-114"/>
      <use x="98.523438" xlink:href="#DejaVuSans-97"/>
      <use x="159.802734" xlink:href="#DejaVuSans-110"/>
      <use x="223.181641" xlink:href="#DejaVuSans-99"/>
      <use x="278.162109" xlink:href="#DejaVuSans-101"/>
     </g>
    </g>
    <g id="line2d_74">
     <path d="M 624.705938 150.775781 
L 646.705938 150.775781 
" style="fill:none;stroke:#ff7f00;stroke-linecap:round;stroke-width:1.5;"/>
    </g>
    <g id="line2d_75"/>
    <g id="text_43">
     <!-- Italy -->
     <defs>
      <path d="M 9.8125 72.90625 
L 19.671875 72.90625 
L 19.671875 0 
L 9.8125 0 
z
" id="DejaVuSans-73"/>
     </defs>
     <g style="fill:#262626;" transform="translate(655.505937 154.625781)scale(0.11 -0.11)">
      <use xlink:href="#DejaVuSans-73"/>
      <use x="29.492188" xlink:href="#DejaVuSans-116"/>
      <use x="68.701172" xlink:href="#DejaVuSans-97"/>
      <use x="129.980469" xlink:href="#DejaVuSans-108"/>
      <use x="157.763672" xlink:href="#DejaVuSans-121"/>
     </g>
    </g>
    <g id="line2d_76">
     <path d="M 624.705938 166.921719 
L 646.705938 166.921719 
" style="fill:none;stroke:#cab2d6;stroke-linecap:round;stroke-width:1.5;"/>
    </g>
    <g id="line2d_77"/>
    <g id="text_44">
     <!-- Spain -->
     <g style="fill:#262626;" transform="translate(655.505937 170.771719)scale(0.11 -0.11)">
      <use xlink:href="#DejaVuSans-83"/>
      <use x="63.476562" xlink:href="#DejaVuSans-112"/>
      <use x="126.953125" xlink:href="#DejaVuSans-97"/>
      <use x="188.232422" xlink:href="#DejaVuSans-105"/>
      <use x="216.015625" xlink:href="#DejaVuSans-110"/>
     </g>
    </g>
    <g id="line2d_78">
     <path d="M 624.705938 183.067656 
L 646.705938 183.067656 
" style="fill:none;stroke:#6a3d9a;stroke-linecap:round;stroke-width:1.5;"/>
    </g>
    <g id="line2d_79"/>
    <g id="text_45">
     <!-- Norway -->
     <defs>
      <path d="M 9.8125 72.90625 
L 23.09375 72.90625 
L 55.421875 11.921875 
L 55.421875 72.90625 
L 64.984375 72.90625 
L 64.984375 0 
L 51.703125 0 
L 19.390625 60.984375 
L 19.390625 0 
L 9.8125 0 
z
" id="DejaVuSans-78"/>
      <path d="M 4.203125 54.6875 
L 13.1875 54.6875 
L 24.421875 12.015625 
L 35.59375 54.6875 
L 46.1875 54.6875 
L 57.421875 12.015625 
L 68.609375 54.6875 
L 77.59375 54.6875 
L 63.28125 0 
L 52.6875 0 
L 40.921875 44.828125 
L 29.109375 0 
L 18.5 0 
z
" id="DejaVuSans-119"/>
     </defs>
     <g style="fill:#262626;" transform="translate(655.505937 186.917656)scale(0.11 -0.11)">
      <use xlink:href="#DejaVuSans-78"/>
      <use x="74.804688" xlink:href="#DejaVuSans-111"/>
      <use x="135.986328" xlink:href="#DejaVuSans-114"/>
      <use x="177.099609" xlink:href="#DejaVuSans-119"/>
      <use x="258.886719" xlink:href="#DejaVuSans-97"/>
      <use x="320.166016" xlink:href="#DejaVuSans-121"/>
     </g>
    </g>
    <g id="line2d_80">
     <path d="M 624.705938 199.213594 
L 646.705938 199.213594 
" style="fill:none;stroke:#ffff99;stroke-linecap:round;stroke-width:1.5;"/>
    </g>
    <g id="line2d_81"/>
    <g id="text_46">
     <!-- Sweden -->
     <defs>
      <path d="M 45.40625 46.390625 
L 45.40625 75.984375 
L 54.390625 75.984375 
L 54.390625 0 
L 45.40625 0 
L 45.40625 8.203125 
Q 42.578125 3.328125 38.25 0.953125 
Q 33.9375 -1.421875 27.875 -1.421875 
Q 17.96875 -1.421875 11.734375 6.484375 
Q 5.515625 14.40625 5.515625 27.296875 
Q 5.515625 40.1875 11.734375 48.09375 
Q 17.96875 56 27.875 56 
Q 33.9375 56 38.25 53.625 
Q 42.578125 51.265625 45.40625 46.390625 
z
M 14.796875 27.296875 
Q 14.796875 17.390625 18.875 11.75 
Q 22.953125 6.109375 30.078125 6.109375 
Q 37.203125 6.109375 41.296875 11.75 
Q 45.40625 17.390625 45.40625 27.296875 
Q 45.40625 37.203125 41.296875 42.84375 
Q 37.203125 48.484375 30.078125 48.484375 
Q 22.953125 48.484375 18.875 42.84375 
Q 14.796875 37.203125 14.796875 27.296875 
z
" id="DejaVuSans-100"/>
     </defs>
     <g style="fill:#262626;" transform="translate(655.505937 203.063594)scale(0.11 -0.11)">
      <use xlink:href="#DejaVuSans-83"/>
      <use x="63.476562" xlink:href="#DejaVuSans-119"/>
      <use x="145.263672" xlink:href="#DejaVuSans-101"/>
      <use x="206.787109" xlink:href="#DejaVuSans-100"/>
      <use x="270.263672" xlink:href="#DejaVuSans-101"/>
      <use x="331.787109" xlink:href="#DejaVuSans-110"/>
     </g>
    </g>
    <g id="line2d_82">
     <path d="M 624.705938 215.359531 
L 646.705938 215.359531 
" style="fill:none;stroke:#b15928;stroke-linecap:round;stroke-width:1.5;"/>
    </g>
    <g id="line2d_83"/>
    <g id="text_47">
     <!-- Finland -->
     <g style="fill:#262626;" transform="translate(655.505937 219.209531)scale(0.11 -0.11)">
      <use xlink:href="#DejaVuSans-70"/>
      <use x="57.410156" xlink:href="#DejaVuSans-105"/>
      <use x="85.193359" xlink:href="#DejaVuSans-110"/>
      <use x="148.572266" xlink:href="#DejaVuSans-108"/>
      <use x="176.355469" xlink:href="#DejaVuSans-97"/>
      <use x="237.634766" xlink:href="#DejaVuSans-110"/>
      <use x="301.013672" xlink:href="#DejaVuSans-100"/>
     </g>
    </g>
   </g>
  </g>
 </g>
 <defs>
  <clipPath id="p6d3fa6340c">
   <rect height="277.2" width="558" x="56.805938" y="7.2"/>
  </clipPath>
 </defs>
</svg>
